<?xml version="1.0" encoding="utf-8"?>
<!-- Generator: Adobe Illustrator 28.2.0, SVG Export Plug-In . SVG Version: 6.00 Build 0)  -->
<svg version="1.1" id="Layer_1" xmlns="http://www.w3.org/2000/svg" xmlns:xlink="http://www.w3.org/1999/xlink" x="0px" y="0px"
	 viewBox="0 0 60 60" style="enable-background:new 0 0 60 60;" xml:space="preserve">
<style type="text/css">
	.st0{fill:#009DCE;}
</style>
<path class="st0" d="M50.3,13.1c0.1,0.1,0.1,0.1,0.1,0.3c0.1,0.1,0.1,0.3,0.2,0.4c0.2,0.5,0.5,0.9,1,1c0.1,0,0.1,0.1,0.2,0.1
	c0.3,0.3,0.7,0.5,1.1,0.6c0.2,0.3,0.5,0.6,0.8,0.9c0.1,0.1,0.2,0.1,0.3,0.3c0,0.1,0.1,0.3,0.2,0.5c0.1,0.1,0.1,0.3,0.2,0.3
	c0.2,0.1,0.3,0.3,0.3,0.6c0.1,0.1,0.1,0.2,0.1,0.3c0.3,0.3,0.5,0.8,0.6,1.3c0.1,0.2,0.1,0.5,0.2,0.7c0.1,0.1,0.1,0.2,0.1,0.3
	c0,0.4,0.2,0.7,0.3,1.1c-0.1,0.2,0,0.5,0.1,0.7c0.1,0.4,0.1,0.8,0.1,1.2c0.1,0.3,0.1,0.7,0.1,1c0,0.3,0.1,0.5,0.1,0.9
	c0,0.1,0,0.3,0.1,0.5c-0.2,0.3-0.1,0.6-0.1,0.9c0,0.1,0.1,0.1,0.1,0.3c0.1,0.1,0.1,0.1,0,0.3c-0.1,0.1-0.1,0.3-0.1,0.4
	c0,0.3,0,0.7-0.1,1c0,0.1,0,0.1-0.1,0.2c-0.1,0.3-0.1,0.6-0.1,0.9c-0.1,0.3-0.1,0.7-0.2,1c-0.1,0.3-0.1,0.7-0.2,0.9
	c-0.1,0.1,0,0.2-0.1,0.3c-0.1,0.2-0.2,0.5-0.2,0.7c-0.1,0-0.1,0.1-0.1,0.1c-0.1,0.1-0.1,0.3-0.1,0.5c0.1,0.1,0,0.1-0.1,0.2
	c0,0.1-0.1,0.2-0.1,0.3c0,0.1-0.1,0.3-0.1,0.5c-0.1,0.1-0.1,0.3-0.1,0.5c-0.1,0.3-0.1,0.5-0.3,0.7c-0.1,0.2-0.1,0.3-0.2,0.5
	c-0.1,0.3-0.3,0.5-0.4,0.7c-0.1,0.2-0.1,0.4-0.3,0.6c-0.1,0.2-0.2,0.4-0.3,0.6c-0.2,0.3-0.3,0.6-0.5,0.8c-0.1,0.1-0.1,0.2-0.1,0.3
	c-0.1,0.1-0.3,0.3-0.3,0.5c-0.4,0.3-0.7,0.5-0.9,0.9c-0.3,0.2-0.4,0.4-0.6,0.7c-0.1,0.3-0.3,0.5-0.6,0.7c-0.2,0.1-0.4,0.3-0.6,0.5
	c-0.3,0.4-0.8,0.7-1.2,1c-0.2,0.3-0.4,0.5-0.7,0.7c-0.1-0.1-0.1-0.4-0.3-0.5c0-0.1,0.1-0.1,0.1-0.3c-0.1,0-0.2,0.1-0.3,0.1
	s-0.1,0.1-0.1,0.2c-0.1,0.1-0.3,0.3-0.5,0.3c-0.2,0.1-0.3,0.4-0.6,0.4c-0.1,0-0.1,0,0,0c0,0.1,0,0.1-0.1,0.1c-0.3,0.1-0.6,0.3-1,0.5
	c-0.1,0.1,0,0.1-0.1,0.2c-0.1,0-0.1,0-0.2,0c-0.1,0.1-0.1,0.1-0.1,0.1c-0.1,0-0.1,0-0.3,0.1c-0.1,0.1-0.1,0.1-0.3,0.2
	c0.1,0.1,0.1-0.1,0.2,0c0.1,0.1,0,0.1-0.1,0.2c-0.1,0.1-0.2,0.1-0.3,0.1c-0.1,0.1-0.3,0.2-0.4,0.3c-0.3,0.3-0.7,0.5-1,0.5
	c0,0.1,0,0.1,0.1,0.1c0.3-0.1,0.7-0.3,1-0.5c0.1-0.1,0.2-0.1,0.3-0.1c0.1,0,0.3-0.1,0.3-0.2c0.1-0.1,0.1-0.2,0.3-0.2
	c0.3-0.1,0.5-0.4,0.7-0.5c0,0,0.1,0,0.1,0.1c0,0.1-0.2,0.2-0.3,0.3c-0.2,0.2-0.4,0.4-0.7,0.5c-0.1,0.1-0.2,0.1-0.3,0.2
	c-0.6,0.2-1.2,0.5-1.7,0.9c-0.1,0-0.3,0.1-0.4,0.1c-0.1-0.1-0.2,0-0.3,0.1c-0.1,0.2-0.3,0.3-0.5,0.3c-0.1,0-0.1,0-0.1,0.1
	c0.1,0.1,0.2,0,0.3,0.1c-0.3,0.2-0.5,0.4-0.6,0.7c-0.1,0.2-0.3,0.3-0.6,0.5c-0.2,0.1-0.4,0.2-0.6,0.3c0,0.1,0.1,0.1,0.1,0.1
	c-0.1,0.1-0.5,0.3-0.7,0.3c0-0.1,0.1-0.1,0.1-0.2c-0.3,0.1-0.5,0.3-0.7,0.5c-0.1-0.1-0.3,0-0.5,0c-0.1,0.1,0,0.1-0.1,0.2
	c-0.1,0.1-0.3-0.1-0.3,0.1c-0.4,0-0.7,0.2-1,0.4c-0.3,0.2-0.5,0.3-0.9,0.3c-0.1,0.1-0.3,0.1-0.3,0.1c-0.3,0.1-0.5,0.2-0.8,0.3
	c-0.1,0-0.1,0-0.3,0.1c-0.2,0.1-0.4,0.1-0.6,0.1c-0.4,0.4-0.9,0.7-1.5,0.7c-0.1,0-0.1,0.1-0.2,0.1c-0.3,0.2-0.6,0.2-0.9,0.3
	c-0.5,0.2-1,0.2-1.6,0.5c-0.5,0.3-1.1,0.3-1.7,0.3c0-0.1,0.1-0.1,0.1-0.1c0.3-0.1,0.6-0.1,0.8-0.2c0.1-0.1,0-0.2,0-0.3
	c0.1,0,0.1,0,0.1,0c0-0.1-0.1-0.1-0.1-0.1s0,0.1-0.1,0.1c-0.1,0.1-0.1,0.2-0.2,0.3c-0.1,0-0.3,0-0.4,0c0,0.1-0.1,0-0.1,0v-0.1v0.1
	c0-0.1-0.1-0.1-0.1-0.1c0.1-0.1,0.3,0,0.3-0.2c-0.1-0.1-0.2,0-0.3,0c-0.2,0.1-0.4,0.1-0.7,0.1c0.1-0.1,0.3-0.2,0.5-0.2
	c0.1,0,0.1-0.1,0.3-0.1c-0.1,0-0.2,0-0.3,0c-0.3,0.1-0.5,0.1-0.7,0.2c-0.2,0.1-0.5,0.2-0.7,0.1c-0.2,0.1-0.5,0.2-0.7,0.5
	c0,0.1,0.1,0,0.1,0.1c0.1,0.1,0.1,0.1,0,0.1c-0.3,0-0.5,0.1-0.8,0.1c-0.1,0-0.1,0,0,0c0.1,0.1,0.2,0.1,0.3,0.1
	c0.3-0.1,0.7-0.1,1-0.3c0.1,0,0.2-0.1,0.3,0.1c-0.1,0.1-0.3,0.1-0.4,0.2c0.1,0.1,0.2,0,0.3,0.1c-0.7,0.2-1.3,0.4-1.8,0.6
	c-0.1-0.1,0-0.1-0.1-0.2c-0.2,0.1-0.5,0.1-0.7,0.3c-0.1,0.1-0.3,0.1-0.5,0.2c0,0,0,0-0.1,0c0.1,0,0.1,0,0.1,0c0.1,0,0.1,0,0.2,0
	c-0.1,0.1-0.1,0.1-0.3,0.1c-0.1-0.1-0.2-0.1-0.3-0.1c-0.2,0-0.3,0-0.5,0.1c-0.1,0.1-0.2,0.1-0.3,0.1c-0.1,0-0.1-0.1-0.3-0.1
	c-0.1,0.1-0.3,0.1-0.4,0.2c-0.1,0-0.2,0-0.3-0.1c-0.1,0.1-0.2,0.1-0.3,0.1c0.1,0.1,0.2,0.1,0.3,0.2c-0.1,0-0.3-0.1-0.4,0
	c-0.1,0.1-0.3,0.1-0.5,0.2c-0.1-0.1-0.3-0.1-0.3-0.2c0.7-0.2,1.2-0.5,1.8-0.7c0.3,0.1,0.3,0.1,0.4-0.2c0.1,0,0.3-0.1,0.5-0.1
	c-0.2,0-0.3,0.1-0.5,0.1c-0.2-0.1-0.3,0.1-0.4,0.2c-0.3,0-0.7,0.1-1,0.1c0,0-0.1,0-0.1,0.1c-0.2,0.1-0.3,0.1-0.6,0.1
	c-0.2-0.1-0.5,0-0.7,0.1c0.1,0.1,0.3,0,0.3,0.2c-0.1,0.1-0.2-0.1-0.3,0.1c0,0.1-0.1,0.3-0.1,0.5c0,0.1-0.1,0.1-0.1,0.2
	c-0.6,0.2-1.3,0.2-1.8,0.5c-0.2,0.5-0.4,0.8-0.9,0.9c0-0.1,0.1-0.1,0.2-0.2c0-0.1-0.1-0.3,0.1-0.4c-0.1-0.1-0.1-0.1-0.2-0.1
	c-0.3,0.1-0.7,0.1-1,0.3c-0.1,0-0.1,0-0.3-0.1c0.1-0.3,0.5-0.3,0.7-0.5c-0.4-0.1-0.7,0.1-1,0.1c-0.3-0.1-0.7,0.1-0.9,0.1
	c-0.1,0.1-0.1-0.1-0.2-0.1c-0.3,0-0.5,0-0.7,0.1c-0.1,0.1-0.2-0.1-0.4,0c0,0,0,0.1-0.1,0.1c-0.3-0.1-0.5,0.1-0.8,0.1
	c-0.1,0.2-0.3,0.3-0.5,0.2c-0.2,0-0.4,0-0.6,0.1c-0.2,0.1-0.4,0.2-0.7,0.2c0.5-0.3,1-0.3,1.5-0.5c0-0.1-0.1-0.1-0.1-0.1
	c-0.3,0-0.6-0.1-0.9-0.1c-0.2,0.1-0.4,0.1-0.5,0.3c-0.2,0-0.4,0.1-0.7,0.1c-0.3,0.1-0.5,0.3-0.9,0.3c-0.1,0-0.2,0.1-0.3,0.2
	c-0.2-0.1-0.4,0.1-0.6,0c0.3-0.1,0.5-0.3,0.7-0.3C8.8,57,9,56.9,9.2,56.7c-0.2,0-0.3,0-0.5,0s-0.2,0.1-0.2,0.1
	C8.3,56.8,8.2,57,8,57.1c-0.2,0.1-0.4,0.2-0.6,0.3c-0.3,0.1-0.5,0.2-0.7,0.3c-0.1,0.1-0.3,0.1-0.4,0.3c-0.1,0-0.2,0.1-0.3,0.1
	c-0.1,0.1-0.1,0.1-0.2,0.2c0.1,0,0.3-0.1,0.4-0.1c-0.2,0.3-0.5,0.4-0.7,0.6c-0.1,0-0.2,0-0.3,0v-0.1c0.1-0.1,0.1-0.1,0.3-0.2
	c-0.2,0-0.3,0-0.5,0.1c-0.1,0.1-0.1,0.1-0.3,0.1c0,0,0,0,0-0.1c0.1-0.1,0.3-0.2,0.5-0.3C5.3,58,5.2,58,4.8,58.1
	c-0.1,0.1-0.3,0.1-0.4,0.3c-0.1,0.1-0.1,0-0.2,0l-0.1-0.1v-0.1c-0.1-0.1-0.2,0.1-0.3-0.1c0-0.1,0.2-0.2,0.2-0.3c0-0.1-0.1,0-0.1-0.1
	c0.3-0.2,0.5-0.4,0.7-0.7c0-0.1-0.1-0.2,0-0.3c0.2-0.3,0.5-0.3,0.7-0.7c-0.1-0.1-0.3,0.1-0.4,0.1c0.2-0.3,0.4-0.3,0.6-0.5
	c0.1-0.1,0-0.2,0.1-0.3c0.3-0.2,0.6-0.5,0.9-0.7c0.1-0.1,0.3-0.2,0.4-0.3c0.1-0.1,0.3-0.2,0.3-0.3c0.2-0.2,0.3-0.4,0.5-0.6
	c0.4-0.3,0.8-0.5,1.3-0.7c0.4-0.4,0.9-0.7,1.5-1c0.5-0.3,1-0.4,1.5-0.7c0.1-0.1,0.1-0.1,0.1-0.3c0.4-0.1,0.9-0.3,1.3-0.5
	c0.1-0.5,0.4-0.9,0.2-1.4c0.3-0.3,0.3-0.8,0.4-1.3c0.1-0.3,0.1-0.7,0.3-1c0.1-0.5,0.5-0.9,0.6-1.5c0.1-0.3,0.2-0.6,0.4-0.8
	c0.2-0.3,0.3-0.7,0.4-1c0-0.2,0.1-0.4,0.1-0.6c0.1-0.5,0.3-1,0.3-1.5c0.1,0,0.1-0.1,0.1-0.1c-0.1-0.4,0-0.9,0-1.3
	c-0.1-0.4,0-0.7,0.1-1c0.1-0.3,0.2-0.7,0.3-0.9c0-0.1,0-0.1,0-0.1c0.1-0.5,0.3-0.9,0.3-1.3c0.1-0.5,0.3-0.9,0.5-1.3
	c0.1-0.3,0.3-0.7,0.4-0.9c0.1-0.3,0.2-0.5,0.3-0.7c0.1-0.2,0.2-0.4,0.3-0.7c0.1-0.2,0.2-0.4,0.3-0.6c0.1-0.3,0.3-0.7,0.5-1
	c0.1-0.3,0.3-0.6,0.5-0.9c0.2-0.5,0.5-0.9,0.7-1.3c0.1-0.3,0.1-0.5,0.3-0.7c0.1-0.5,0.3-0.9,0.7-1.3c0.3-0.3,0.5-0.7,0.6-1
	c0.1-0.1,0.1-0.2,0.2-0.3c0.1-0.3,0.4-0.6,0.6-0.9c0.1-0.3,0.3-0.6,0.5-0.9c0.1-0.2,0.3-0.4,0.5-0.6c0.1-0.2,0.1-0.4,0.3-0.6
	c0.1-0.1,0.1-0.3,0.1-0.4c0.1-0.2,0.2-0.4,0.3-0.5c0.2-0.3,0.3-0.6,0.5-0.9c0.2-0.4,0.5-0.7,0.7-1c0.2-0.3,0.3-0.5,0.5-0.8
	c0.1-0.1,0.1-0.3,0.2-0.5c0.4,0,0.8-0.2,1.2,0.1c0.1,0.1,0.2,0.1,0.3,0.1c0.3,0.2,0.3,0.2,0.5,0.4c0.1,0.1,0.1,0.1,0.2,0.1
	c0.6-0.1,1.1,0.1,1.6,0.5c0.1,0.1,0.3,0.3,0.5,0.3c0.1,0,0.2,0.1,0.3,0.1c0.3,0.3,0.6,0.5,0.9,0.6c0,0,0.1,0,0.1,0.1
	c0.1,0.2,0.3,0.5,0.5,0.7c0,0.3-0.1,0.4-0.2,0.6c-0.1,0.3-0.2,0.6-0.3,0.9c-0.2,0.3-0.3,0.5-0.3,0.8c-0.1,0.3-0.1,0.5-0.3,0.7
	c-0.1,0.3-0.1,0.5-0.2,0.5c-0.3,0.4-0.4,0.9-0.3,1.3c0,0.3-0.1,0.6-0.3,0.9c-0.1,0.3-0.3,0.7-0.4,1c-0.1,0.2-0.2,0.4-0.3,0.6
	c-0.1,0.2-0.1,0.3-0.1,0.5c-0.1,0.4-0.3,0.8-0.4,1.3c0,0.1-0.1,0.2-0.2,0.3c-0.1,0.3-0.2,0.7-0.3,1c-0.1,0.2-0.1,0.4-0.2,0.6
	c-0.1,0.1-0.1,0.1-0.1,0.2c0,0.3-0.1,0.5-0.3,0.8c-0.1,0.4-0.2,0.8-0.5,1c-0.1,0.1,0,0.1,0,0.2c-0.2,0.2-0.2,0.5-0.4,0.7
	c0,0,0,0.1,0,0.1c0,0.1-0.1,0.1-0.2,0.2c0,0.1,0,0.3,0,0.5c-0.1,0.1-0.3,0-0.3,0.2c0,0.1,0.1,0.1,0.1,0.1v0.1
	c-0.1,0.1-0.1,0.1-0.2,0.2c-0.2,0.1-0.2,0.3-0.1,0.5c-0.1,0.1-0.1,0.2-0.3,0.3c-0.1,0.2-0.2,0.4-0.2,0.6c-0.1,0.1-0.2,0.3-0.3,0.5
	c-0.1,0.3-0.1,0.6-0.4,0.9c0.1,0.2-0.1,0.4-0.2,0.6c-0.1,0.2-0.1,0.4-0.3,0.5c-0.1,0.1-0.1,0.3-0.1,0.5c-0.3,0.1-0.3,0.5-0.3,0.8
	c0.1,0.1,0.2-0.1,0.2-0.1c0.1-0.1,0.1-0.1,0.1-0.2c0,0.1,0,0.3-0.1,0.4c0,0.1-0.1,0.1-0.1,0.2c0,0.3-0.2,0.7-0.3,1
	c-0.1,0.2-0.2,0.5-0.3,0.7c-0.1,0.1-0.1,0.2-0.2,0.1c0-0.1,0.1-0.3,0-0.5c-0.1,0.4-0.5,0.8-0.5,1.3c0.1-0.1,0.2-0.2,0.3-0.3
	c0-0.3,0.1-0.3,0.3-0.5c0.1,0.1,0,0.2,0,0.3c-0.1,0.3-0.2,0.6-0.3,0.9c-0.1,0.2-0.2,0.4-0.3,0.6c0,0.1,0,0.1-0.1,0.1
	c-0.1-0.1,0.1-0.3-0.1-0.4c-0.1,0.2-0.2,0.4-0.3,0.7c-0.1,0-0.1,0.1-0.1,0.1c-0.1,0.6-0.3,1.2-0.6,1.8c0.2,0,0.3-0.1,0.3-0.2
	c0.1-0.2,0.1-0.4,0.3-0.6c0-0.1,0-0.1,0.1-0.1c0,0,0,0,0.1,0c-0.1,0.3-0.1,0.6-0.3,0.8c0.1,0.1,0.1,0.1,0.1,0.1
	c0.4-0.1,0.7-0.3,1.1-0.3c0.3-0.1,0.7-0.3,1-0.3c0.3-0.1,0.6-0.3,0.9-0.3c0.2,0,0.4-0.1,0.6-0.2c0.4-0.1,0.8-0.2,1.3-0.3
	c0.4-0.2,0.9-0.2,1.4-0.3c0.3-0.1,0.7-0.2,0.9-0.3c0.3-0.1,0.5-0.2,0.7-0.3c0.7-0.1,1.3-0.4,1.9-0.5c0.3-0.1,0.5-0.2,0.8-0.3
	c0.2-0.1,0.4-0.2,0.6-0.3c0.1-0.1,0.1-0.1,0.3-0.1c0.4,0,0.7-0.2,1-0.3c0.4-0.1,0.7-0.3,1-0.4c0.5-0.2,1-0.4,1.5-0.6
	c0.3-0.1,0.6-0.3,0.9-0.5c0.3-0.2,0.7-0.4,1-0.5c0.3-0.3,0.6-0.6,1-0.8c0.1,0,0.1-0.1,0.1-0.1c0.5-0.3,0.9-0.7,1.2-1
	c0.3-0.3,0.5-0.5,0.7-0.7c0.2-0.2,0.4-0.5,0.6-0.7c0.1-0.1,0.1-0.3,0.3-0.5c0.1-0.3,0.4-0.5,0.7-0.7c0.2-0.2,0.3-0.5,0.5-0.7
	c0.1-0.2,0.2-0.3,0.3-0.5c0.3-0.5,0.7-1,1-1.5c0.1-0.1,0.1-0.2,0.1-0.3c0.1-0.2,0.1-0.3,0.2-0.5c0.3-0.3,0.4-0.7,0.4-1.2
	c0-0.1,0.1-0.3,0.1-0.3c0.1-0.4,0.2-0.9,0.2-1.3c-0.1-0.3-0.1-0.6,0-0.9c0-0.3-0.1-0.6-0.1-0.9c-0.1-0.5-0.1-1-0.1-1.5
	c0-0.4,0-0.8-0.1-1.2c-0.1-0.2-0.1-0.3-0.1-0.5c0-0.5-0.1-0.9-0.3-1.3c-0.2-0.3-0.3-0.7-0.4-1.1c0-0.1-0.1-0.1-0.1-0.2
	c0-0.1,0.1-0.2,0.1-0.3c-0.5-1.2-1.1-2.4-1.8-3.5c-0.2-0.1-0.3-0.3-0.5-0.5c0-0.1-0.1-0.1-0.2-0.2c-0.3-0.2-0.5-0.5-0.7-0.7
	c0,0-0.1-0.1-0.1-0.1c-0.1-0.1-0.1-0.3-0.3-0.3c-0.1,0-0.1-0.1-0.2-0.1c-0.3-0.3-0.5-0.5-0.9-0.7c-0.5-0.3-1-0.7-1.5-1
	c-0.4-0.3-0.9-0.5-1.3-0.7c-0.3-0.2-0.7-0.4-1-0.4c-0.1-0.1-0.1-0.1-0.1-0.1c-0.4-0.3-0.9-0.5-1.4-0.6c-0.3-0.1-0.6-0.2-0.9-0.3
	c-0.2,0.4-0.3,0.5-0.7,0.2c-0.5,0-1-0.1-1.5-0.2c-0.3-0.1-0.6-0.1-0.9-0.1c-0.1,0-0.3-0.1-0.4-0.1c-0.3-0.1-0.6-0.1-0.9-0.1
	s-0.6,0-0.9,0c-0.7,0-1.5-0.1-2.2-0.1c-0.5,0.1-0.9,0.1-1.4,0.1c-0.1,0-0.2,0-0.3-0.1c-0.1-0.1-0.1-0.2-0.1-0.3
	c-0.1-0.1-0.1-0.2-0.3-0.2c-0.3,0-0.6-0.1-0.9,0c-0.6,0-1.3,0.1-1.8,0.1c-0.2,0-0.5-0.1-0.7,0c-0.4,0-0.9,0-1.3,0.1
	c-0.3,0.1-0.6,0.1-0.9,0.1c-0.5,0.1-0.9,0.1-1.4,0.3c-0.3,0.1-0.5,0.1-0.8,0.2c-0.1,0-0.3,0.1-0.3,0.1c-0.2,0.1-0.3,0.1-0.5,0.1
	c-0.1,0-0.2,0.1-0.3,0.1c-0.3,0.1-0.5,0.3-0.9,0.2c-0.2,0-0.5,0.1-0.7,0.1c-0.2-0.1-0.4-0.1-0.5-0.1c-0.1,0-0.1-0.1-0.3-0.1
	c-0.1,0-0.1,0.1-0.3,0.2c-0.1,0-0.3-0.1-0.4-0.1c0-0.1,0-0.1,0-0.1c-0.1-0.1-0.1,0-0.2-0.1c-0.1-0.1,0-0.2-0.1-0.3
	c-0.1-0.1-0.2-0.1-0.3-0.1c0,0-0.1-0.2-0.1-0.4c-0.1-0.1-0.1-0.1-0.2-0.1c0-0.1,0-0.3,0-0.5c0.1-0.1,0.1-0.2,0-0.3
	c-0.2-0.3-0.3-0.7-0.2-1c0.1-0.2,0.1-0.5,0.1-0.7c0.1-0.1,0.1-0.3,0.1-0.5c0.3-0.3,0.3-0.5,0.5-0.9c0.1-0.3,0.2-0.5,0.4-0.7
	c0.1-0.1,0.3-0.3,0.4-0.4c0.1,0.1,0.2-0.1,0.3-0.1c0.1-0.1,0.1-0.3,0.2-0.4c0.1-0.3,0.2-0.5,0.5-0.6c0-0.2,0.2-0.4,0.2-0.6
	c0.3-0.2,0.6-0.5,0.9-0.7c0.1-0.1,0-0.2,0.1-0.3c0.3-0.1,0.6-0.5,0.9-0.6C17.6,5.3,18,5.1,18.4,5c0.1-0.1,0.3-0.1,0.4-0.2
	c0.3-0.1,0.6-0.1,0.9-0.2c0.3,0,0.5-0.1,0.7-0.1c0.1,0,0.2-0.1,0.3,0c0.1,0,0.2-0.1,0.3-0.1c0.2-0.1,0.4-0.1,0.6-0.2
	c0.4-0.1,0.9-0.1,1.2-0.3c0.4,0,0.7-0.2,1-0.2c0.3-0.1,0.6-0.1,0.9-0.2c0.1-0.1,0.3-0.1,0.5-0.1c0.1,0,0.3,0,0.4-0.1
	c0.1-0.1,0.3-0.1,0.5-0.1c0.2,0,0.4-0.1,0.7-0.1c0.1,0,0.2,0,0.3,0c0.3,0,0.5,0,0.7,0c0.2-0.1,0.3,0,0.5-0.1c0.1-0.1,0.2,0,0.3,0
	C29,3,29.4,3,29.8,3.1c0.1,0,0.3,0,0.5,0c0.3,0,0.7,0,1,0.1c0.3,0,0.6,0.1,0.9,0.1c0.2,0,0.4,0.1,0.5,0.1c0.1,0.1,0.3,0.1,0.5,0.1
	c0.3,0,0.5,0,0.8,0.1c0.2,0.1,0.5,0.1,0.7,0.1c0.6,0,1.1,0.1,1.7,0.2C36.7,4,37,4,37.2,4.1c0.1,0.1,0.1,0.1,0.1,0.1
	c0.7,0.1,1.3,0.5,2,0.7C39.5,5,39.8,5.1,40,5.3c0.1,0,0.1,0.1,0.2,0.2C40.8,5.7,41.4,6,42,6.3c0.5,0.3,0.9,0.5,1.4,0.7
	C43.4,7,43.6,7,43.7,7C44,7,44.4,7.2,44.6,7.4c0.3,0.1,0.5,0.3,0.7,0.5c0.2,0.4,0.5,0.5,0.9,0.8c0.1,0.1,0.3,0.1,0.3,0.3
	c0.1,0.1,0.2,0.2,0.3,0.3c0.3,0.2,0.5,0.5,0.8,0.7c0.3,0.3,0.5,0.5,0.7,0.7c0.1,0.1,0.2,0.2,0.3,0.4c0.1-0.1,0.1-0.1,0.1-0.1
	c0.1,0.1,0.2,0.3,0.3,0.5c0.1,0.3,0.3,0.7,0.6,0.9c0,0,0,0.1,0.1,0.1c-0.1-0.1-0.3-0.1-0.4-0.1c0,0.3,0.2,0.3,0.3,0.4
	c0,0.2,0.1,0.3,0.2,0.5c0,0.1,0,0.1,0,0.1c-0.1,0.1,0,0.1,0.1,0.2c0,0,0,0,0.1,0.1c0-0.1-0.1-0.1-0.1-0.1
	C50.2,13.1,50.2,13.1,50.3,13.1z M4.2,58.6c-0.1-0.1,0-0.2,0.1-0.3l0.1,0.1C4.3,58.4,4.4,58.5,4.2,58.6z M5,58.9C5,59,4.9,59,4.9,59
	C4.8,59,4.7,59,4.7,58.8c0.1-0.1,0.1-0.1,0.2-0.2c0,0.1,0,0.1,0,0.1C4.9,58.8,5,58.8,5,58.9z M5.3,58.8c-0.1-0.1,0-0.1,0.1-0.1
	L5.3,58.8C5.3,58.7,5.3,58.8,5.3,58.8z M6.4,58L6.4,58C6.5,58.1,6.4,58.1,6.4,58C6.3,58,6.3,58,6.4,58z M9.7,56.5
	c0.1-0.1,0.3-0.1,0.3-0.3c-0.1,0.1-0.2,0-0.3,0c-0.1,0.1-0.2,0.1-0.2,0.2C9.6,56.5,9.6,56.5,9.7,56.5z M14.3,50.1
	c0.1,0,0.2-0.1,0.2-0.1c0-0.1,0-0.3,0-0.5C14.3,49.7,14.3,49.9,14.3,50.1z M14.7,56.1c0.2,0.1,0.3,0,0.5-0.1
	C15,56,14.8,56.1,14.7,56.1z M22.1,55c0.2,0.1,0.3,0,0.4-0.1c0.2-0.1,0.4-0.1,0.5-0.3c0.1,0,0.1,0,0.3,0.1c-0.2,0-0.4,0.1-0.5,0.2
	c-0.3,0.1-0.6,0.2-0.9,0.2C21.9,55.1,22,55,22.1,55z M22.9,46.7c0.1-0.1,0.1-0.3,0.3-0.4c0.1,0.2,0,0.4-0.2,0.7c-0.1,0-0.1,0-0.1,0
	C22.9,46.9,22.9,46.9,22.9,46.7z M23.7,54.5c-0.1,0.1-0.1,0.1-0.1,0.1l-0.1,0.1c0-0.1,0.1-0.1,0.1-0.1
	C23.5,54.5,23.6,54.5,23.7,54.5z M25,53.6c-0.1-0.1-0.3-0.1-0.4-0.1c-0.1,0.1-0.2,0.1-0.3,0.2c-0.1,0.1-0.1,0-0.2,0.1
	c0.1-0.1,0.1-0.1,0.2-0.1C24.5,53.7,24.7,53.7,25,53.6z M25.4,53.2c0.1,0.1,0.1,0.1,0.1,0C25.5,53.1,25.5,53.1,25.4,53.2z
	 M25.8,53.5c0.1,0.1,0.1,0.1,0.2,0C25.9,53.5,25.8,53.5,25.8,53.5z M26.4,53.5C26.4,53.6,26.5,53.6,26.4,53.5L26.4,53.5z M27,36.6
	C27,36.5,27,36.5,27,36.6C27,36.5,27,36.5,27,36.6C26.9,36.6,27,36.6,27,36.6z M27.4,53.4c-0.2,0.1-0.2,0.1-0.5,0.1
	C27.1,53.4,27.2,53.4,27.4,53.4z M27.7,52.6C27.7,52.6,27.7,52.6,27.7,52.6C27.8,52.6,27.8,52.6,27.7,52.6z M28.1,53.2
	c0-0.1,0.1-0.1,0.1,0C28.1,53.2,28.1,53.3,28.1,53.2z M28.6,52.3c0.1,0,0.1,0,0.1-0.1C28.6,52.2,28.6,52.2,28.6,52.3z M29.3,52.2
	c0.4-0.1,0.7-0.3,1.1-0.5c0,0.1,0,0.1,0.1,0.1s0.1-0.1,0.3-0.2c0.1,0.1,0.3,0,0.4,0.1c-0.1,0.2-0.3,0.1-0.5,0.3
	c0.1,0.1-0.1,0.2-0.2,0.3c-0.1,0.1-0.1,0.1-0.1,0.1c-0.3,0-0.6,0.1-0.9,0.1c0.1,0.1,0.1,0.1,0.2,0.2c0.3-0.1,0.5-0.1,0.7-0.3
	c0.6-0.1,1.1-0.2,1.7-0.5c-0.1-0.1-0.3,0.1-0.3-0.1c0.1-0.1,0.3-0.1,0.5-0.1c0.1-0.1,0.1-0.1,0.1-0.1c0.1,0,0.1,0,0.1,0
	c0.4,0.1,0.8,0.1,1.1-0.2c0.2-0.2,0.5-0.3,0.9-0.3c-0.1-0.1-0.1,0-0.2-0.1c-0.1-0.1,0-0.2-0.1-0.2s0,0.1,0,0.1
	c-0.3,0.1-0.6,0.1-0.9,0.3c-0.1,0-0.2-0.1-0.3-0.1c-0.1,0.1-0.1,0.1-0.2,0.1c-0.1,0.1-0.3,0-0.5,0.1c-0.1,0-0.1,0.1-0.2,0.1
	c-0.3-0.1-0.6,0.2-0.9,0.3c-0.1-0.1,0-0.3-0.1-0.3c-0.3,0.1-0.6,0.2-0.9,0.3c-0.3-0.1-0.5,0.1-0.7,0.1c0,0.1,0,0.1,0,0.1
	c-0.4,0.1-0.4,0.1-0.7,0.3c0.1,0,0.3,0.1,0.5,0.1c0,0.1,0.1,0,0.1,0C29.4,52.3,29.3,52.3,29.3,52.2z M29.9,52.2
	c0.1,0.1,0.2,0,0.3-0.1C30,52,29.9,52.1,29.9,52.2z M30.2,52c0.1,0,0.1,0,0.2,0C30.4,51.9,30.3,51.9,30.2,52z M34.6,50.8
	C34.5,50.8,34.5,50.7,34.6,50.8L34.6,50.8z M34.9,50.6c0.1,0,0.1,0,0.1-0.1c0.1,0,0.1,0,0.1,0H35C35,50.5,35,50.5,34.9,50.6z
	 M35.4,50.7c-0.1,0.1-0.1,0.1-0.1,0.1c-0.1,0-0.1,0.1-0.1,0.1l0.1-0.1C35.3,50.8,35.4,50.8,35.4,50.7z M35.4,50.4
	c0.1,0.1,0.1,0.1,0.3,0.1C35.6,50.4,35.6,50.3,35.4,50.4z M36.2,50.4c-0.1-0.1-0.1-0.1-0.2,0C36.1,50.4,36.2,50.6,36.2,50.4z
	 M42.4,46.3c0.3,0,0.5-0.2,0.7-0.2C42.8,46,42.6,46.1,42.4,46.3c-0.1,0-0.1,0.1-0.1,0.1C42.3,46.3,42.4,46.3,42.4,46.3z M44,45.5
	C44,45.5,44,45.5,44,45.5c-0.1,0.1-0.2,0.1-0.2,0.2c-0.1,0-0.1,0-0.1,0.1c0.1,0,0.1-0.1,0.1-0.1C43.8,45.5,43.9,45.5,44,45.5
	C44,45.5,44,45.5,44,45.5z M44,45.3c0.1,0.1,0.1,0,0.1,0C44.1,45.3,44.1,45.3,44,45.3z M45.5,45C45.5,44.9,45.4,44.9,45.5,45
	c0-0.2,0.1-0.4,0.3-0.5C45.7,44.8,45.7,44.9,45.5,45z"/>
</svg>
