<?xml version="1.0" encoding="utf-8"?>
<!-- Generator: Adobe Illustrator 26.0.0, SVG Export Plug-In . SVG Version: 6.00 Build 0)  -->
<svg version="1.1" id="Layer_1" xmlns="http://www.w3.org/2000/svg" xmlns:xlink="http://www.w3.org/1999/xlink" x="0px" y="0px"
	 viewBox="0 0 469.7 151.3" style="enable-background:new 0 0 469.7 151.3;" xml:space="preserve">
<style type="text/css">
	.st0{fill:#331941;}
</style>
<g>
	<g>
		<path class="st0" d="M20,57.6V16.9h9.1v40.8H20z M27,24.7v-7.9h21.4v7.9H27z M27,41.7v-7.9h20.4v7.9H27z"/>
		<path class="st0" d="M53.3,57.6V29.6h8.9v28.1H53.3z M62.2,42.3l-3.7-2.9c0.7-3.3,2-5.9,3.7-7.7c1.8-1.8,4.1-2.7,7.2-2.7
			c1.3,0,2.5,0.2,3.6,0.6c1,0.4,1.9,1,2.7,1.8l-5.3,6.7c-0.3-0.4-0.8-0.7-1.4-0.9c-0.6-0.2-1.2-0.3-2-0.3c-1.5,0-2.7,0.5-3.6,1.4
			C62.6,39.1,62.2,40.5,62.2,42.3z"/>
		<path class="st0" d="M92.5,58.3c-2.9,0-5.5-0.7-7.9-2c-2.3-1.3-4.1-3.1-5.5-5.3c-1.3-2.2-2-4.7-2-7.5c0-2.7,0.7-5.2,2-7.4
			c1.3-2.2,3.1-3.9,5.5-5.2c2.3-1.3,4.9-1.9,7.9-1.9c2.9,0,5.5,0.6,7.8,1.9c2.3,1.3,4.2,3,5.5,5.2c1.3,2.2,2,4.7,2,7.4
			c0,2.8-0.7,5.3-2,7.5c-1.3,2.2-3.2,4-5.5,5.3C98,57.6,95.4,58.3,92.5,58.3z M92.5,50.2c1.2,0,2.3-0.3,3.3-0.8
			c1-0.5,1.7-1.3,2.2-2.3c0.5-1,0.8-2.2,0.8-3.5c0-1.3-0.3-2.4-0.8-3.4c-0.5-1-1.3-1.8-2.2-2.3c-0.9-0.6-2-0.8-3.3-0.8
			c-1.2,0-2.3,0.3-3.3,0.8c-1,0.6-1.7,1.3-2.3,2.3c-0.5,1-0.8,2.1-0.8,3.3c0,1.3,0.3,2.5,0.8,3.5c0.5,1,1.3,1.8,2.3,2.3
			C90.1,49.9,91.2,50.2,92.5,50.2z"/>
		<path class="st0" d="M112.2,57.6V29.6h8.9v28.1H112.2z M130.8,57.6v-16c0-1.4-0.5-2.6-1.4-3.5c-0.9-0.9-2.1-1.4-3.5-1.4
			c-0.9,0-1.8,0.2-2.5,0.6c-0.7,0.4-1.3,1-1.7,1.7c-0.4,0.7-0.6,1.6-0.6,2.5l-3.4-1.7c0-2.2,0.5-4.1,1.5-5.8c1-1.7,2.3-2.9,4-3.8
			c1.7-0.9,3.6-1.4,5.8-1.4c2,0,3.9,0.5,5.5,1.4c1.6,1,2.9,2.3,3.8,3.9c0.9,1.6,1.4,3.4,1.4,5.3v18H130.8z"/>
		<path class="st0" d="M142.9,37.1v-7.6h21.5v7.6H142.9z M149.2,57.6V18h8.9v39.7H149.2z"/>
		<path class="st0" d="M168.2,46.8V39h20.6v7.7H168.2z"/>
		<path class="st0" d="M195.7,57.6V16.9h9.1v40.8H195.7z M202.7,24.7v-7.9h22.1v7.9H202.7z M202.7,40.6V33H223v7.7H202.7z
			 M202.7,57.6v-7.9h22.4v7.9H202.7z"/>
		<path class="st0" d="M230.4,57.6V29.6h8.9v28.1H230.4z M249,57.6v-16c0-1.4-0.5-2.6-1.4-3.5c-0.9-0.9-2.1-1.4-3.5-1.4
			c-0.9,0-1.8,0.2-2.5,0.6c-0.7,0.4-1.3,1-1.7,1.7c-0.4,0.7-0.6,1.6-0.6,2.5l-3.4-1.7c0-2.2,0.5-4.1,1.5-5.8c1-1.7,2.3-2.9,4-3.8
			c1.7-0.9,3.6-1.4,5.8-1.4c2,0,3.9,0.5,5.5,1.4c1.6,1,2.9,2.3,3.8,3.9c0.9,1.6,1.4,3.4,1.4,5.3v18H249z"/>
		<path class="st0" d="M275.4,58.2c-2.7,0-5.1-0.6-7.1-1.9c-2.1-1.3-3.7-3-4.8-5.2c-1.2-2.2-1.7-4.7-1.7-7.5c0-2.8,0.6-5.3,1.7-7.5
			c1.2-2.2,2.8-3.9,4.8-5.2c2.1-1.3,4.4-1.9,7.1-1.9c1.9,0,3.6,0.4,5.2,1.1c1.6,0.7,2.9,1.7,3.9,3c1,1.3,1.6,2.8,1.7,4.5v11.8
			c-0.2,1.7-0.7,3.1-1.7,4.5c-1,1.3-2.3,2.4-3.9,3.2C279,57.8,277.3,58.2,275.4,58.2z M277,50.2c1.3,0,2.4-0.3,3.3-0.8
			c0.9-0.6,1.6-1.3,2.2-2.3c0.5-1,0.8-2.2,0.8-3.5c0-1.3-0.3-2.4-0.8-3.4s-1.2-1.8-2.2-2.3c-0.9-0.6-2-0.8-3.2-0.8
			c-1.2,0-2.3,0.3-3.2,0.9c-0.9,0.6-1.7,1.4-2.2,2.3c-0.6,1-0.8,2.1-0.8,3.4c0,1.3,0.3,2.4,0.8,3.4c0.5,1,1.3,1.8,2.2,2.3
			C274.7,49.9,275.8,50.2,277,50.2z M291.6,57.6h-8.7v-7.6l1.3-6.9l-1.5-6.8V15.7h8.9V57.6z"/>
		<path class="st0" d="M309.5,57.6V16.9h9.1v40.8H309.5z M316.5,40.9v-6.8h8.6c1.8,0,3.2-0.5,4.2-1.4c1-0.9,1.5-2.1,1.5-3.7
			c0-1.5-0.5-2.7-1.5-3.6c-1-1-2.4-1.4-4.1-1.4h-8.7v-7.1h9.7c2.7,0,5.1,0.5,7.2,1.5c2,1,3.6,2.4,4.8,4.2c1.1,1.8,1.7,3.9,1.7,6.2
			c0,2.5-0.6,4.6-1.7,6.4c-1.2,1.8-2.8,3.2-4.8,4.2c-2.1,1-4.5,1.5-7.3,1.5H316.5z M331.7,57.6L319,40.1l8.4-2.3l15.1,19.9H331.7z"
			/>
		<path class="st0" d="M360.2,58.3c-3,0-5.7-0.6-8.1-1.9c-2.3-1.3-4.2-3-5.5-5.2c-1.3-2.2-2-4.8-2-7.6c0-2.8,0.7-5.3,2-7.5
			c1.3-2.2,3.1-4,5.4-5.2c2.3-1.3,4.8-1.9,7.7-1.9c2.8,0,5.3,0.6,7.4,1.8c2.1,1.2,3.8,2.8,5,5c1.2,2.1,1.8,4.5,1.8,7.3
			c0,0.5,0,1.1-0.1,1.6c-0.1,0.6-0.2,1.2-0.4,1.9l-24.1,0.1v-6.1l20.3-0.1l-3.8,2.6c0-1.6-0.3-2.9-0.8-4c-0.5-1.1-1.1-1.9-2-2.5
			c-0.9-0.6-2-0.9-3.3-0.9c-1.4,0-2.6,0.3-3.6,1c-1,0.7-1.8,1.6-2.4,2.7c-0.6,1.2-0.8,2.5-0.8,4.2c0,1.6,0.3,3,0.9,4.2
			c0.6,1.2,1.4,2.1,2.5,2.7c1.1,0.6,2.4,1,3.9,1c1.3,0,2.6-0.2,3.7-0.7c1.1-0.5,2.1-1.2,2.9-2.2l4.9,4.8c-1.4,1.7-3.1,2.9-5,3.7
			S362.6,58.3,360.2,58.3z"/>
		<path class="st0" d="M389.7,58.2c-2.5,0-4.8-0.6-6.9-1.9c-2-1.3-3.6-3-4.8-5.2c-1.2-2.2-1.8-4.7-1.8-7.5c0-2.8,0.6-5.3,1.8-7.5
			c1.2-2.2,2.8-3.9,4.8-5.2c2-1.3,4.3-1.9,6.9-1.9c1.9,0,3.6,0.4,5.1,1.1c1.5,0.7,2.8,1.7,3.7,3c1,1.3,1.5,2.8,1.6,4.4v12.1
			c-0.1,1.7-0.6,3.1-1.6,4.4c-0.9,1.3-2.2,2.3-3.7,3C393.3,57.8,391.6,58.2,389.7,58.2z M391.5,50.2c1.9,0,3.4-0.6,4.5-1.8
			c1.1-1.2,1.7-2.8,1.7-4.8c0-1.3-0.3-2.4-0.8-3.4s-1.2-1.8-2.2-2.3c-1-0.6-2.1-0.8-3.3-0.8c-1.2,0-2.3,0.3-3.2,0.8
			c-0.9,0.6-1.7,1.3-2.3,2.3c-0.6,1-0.8,2.1-0.8,3.4c0,1.3,0.3,2.4,0.8,3.4c0.6,1,1.3,1.8,2.3,2.3C389.3,49.9,390.3,50.2,391.5,50.2
			z M397.4,57.6v-7.6l1.3-6.9l-1.3-6.8v-6.9h8.7v28.1H397.4z"/>
		<path class="st0" d="M425.9,58.3c-2.9,0-5.6-0.6-7.9-1.9c-2.3-1.3-4.2-3-5.5-5.3c-1.3-2.2-2-4.7-2-7.5c0-2.8,0.7-5.3,2-7.5
			c1.3-2.2,3.2-4,5.5-5.2c2.3-1.3,5-1.9,7.9-1.9c2.2,0,4.3,0.4,6.1,1.1s3.5,1.9,4.9,3.3l-5.7,5.8c-0.7-0.7-1.4-1.3-2.3-1.6
			c-0.9-0.3-1.9-0.5-3-0.5c-1.2,0-2.3,0.3-3.3,0.8c-1,0.6-1.8,1.3-2.3,2.3c-0.6,1-0.8,2.1-0.8,3.4c0,1.3,0.3,2.5,0.8,3.5
			c0.6,1,1.3,1.8,2.3,2.3c1,0.6,2.1,0.8,3.3,0.8c1.2,0,2.2-0.2,3.1-0.6c0.9-0.4,1.7-0.9,2.3-1.7l5.7,5.7c-1.5,1.5-3.2,2.7-5,3.5
			S428.2,58.3,425.9,58.3z"/>
		<path class="st0" d="M438.6,37.1v-7.6h21.5v7.6H438.6z M444.9,57.6V18h8.9v39.7H444.9z"/>
		<path class="st0" d="M20,126.9V86.1h9.1v40.8H20z M26.3,126.9v-8h10c2.5,0,4.6-0.5,6.4-1.5c1.8-1,3.2-2.4,4.2-4.3
			c1-1.9,1.5-4.1,1.5-6.7c0-2.5-0.5-4.7-1.5-6.6c-1-1.9-2.4-3.3-4.3-4.3c-1.8-1-4-1.5-6.4-1.5H26v-8h10.4c3.1,0,5.9,0.5,8.5,1.5
			c2.6,1,4.9,2.4,6.8,4.2c1.9,1.8,3.5,4,4.5,6.4c1.1,2.5,1.6,5.2,1.6,8.3c0,3-0.5,5.7-1.6,8.2c-1.1,2.5-2.6,4.6-4.5,6.5
			c-1.9,1.8-4.2,3.2-6.8,4.2c-2.6,1-5.4,1.5-8.5,1.5H26.3z"/>
		<path class="st0" d="M76.6,127.5c-3,0-5.7-0.6-8.1-1.9c-2.3-1.2-4.2-3-5.5-5.2c-1.3-2.2-2-4.8-2-7.6c0-2.8,0.7-5.3,2-7.5
			c1.3-2.2,3.1-4,5.4-5.2c2.3-1.3,4.8-1.9,7.7-1.9c2.8,0,5.3,0.6,7.4,1.8c2.1,1.2,3.8,2.8,5,5c1.2,2.1,1.8,4.5,1.8,7.3
			c0,0.5,0,1.1-0.1,1.6c-0.1,0.6-0.2,1.2-0.4,1.9l-24.1,0.1v-6.1l20.3-0.1l-3.8,2.6c0-1.6-0.3-2.9-0.8-4c-0.5-1.1-1.1-1.9-2-2.5
			c-0.9-0.6-2-0.9-3.3-0.9c-1.4,0-2.6,0.3-3.6,1c-1,0.7-1.8,1.6-2.4,2.7c-0.6,1.2-0.8,2.5-0.8,4.2s0.3,3,0.9,4.2
			c0.6,1.2,1.4,2.1,2.5,2.7c1.1,0.6,2.4,1,3.9,1c1.3,0,2.6-0.2,3.7-0.7c1.1-0.5,2.1-1.2,2.9-2.2l4.9,4.8c-1.4,1.7-3.1,2.9-5,3.7
			C81.2,127.1,79,127.5,76.6,127.5z"/>
		<path class="st0" d="M103.2,126.9L91.3,98.8h9.6l8.1,23.3h-4.2l8.1-23.3h9.4l-12,28.1H103.2z"/>
		<path class="st0" d="M139.2,127.5c-3,0-5.7-0.6-8.1-1.9c-2.3-1.2-4.2-3-5.5-5.2c-1.3-2.2-2-4.8-2-7.6c0-2.8,0.7-5.3,2-7.5
			c1.3-2.2,3.1-4,5.4-5.2c2.3-1.3,4.8-1.9,7.7-1.9c2.8,0,5.3,0.6,7.4,1.8c2.1,1.2,3.8,2.8,5,5c1.2,2.1,1.8,4.5,1.8,7.3
			c0,0.5,0,1.1-0.1,1.6c-0.1,0.6-0.2,1.2-0.4,1.9l-24.1,0.1v-6.1l20.3-0.1l-3.8,2.6c0-1.6-0.3-2.9-0.8-4c-0.5-1.1-1.1-1.9-2-2.5
			c-0.9-0.6-2-0.9-3.3-0.9c-1.4,0-2.6,0.3-3.6,1c-1,0.7-1.8,1.6-2.4,2.7c-0.6,1.2-0.8,2.5-0.8,4.2s0.3,3,0.9,4.2
			c0.6,1.2,1.4,2.1,2.5,2.7c1.1,0.6,2.4,1,3.9,1c1.3,0,2.6-0.2,3.7-0.7c1.1-0.5,2.1-1.2,2.9-2.2l4.9,4.8c-1.4,1.7-3.1,2.9-5,3.7
			C143.8,127.1,141.6,127.5,139.2,127.5z"/>
		<path class="st0" d="M157,126.9V85h8.9v41.9H157z"/>
		<path class="st0" d="M185.7,127.5c-2.9,0-5.5-0.7-7.9-2c-2.3-1.3-4.1-3.1-5.5-5.3c-1.3-2.2-2-4.7-2-7.5c0-2.7,0.7-5.2,2-7.4
			c1.3-2.2,3.1-3.9,5.5-5.2c2.3-1.3,4.9-1.9,7.9-1.9c2.9,0,5.5,0.6,7.8,1.9c2.3,1.3,4.2,3,5.5,5.2c1.3,2.2,2,4.7,2,7.4
			c0,2.8-0.7,5.3-2,7.5c-1.3,2.2-3.2,4-5.5,5.3C191.3,126.9,188.6,127.5,185.7,127.5z M185.7,119.5c1.2,0,2.3-0.3,3.3-0.8
			c1-0.5,1.7-1.3,2.2-2.3c0.5-1,0.8-2.2,0.8-3.5c0-1.3-0.3-2.4-0.8-3.4c-0.5-1-1.3-1.8-2.2-2.3c-0.9-0.6-2-0.8-3.3-0.8
			c-1.2,0-2.3,0.3-3.3,0.8c-1,0.6-1.7,1.3-2.3,2.3c-0.5,1-0.8,2.1-0.8,3.3c0,1.3,0.3,2.5,0.8,3.5c0.5,1,1.3,1.8,2.3,2.3
			C183.4,119.2,184.5,119.5,185.7,119.5z"/>
		<path class="st0" d="M205.4,138.7V98.8h8.9v7.2l-1.4,6.9l1.3,6.8v19.1H205.4z M221.7,127.5c-1.9,0-3.7-0.4-5.3-1.1
			c-1.6-0.7-2.9-1.7-3.8-3c-1-1.3-1.5-2.8-1.7-4.4v-11.8c0.2-1.7,0.7-3.2,1.7-4.5c1-1.3,2.3-2.4,3.9-3.1c1.6-0.8,3.3-1.2,5.2-1.2
			c2.6,0,5,0.6,7,1.9c2.1,1.3,3.7,3,4.9,5.2c1.2,2.2,1.8,4.7,1.8,7.5c0,2.8-0.6,5.3-1.8,7.5c-1.2,2.2-2.8,3.9-4.9,5.2
			C226.6,126.8,224.3,127.5,221.7,127.5z M220,119.5c1.2,0,2.3-0.3,3.3-0.8c0.9-0.6,1.7-1.3,2.3-2.3c0.6-1,0.8-2.1,0.8-3.4
			c0-1.3-0.3-2.4-0.8-3.4c-0.6-1-1.3-1.8-2.2-2.3c-0.9-0.6-2-0.8-3.2-0.8c-1.2,0-2.3,0.3-3.3,0.8c-0.9,0.6-1.7,1.3-2.2,2.3
			c-0.5,1-0.8,2.1-0.8,3.4c0,1.3,0.3,2.4,0.8,3.4c0.5,1,1.3,1.8,2.2,2.3C217.7,119.2,218.8,119.5,220,119.5z"/>
		<path class="st0" d="M253.6,127.5c-3,0-5.7-0.6-8.1-1.9c-2.3-1.2-4.2-3-5.5-5.2c-1.3-2.2-2-4.8-2-7.6c0-2.8,0.7-5.3,2-7.5
			c1.3-2.2,3.1-4,5.4-5.2c2.3-1.3,4.8-1.9,7.7-1.9c2.8,0,5.3,0.6,7.4,1.8c2.1,1.2,3.8,2.8,5,5c1.2,2.1,1.8,4.5,1.8,7.3
			c0,0.5,0,1.1-0.1,1.6c-0.1,0.6-0.2,1.2-0.4,1.9l-24.1,0.1v-6.1l20.3-0.1l-3.8,2.6c0-1.6-0.3-2.9-0.8-4c-0.5-1.1-1.1-1.9-2-2.5
			c-0.9-0.6-2-0.9-3.3-0.9c-1.4,0-2.6,0.3-3.6,1c-1,0.7-1.8,1.6-2.4,2.7c-0.6,1.2-0.8,2.5-0.8,4.2s0.3,3,0.9,4.2
			c0.6,1.2,1.4,2.1,2.5,2.7c1.1,0.6,2.4,1,3.9,1c1.3,0,2.6-0.2,3.7-0.7c1.1-0.5,2.1-1.2,2.9-2.2l4.9,4.8c-1.4,1.7-3.1,2.9-5,3.7
			C258.2,127.1,256,127.5,253.6,127.5z"/>
		<path class="st0" d="M271.4,126.9V98.8h8.9v28.1H271.4z M280.3,111.5l-3.7-2.9c0.7-3.3,2-5.9,3.7-7.7c1.8-1.8,4.1-2.7,7.2-2.7
			c1.3,0,2.5,0.2,3.6,0.6c1,0.4,1.9,1,2.7,1.8l-5.3,6.7c-0.3-0.4-0.8-0.7-1.4-0.9c-0.6-0.2-1.2-0.3-2-0.3c-1.5,0-2.7,0.5-3.6,1.4
			C280.7,108.4,280.3,109.7,280.3,111.5z"/>
	</g>
</g>
</svg>
