<?xml version="1.0" encoding="utf-8"?>
<!-- Generator: Adobe Illustrator 28.2.0, SVG Export Plug-In . SVG Version: 6.00 Build 0)  -->
<svg version="1.1" id="Layer_1" xmlns="http://www.w3.org/2000/svg" xmlns:xlink="http://www.w3.org/1999/xlink" x="0px" y="0px"
	 viewBox="0 0 49 49" style="enable-background:new 0 0 49 49;" xml:space="preserve">
<style type="text/css">
	.st0{fill:#30AF5B;}
</style>
<polygon class="st0" points="3.9,42.1 3.9,8.8 10.9,8.8 10.9,22.5 25.2,22.5 25.2,8.8 32.2,8.8 32.2,42.1 25.2,42.1 25.2,28.3 
	10.9,28.3 10.9,42.1 "/>
<rect x="37.9" y="17.1" class="st0" width="6.9" height="25"/>
<path class="st0" d="M41.4,13.9c-1,0-1.9-0.3-2.7-1c-0.7-0.7-1.1-1.5-1.1-2.5c0-1,0.4-1.8,1.1-2.5c0.7-0.7,1.6-1,2.7-1
	c1,0,1.9,0.3,2.6,1c0.7,0.7,1.1,1.5,1.1,2.5c0,1-0.4,1.8-1.1,2.5C43.3,13.6,42.4,13.9,41.4,13.9z"/>
</svg>
