<?xml version="1.0" encoding="utf-8"?>
<!-- Generator: Adobe Illustrator 26.0.0, SVG Export Plug-In . SVG Version: 6.00 Build 0)  -->
<svg version="1.1" id="Layer_1" xmlns="http://www.w3.org/2000/svg" xmlns:xlink="http://www.w3.org/1999/xlink" x="0px" y="0px"
	 viewBox="0 0 50 86" style="enable-background:new 0 0 50 86;" xml:space="preserve">
<style type="text/css">
	.st0{fill:#331941;}
</style>
<g>
	<path class="st0" d="M3.4,86c0-0.3,0-0.5,0-0.8c0-26.4,0-52.8,0-79.2c0-0.3-0.2-0.9,0.3-0.9c0.5,0,0.3,0.6,0.3,0.9
		c0,26.4,0,52.9,0,79.3c0,0.2,0,0.5,0,0.7C3.8,86,3.6,86,3.4,86z"/>
	<path class="st0" d="M10.4,86c0-0.2,0-0.4,0-0.6c0-21.9,0-43.9,0-65.8c0-0.2,0-0.4,0-0.6c0-0.1,0.2-0.2,0.2-0.2
		c0.1,0,0.2,0.1,0.2,0.2c0,0.1,0,0.3,0,0.4c0,22,0,44.1,0,66.1c0,0.2,0,0.3,0,0.5C10.7,86,10.5,86,10.4,86z"/>
	<path class="st0" d="M17.3,86c0-4.9,0-9.8,0-14.7c0-12.7,0-25.4,0-38c0-0.3,0-0.5,0-0.8c0.1,0,0.1-0.1,0.2-0.1
		c0.1,0.2,0.3,0.3,0.3,0.5c0.1,0.2,0,0.4,0,0.6c0,17.3,0,34.5,0,51.8c0,0.3,0,0.6,0,0.9C17.7,86,17.5,86,17.3,86z"/>
	<path class="st0" d="M24.2,86c0-0.3,0-0.5,0-0.8c0-12.8,0-25.6,0-38.3c0-0.3,0-0.5,0-0.8c0.4-0.2,0.6-0.1,0.6,0.4
		c0,0.2,0,0.3,0,0.5c0,12.8,0,25.5,0,38.3c0,0.3,0,0.5,0,0.8C24.6,86,24.4,86,24.2,86z"/>
	<path class="st0" d="M31.1,86c0-0.3,0-0.5,0-0.8c0-8.3,0-16.6,0-24.9c0-0.3-0.2-0.8,0.6-0.7c0,8.8,0,17.6,0,26.4
		C31.5,86,31.3,86,31.1,86z"/>
</g>
</svg>
