<?xml version="1.0" encoding="utf-8"?>
<!-- Generator: Adobe Illustrator 28.2.0, SVG Export Plug-In . SVG Version: 6.00 Build 0)  -->
<svg version="1.1" id="Layer_3" xmlns="http://www.w3.org/2000/svg" xmlns:xlink="http://www.w3.org/1999/xlink" x="0px" y="0px"
	 viewBox="0 0 2450 1633.3" style="enable-background:new 0 0 2450 1633.3;" xml:space="preserve">
<style type="text/css">
	.st0{fill:#F1F1F4;}
	.st1{fill:#DBDFFF;}
	.st2{fill-rule:evenodd;clip-rule:evenodd;fill:#DBDFFF;}
	.st3{fill:url(#SVGID_1_);}
	.st4{fill:url(#SVGID_00000048472588997926215130000005556707073759342769_);}
	.st5{fill:#E5E2FF;}
	.st6{fill:url(#SVGID_00000023961196424371333950000013517073622055955600_);}
	.st7{opacity:0.62;fill:url(#SVGID_00000014612258671362421770000001725511926315003309_);}
	.st8{opacity:0.62;fill:url(#SVGID_00000043424883069365945740000009218431033442165148_);}
	.st9{opacity:0.5;fill:url(#SVGID_00000005949060849622998340000018193872904532023980_);}
	.st10{fill:#FFFFFF;}
	.st11{fill:url(#SVGID_00000135675268200553240110000005327895846077386670_);}
	.st12{opacity:0.5;fill:url(#SVGID_00000039097590080767994070000002032528565502776715_);}
	.st13{opacity:0.5;fill:url(#SVGID_00000029734527964548201080000000442334466284541105_);}
	.st14{fill:#6130A1;}
	.st15{opacity:0.76;fill:url(#SVGID_00000153702106936652969570000007701789576228155831_);}
	.st16{opacity:0.76;fill:url(#SVGID_00000012473734794039956970000009079735560935257226_);}
	.st17{opacity:0.76;fill:url(#SVGID_00000011726943251581870430000002910579439370092193_);}
	.st18{fill:#FE9083;}
	.st19{fill:#CB4D7A;}
	.st20{fill:#EE8183;}
	.st21{fill:url(#SVGID_00000144333742139508680360000001746638700111455158_);}
	.st22{opacity:0.6;fill:url(#SVGID_00000008854323468764216950000006336784982080692100_);}
	.st23{fill:url(#SVGID_00000039822014043857662740000002213742270092749465_);}
	.st24{fill:#E28183;}
	.st25{opacity:0.91;fill:url(#SVGID_00000173858464010660413920000013720235517636978872_);}
	.st26{fill:url(#SVGID_00000070806163641707278530000017002807500912449696_);}
	.st27{opacity:0.6;fill:url(#SVGID_00000144307089639600100560000009072165369489878705_);}
	.st28{fill:url(#SVGID_00000171677322175111925770000000488283000024848275_);}
	.st29{fill:url(#SVGID_00000145765263519763195980000007739134413364391584_);}
	.st30{opacity:0.91;fill:url(#SVGID_00000001647994333457678740000002918207459973082522_);}
	.st31{fill:#FFBCAF;}
	.st32{fill:url(#SVGID_00000070098996671116856540000018275770798160511393_);}
	.st33{opacity:0.5;fill:url(#SVGID_00000016761941801854778670000011322857138550816156_);}
	.st34{fill:url(#SVGID_00000042718428006013959700000018053396356395058321_);}
	.st35{opacity:0.5;fill:url(#SVGID_00000000936468438903327090000012767717020032776087_);}
	.st36{fill:url(#SVGID_00000056394792672223088010000007335369892535332757_);}
	.st37{fill:url(#SVGID_00000062879863090931140770000017438610236874433681_);}
	.st38{opacity:0.5;fill:url(#SVGID_00000152977849649325402120000014214609302311257234_);}
	.st39{opacity:0.5;fill:url(#SVGID_00000058564753972586557730000006474416868317176197_);}
	.st40{opacity:0.5;fill:url(#SVGID_00000131335944568388599850000003937355111944872883_);}
	.st41{opacity:0.5;fill:url(#SVGID_00000058561604929410073040000000794588786484564407_);}
	.st42{opacity:0.5;fill:url(#SVGID_00000031914485453605641490000017907773332693666217_);}
	.st43{opacity:0.5;fill:url(#SVGID_00000178901338580696779780000000773191943159040941_);}
	.st44{opacity:0.5;fill:url(#SVGID_00000024697622006270078950000002117770676409805480_);}
	.st45{opacity:0.5;fill:url(#SVGID_00000043455910362722107300000009539152832964142265_);}
	.st46{opacity:0.5;fill:url(#SVGID_00000021098973094217818500000016701533852949955471_);}
	.st47{opacity:0.76;fill:url(#SVGID_00000000920176211183223760000016088306068872769927_);}
	.st48{opacity:0.5;fill:url(#SVGID_00000161627937117201276030000004103352012753353381_);}
	.st49{opacity:0.3;fill:url(#SVGID_00000048487409721193879210000002008629377667822015_);}
	.st50{opacity:0.5;fill:url(#SVGID_00000138558093574605430520000008007682543315721088_);}
	.st51{opacity:0.5;fill:url(#SVGID_00000034782575202999439200000008858394558040899499_);}
	.st52{opacity:0.5;fill:url(#SVGID_00000022540381397511419890000003549279808820385202_);}
	.st53{opacity:0.5;fill:url(#SVGID_00000095334539251404777710000016095657020481687425_);}
	.st54{fill:url(#SVGID_00000148654965339136332120000014319195086151609230_);}
	.st55{opacity:0.5;fill:url(#SVGID_00000147188779932906481410000000824175498007438474_);}
	.st56{opacity:0.3;fill:url(#SVGID_00000072275033225259112700000015031407431778837399_);}
	.st57{opacity:0.5;fill:url(#SVGID_00000092440509271239213050000006126118487285087146_);}
	.st58{opacity:0.5;fill:url(#SVGID_00000044900269175745568120000001953882169799267465_);}
	.st59{opacity:0.5;fill:url(#SVGID_00000039121721133552802300000017260752842162876340_);}
	.st60{fill:#D1FFFC;}
	.st61{opacity:0.5;fill:#7A4AC0;}
	.st62{fill:url(#SVGID_00000147909960215685820950000009852266580550996624_);}
	.st63{fill:url(#SVGID_00000127022986060056388900000015363197310296533170_);}
	.st64{fill:url(#SVGID_00000124870814084837382430000018298038982509896091_);}
	.st65{opacity:0.6;fill:url(#SVGID_00000054227909522733038870000005239561260441920640_);}
	.st66{fill:url(#SVGID_00000174585016706057681510000002152993613711268001_);}
	.st67{fill:url(#SVGID_00000114058586905979841070000011638172948919798184_);}
	.st68{fill:url(#SVGID_00000070095712198313351500000003120154879824503727_);}
	.st69{fill:url(#SVGID_00000054973489196992262870000003235287453848239247_);}
	.st70{fill:#FFEBED;}
	.st71{fill:#914343;}
	.st72{fill:#451414;}
	.st73{fill:#571D0F;}
	.st74{fill:#C6659C;}
	.st75{fill:#CB5F7D;}
	.st76{fill:#9F4A8B;}
	.st77{opacity:0.6;fill:url(#SVGID_00000009552720117500427940000017864478733509770430_);}
	.st78{fill:url(#SVGID_00000022559248974533523890000017084183447009699514_);}
	.st79{fill:#D2726C;}
	.st80{opacity:0.6;fill:url(#SVGID_00000168102635945575918040000008347959069217638561_);}
	.st81{opacity:0.6;fill:url(#SVGID_00000116199913518734857610000010394748117109710997_);}
	.st82{opacity:0.5;fill:url(#SVGID_00000017518557207197480020000017258680172868109735_);}
	.st83{fill:#B55B6D;}
	.st84{opacity:0.8;fill:url(#SVGID_00000124146318029397487930000004740081765941061810_);}
	.st85{opacity:0.8;fill:url(#SVGID_00000054951280602430899730000015776384051783161497_);}
	.st86{fill:url(#SVGID_00000042707364156447891400000006400582172967035806_);}
	.st87{fill:url(#SVGID_00000133505997750933848710000014245270952361613970_);}
	.st88{opacity:0.6;fill:#D26DF7;}
	.st89{fill:#9B4CA2;}
	.st90{opacity:0.6;fill:url(#SVGID_00000173150277919441235380000015832246072302307510_);}
	.st91{opacity:0.3;fill:url(#SVGID_00000063624497797678170960000017052769690999264899_);}
	.st92{opacity:0.3;fill:url(#SVGID_00000132769237171654845300000000811779139137687180_);}
	.st93{opacity:0.3;fill:url(#SVGID_00000021084953000607025850000005163732929023516034_);}
	.st94{opacity:0.3;fill:url(#SVGID_00000054262472421632951330000008666703673412706953_);}
	.st95{fill:#D1D4FB;}
	.st96{fill:#E0FFFF;}
	.st97{fill:url(#SVGID_00000069381734089880818880000006707954153520657321_);}
	.st98{fill:url(#SVGID_00000106149462322866254370000002794193175696617891_);}
	.st99{opacity:0.81;fill:url(#SVGID_00000070098478578035212150000013760010934033640586_);}
	.st100{fill:#713DA2;}
	.st101{fill:url(#SVGID_00000152222163388935145170000015849416966575421628_);}
	.st102{fill:url(#SVGID_00000181779441743505208310000008358985426154307775_);}
	.st103{fill:url(#SVGID_00000114075697612954656210000012806333962190805131_);}
	.st104{fill:url(#SVGID_00000062872403916088300500000005302063216862060468_);}
	.st105{fill:url(#SVGID_00000029756080140647070300000014132040878031228348_);}
	.st106{fill:url(#SVGID_00000039102283235948769090000001987479763034446772_);}
	.st107{opacity:0.73;fill:url(#SVGID_00000152943542514354330220000015519759150036937609_);}
	.st108{fill:#403DA2;}
	.st109{opacity:0.73;fill:url(#SVGID_00000114769152608834727440000001230240761107726014_);}
	.st110{fill-rule:evenodd;clip-rule:evenodd;fill:url(#SVGID_00000004546350704685074190000008701566390643683744_);}
	.st111{fill-rule:evenodd;clip-rule:evenodd;fill:url(#SVGID_00000111152007988751192630000012964049811215219894_);}
	.st112{fill-rule:evenodd;clip-rule:evenodd;fill:url(#SVGID_00000018918473128864096180000004219220165807229312_);}
	.st113{opacity:0.5;fill-rule:evenodd;clip-rule:evenodd;fill:#601734;}
	.st114{fill-rule:evenodd;clip-rule:evenodd;fill:#B3D9FF;}
	.st115{fill:#FF1D9C;}
	.st116{fill:#6877FF;}
	.st117{fill:#4F31E0;}
	.st118{fill-rule:evenodd;clip-rule:evenodd;fill:url(#SVGID_00000080892129705115677080000000447545712742523827_);}
	.st119{fill-rule:evenodd;clip-rule:evenodd;fill:url(#SVGID_00000133494128283455582910000015343387797362106514_);}
	.st120{fill-rule:evenodd;clip-rule:evenodd;fill:url(#SVGID_00000036237849239294344830000001470521505838791318_);}
	.st121{fill-rule:evenodd;clip-rule:evenodd;fill:url(#SVGID_00000103259799115498757230000004834624237433768638_);}
	.st122{fill:#744CA2;}
	.st123{fill-rule:evenodd;clip-rule:evenodd;fill:#CBD1FF;}
	.st124{fill:none;}
</style>
<g>
	<path class="st0" d="M1845.9,835.7l-10.3,0.3l-0.3-8.5l-0.4,0l-3.1,8.6l-14.7,0.5c-2.7,0.1-5-0.2-7-0.8c-1.9-0.6-3.5-1.6-4.7-2.8
		c-1.2-1.2-2.1-2.7-2.7-4.5c-0.6-1.8-0.9-3.8-1-6l-0.2-7.5c-0.1-2.2,0.1-4.2,0.6-6c0.5-1.8,1.3-3.4,2.4-4.6c1.1-1.3,2.6-2.3,4.5-3.1
		c1.9-0.7,4.2-1.2,6.9-1.2l27.4-0.8c0.9,0,1.4,0.5,1.4,1.5L1845.9,835.7z M1834.7,809.4c0-0.2-0.1-0.4-0.2-0.5
		c-0.1-0.1-0.3-0.2-0.6-0.2l-16.8,0.5c-2,0.1-3.4,0.5-4.2,1.4c-0.8,0.8-1.2,2.4-1.1,4.7l0.2,6.1c0.1,2.2,0.5,3.7,1.4,4.6
		c0.9,0.8,2.3,1.2,4.3,1.2l17.5-0.5L1834.7,809.4z"/>
	<path class="st0" d="M1784.5,822.9l-14.3,0.4l-0.2-7.4l17.1-0.5l-0.1-4.6c0-0.2,0-0.3-0.1-0.5c-0.1-0.1-0.3-0.2-0.5-0.2l-20.7,0.6
		c-0.3,0-0.5,0.2-0.5,0.6l0.1,4.9l-0.4,0l-9.7-3.3l-0.3-9.5c0-1,0.5-1.5,1.5-1.5l39.2-1.2c1,0,1.5,0.5,1.5,1.5l1,33.5
		c0,1-0.4,1.5-1.4,1.5l-40.4,1.2l-0.3-9.5l30.8-0.9c0.5,0,0.7-0.3,0.7-0.7l-0.3-10.9l-0.4,0L1784.5,822.9z"/>
	<path class="st0" d="M1708.5,812.5l-0.2-7.5c0-1.1,0.5-1.6,1.5-1.7l32.5-1c3.3-0.1,5.6,0.6,7.1,2c1.4,1.4,2.2,3.4,2.3,6.1l0.1,2.6
		c0,1.3-0.1,2.5-0.3,3.5c-0.3,1-0.7,1.8-1.4,2.5c-0.7,0.7-1.5,1.3-2.5,1.7c-1,0.4-2.3,0.8-3.8,1l-21.8,3.4c-0.6,0.1-1.1,0.3-1.3,0.5
		c-0.2,0.3-0.3,0.7-0.3,1.3l0,1c0,0.8,0.2,1.4,0.5,1.7c0.3,0.3,0.9,0.5,1.7,0.4l29.1-0.9l0.3,9.5l-32.5,1c-2,0.1-3.7-0.1-5.1-0.5
		c-1.4-0.4-2.5-0.9-3.4-1.7c-0.9-0.8-1.5-1.7-1.9-2.9c-0.4-1.1-0.6-2.5-0.7-4l-0.1-2.9c0-1.4,0.1-2.6,0.3-3.6c0.2-1,0.7-1.9,1.3-2.6
		c0.6-0.7,1.4-1.3,2.4-1.7c1-0.4,2.2-0.8,3.6-1l22.6-3.8c0.7-0.1,1.1-0.3,1.3-0.5c0.2-0.2,0.3-0.7,0.3-1.4l0-0.9
		c0-0.6-0.2-1-0.4-1.3c-0.3-0.3-0.8-0.4-1.5-0.4l-19.3,0.6c-0.4,0-0.6,0.2-0.6,0.6l0.1,4l-0.4,0L1708.5,812.5z"/>
	<path class="st0" d="M1694.2,840.3l-1.1-36.5l10.3-0.3l1.1,36.5L1694.2,840.3z"/>
	<path class="st0" d="M1656,831.4c0,0.4,0.2,0.6,0.6,0.6l17.3-0.5c2-0.1,3.4-0.5,4.2-1.4c0.8-0.9,1.2-2.4,1.1-4.7l-0.2-6.4
		c0-1.1-0.2-2-0.4-2.8c-0.2-0.7-0.6-1.3-1-1.8c-0.5-0.4-1-0.7-1.7-0.9c-0.7-0.2-1.5-0.2-2.5-0.2l-17.5,0.5c-0.3,0-0.4,0.2-0.4,0.5
		l0.1,3.5l-0.4,0l-9.7-3.2l-0.2-7.9c0-1,0.4-1.5,1.4-1.5l27.3-0.8c2.7-0.1,5,0.2,7,0.8c1.9,0.6,3.5,1.5,4.7,2.8
		c1.2,1.2,2.1,2.7,2.7,4.5c0.6,1.8,0.9,3.8,1,6l0.2,7.5c0.1,2.2-0.1,4.2-0.6,6c-0.5,1.8-1.3,3.4-2.4,4.6c-1.1,1.3-2.6,2.3-4.5,3.1
		c-1.9,0.7-4.2,1.2-6.9,1.2l-27.5,0.8c-0.8,0-1.3-0.4-1.3-1.4l-0.5-17.9l10.2-0.3l0,0.5c-0.1,0.4-0.1,0.9-0.1,1.5c0,0.6,0,1.1,0,1.7
		L1656,831.4z"/>
	<path class="st0" d="M1639.2,805.5c0.9,0,1.4,0.5,1.4,1.5l1.1,35l-9.4,0.3l-0.8-27.4c0-0.5-0.3-0.8-0.8-0.8l-0.5,0
		c-0.4,0-0.7,0.2-0.9,0.6l-13.6,26.6c-0.3,0.6-0.6,1-0.9,1.2c-0.3,0.2-0.9,0.3-1.6,0.3l-14.9,0.5c-0.9,0-1.4-0.4-1.4-1.4l-1.1-35.1
		l9.4-0.3l0.8,27.5c0,0.5,0.3,0.8,0.8,0.8l0.5,0c0.4,0,0.7-0.2,0.9-0.6l13.1-26.7c0.3-0.5,0.5-0.9,0.8-1.1c0.3-0.2,0.9-0.4,1.6-0.4
		L1639.2,805.5z"/>
</g>
<ellipse transform="matrix(0.7071 -0.7071 0.7071 0.7071 -168.7542 1189.4194)" class="st1" cx="1351.4" cy="798.4" rx="633" ry="633"/>
<circle class="st2" cx="852" cy="1164" r="288"/>
<g>
	
		<linearGradient id="SVGID_1_" gradientUnits="userSpaceOnUse" x1="639.344" y1="842.3726" x2="639.344" y2="551.6843" gradientTransform="matrix(-0.906 -0.4233 -0.4233 0.906 2699.2776 503.2926)">
		<stop  offset="0" style="stop-color:#DBCCFF"/>
		<stop  offset="1" style="stop-color:#D1BBFF"/>
	</linearGradient>
	<path class="st3" d="M1811.9,768.2c-1,6.2,1.8,17,14.7,30.6l-54.3,131.7c-10.8,1.9-20.5,8.8-25.5,19.4c-8.1,17.3-0.6,37.9,16.7,46
		c17.3,8.1,37.9,0.6,46-16.7c5-10.6,4-22.5-1.5-32l66.2-126.2c19.2,1.2,29.1-3.9,32.9-8.4c0.7-0.8,4.8-10.3,4.8-10.3
		c10.6-29.1,1.4-57.3,1.4-57.3l-9.6-4.5l-16.2,41.7c-13.4,7.5-26.4,4.8-26.4,4.8l0,0.1c0,0-10.3-8.3-13.2-23.4l21.6-39.2l-9.6-4.5
		c0,0-27.5,11-43.1,37.8C1816.7,757.9,1812.1,766.9,1811.9,768.2z M1760.6,956.3l15.9-11.1l17.5,8.2l1.7,19.3l-15.9,11.1l-17.5-8.2
		L1760.6,956.3z"/>
	
		<linearGradient id="SVGID_00000077320694696727617120000018238338627711259058_" gradientUnits="userSpaceOnUse" x1="639.3269" y1="853.713" x2="639.3269" y2="563.0248" gradientTransform="matrix(-0.906 -0.4233 -0.4233 0.906 2699.2776 503.2926)">
		<stop  offset="0" style="stop-color:#B5A6E7"/>
		<stop  offset="1" style="stop-color:#7760BF"/>
	</linearGradient>
	<path style="fill:url(#SVGID_00000077320694696727617120000018238338627711259058_);" d="M1821.8,809.1l-54.3,131.7
		c-10.8,1.9-20.5,8.8-25.5,19.4c-8.1,17.3-0.6,37.9,16.7,46c17.3,8.1,37.9,0.6,46-16.7c5-10.6,4-22.5-1.5-32l66.2-126.2
		c22.7,1.4,37.7-18.7,37.7-18.7c10.6-29.1,1.4-57.3,1.4-57.3l-9.6-4.5l-16.2,41.7c-13.4,7.5-26.4,4.8-26.4,4.8l0,0.1
		c0,0-10.3-8.3-13.2-23.4l21.6-39.2l-9.6-4.5c0,0-27.5,11-43.1,37.8C1811.9,768.2,1806.1,792.5,1821.8,809.1z M1755.8,966.6
		l15.9-11.1l17.5,8.2l1.7,19.3L1775,994l-17.5-8.2L1755.8,966.6z"/>
	
		<rect x="1900.4" y="742.6" transform="matrix(0.4233 -0.906 0.906 0.4233 421.6589 2158.1462)" class="st5" width="11.3" height="10.6"/>
	
		<rect x="1856.5" y="722.2" transform="matrix(0.4233 -0.906 0.906 0.4233 414.8354 2106.6226)" class="st5" width="11.3" height="10.6"/>
	
		<rect x="1763" y="975.1" transform="matrix(0.4233 -0.906 0.906 0.4233 127.7432 2170.3171)" class="st5" width="11.3" height="19.3"/>
	<g>
		
			<linearGradient id="SVGID_00000026875932601674381270000007545609602287057847_" gradientUnits="userSpaceOnUse" x1="639.3264" y1="781.4442" x2="639.3264" y2="658.9141" gradientTransform="matrix(-0.906 -0.4233 -0.4233 0.906 2699.2776 503.2926)">
			<stop  offset="0" style="stop-color:#B5A6E7"/>
			<stop  offset="1" style="stop-color:#7760BF"/>
		</linearGradient>
		<path style="fill:url(#SVGID_00000026875932601674381270000007545609602287057847_);" d="M1823.7,825.9l-43.5,107.3
			c0,0,7.5,10.7,21.6,10.1l53.4-102.7C1855.2,840.6,1843.2,825.2,1823.7,825.9z M1826,827.8c4.5,0.6,8.9,1.9,13.2,3.9
			c5.8,2.7,10.2,6.1,12.9,8.4l-53.5,100.6c-2.5-0.4-5-1.1-7.4-2.2c-3-1.4-5.4-3.2-6.9-4.5L1826,827.8z"/>
		<path class="st5" d="M1784.3,934.1l-4.1-0.8c0,0,6.1,10.9,21.6,10.1l-3.2-2.5C1798.6,940.8,1791,939.9,1784.3,934.1z"/>
		
			<linearGradient id="SVGID_00000081629108796364865730000004857806768317657769_" gradientUnits="userSpaceOnUse" x1="621.938" y1="661.3664" x2="656.7147" y2="661.3664" gradientTransform="matrix(-0.906 -0.4233 -0.4233 0.906 2699.2776 503.2926)">
			<stop  offset="0" style="stop-color:#8B8BE0"/>
			<stop  offset="1" style="stop-color:#A177B7"/>
		</linearGradient>
		<path style="opacity:0.62;fill:url(#SVGID_00000081629108796364865730000004857806768317657769_);" d="M1855.2,840.6l-3.1-0.4
			c0,0-9.1-9.5-26.1-12.3l-2.3-2c0,0,6.8-1.2,17.4,3.8C1851.7,834.6,1855.2,840.6,1855.2,840.6z"/>
	</g>
	
		<linearGradient id="SVGID_00000010999732269200958100000011909737694832120449_" gradientUnits="userSpaceOnUse" x1="639.3266" y1="669.4397" x2="639.3266" y2="648.3878" gradientTransform="matrix(-0.906 -0.4233 -0.4233 0.906 2699.2776 503.2926)">
		<stop  offset="0" style="stop-color:#FFFFFF"/>
		<stop  offset="1" style="stop-color:#A177B7"/>
	</linearGradient>
	<path style="opacity:0.62;fill:url(#SVGID_00000010999732269200958100000011909737694832120449_);" d="M1869.4,831.2
		c0,0-25.7-4.6-47.6-22.2l-6.9,16.8c0,0,7.9-7.8,25.2-0.8c20.2,8.2,19.1,24.5,19.1,24.5L1869.4,831.2z"/>
	
		<linearGradient id="SVGID_00000085234613781364864260000014167798380841777597_" gradientUnits="userSpaceOnUse" x1="657.7192" y1="793.952" x2="657.7192" y2="658.8737" gradientTransform="matrix(-0.906 -0.4233 -0.4233 0.906 2699.2776 503.2926)">
		<stop  offset="0" style="stop-color:#000000"/>
		<stop  offset="1" style="stop-color:#FFFFFF"/>
	</linearGradient>
	<path style="opacity:0.5;fill:url(#SVGID_00000085234613781364864260000014167798380841777597_);" d="M1814.8,825.9
		c4.9-3.5,10.6-3.7,10.6-3.7l-51.7,124.9l-6.2-6.4L1814.8,825.9z"/>
	<path class="st10" d="M1814.8,825.9c0,0,5.4,16.7-10.2,24.6L1814.8,825.9z"/>
</g>
<g>
	<g>
		
			<linearGradient id="SVGID_00000073690334809374445890000004152062771795584641_" gradientUnits="userSpaceOnUse" x1="1144.5569" y1="1633.3333" x2="1144.5569" y2="1269.0592" gradientTransform="matrix(-1 0 0 1 2450 0)">
			<stop  offset="1.117320e-02" style="stop-color:#4B1567"/>
			<stop  offset="1" style="stop-color:#4F3885"/>
		</linearGradient>
		<path style="fill:url(#SVGID_00000073690334809374445890000004152062771795584641_);" d="M1036.2,1633.3h191.9
			c20.1-111.6,66.8-256.7,66.8-256.7c11.4-6.7,33.5,1.6,33.5,1.6l70.2,255.2H1574c9.3-157.5-76.8-336.2-76.8-336.2l0,0
			c0.3-0.6,3-6.1,2.3-9.8c-0.3-1.6-3.2-4.6-6.5-7.6c-4.7-4.3-10.4-8.7-10.4-8.7l-327.1-2c0,0-3.3,1.7-7.5,4.2h0
			c-7.1,4.3-16.8,11-16.8,15.9c0,6.7,2.7,11.1,3.3,12.1l0.2,0.2C1064.4,1433.9,1036.2,1633.3,1036.2,1633.3z"/>
		
			<radialGradient id="SVGID_00000018230068476534932760000004697344313558853548_" cx="1046.8468" cy="1305.4315" r="110.3632" gradientTransform="matrix(-0.6462 0.1491 0.3852 1.6696 1656.4438 -833.3082)" gradientUnits="userSpaceOnUse">
			<stop  offset="0" style="stop-color:#4B474B"/>
			<stop  offset="1" style="stop-color:#000000"/>
		</radialGradient>
		<path style="opacity:0.5;fill:url(#SVGID_00000018230068476534932760000004697344313558853548_);" d="M1411.5,1518.8
			c23.5,101.8,74.4,176.9,113.8,167.8c39.4-9.1,52.3-99,28.8-200.7c-23.5-101.8-74.4-176.9-113.8-167.8
			C1400.9,1327.2,1388,1417,1411.5,1518.8z"/>
		
			<radialGradient id="SVGID_00000042017257957959835320000014146378858380234152_" cx="1156.2035" cy="1269.537" r="110.3609" gradientTransform="matrix(-0.6386 -0.179 -0.4623 1.6499 2468.3467 -387.1587)" gradientUnits="userSpaceOnUse">
			<stop  offset="0" style="stop-color:#4B474B"/>
			<stop  offset="1" style="stop-color:#000000"/>
		</radialGradient>
		<path style="opacity:0.5;fill:url(#SVGID_00000042017257957959835320000014146378858380234152_);" d="M1072.6,1480.7
			c-28.2,100.6-19.5,190.9,19.5,201.8c38.9,10.9,93.3-61.8,121.5-162.3c28.2-100.6,19.5-190.9-19.5-201.8
			C1155.2,1307.5,1100.8,1380.2,1072.6,1480.7z"/>
		<g>
			<path class="st14" d="M1421.3,1633.5l2-0.3c-22.3-131.5-79-241.8-79.5-242.9l-0.2-0.3l-14.4-12.6l-1.3,1.5l14.3,12.5
				C1344.6,1396.4,1399.5,1504.8,1421.3,1633.5z"/>
		</g>
		<g>
			<path class="st14" d="M1202.1,1633.5c21.9-128.8,78.2-238.2,80.8-243.1l12.8-11.5l-1.4-1.5l-13.1,11.9
				c-0.6,1.1-58.7,112.4-81.1,243.9L1202.1,1633.5z"/>
		</g>
		
			<linearGradient id="SVGID_00000136381541081506789350000008285163966829179325_" gradientUnits="userSpaceOnUse" x1="1131.7367" y1="1633.3333" x2="1131.7367" y2="1269.0592" gradientTransform="matrix(-1 0 0 1 2450 0)">
			<stop  offset="0" style="stop-color:#CCCCFF"/>
			<stop  offset="1" style="stop-color:#755CBB"/>
		</linearGradient>
		<path style="opacity:0.76;fill:url(#SVGID_00000136381541081506789350000008285163966829179325_);" d="M1131,1289.2
			c0,6.7,2.7,11.1,3.3,12.1l0.2,0.2c68.1,15.4,119.9,79,119.9,79c-37.1,71.2-99,252.9-99,252.9h72.7
			c20.1-111.6,66.8-256.7,66.8-256.7c11.4-6.7,33.5,1.6,33.5,1.6l70.2,255.2h45.4c-16.3-106.9-64.2-237.4-64.2-237.4
			c47.2-54.9,117.3-98.8,117.3-98.8l0,0l8.3-5.2l-6-4.5c-30.3,29.1-128.2,67.1-131.2,68.3l124.7-75.9c-4.7-4.3-10.4-8.7-10.4-8.7
			l-327.1-2c0,0-3.3,1.7-7.5,4.2l89.3,49.2L1131,1289.2z"/>
		
			<linearGradient id="SVGID_00000109745681738264898760000017659651558880299452_" gradientUnits="userSpaceOnUse" x1="1174.1444" y1="1451.1963" x2="1174.1444" y2="1351.8414" gradientTransform="matrix(-1 0 0 1 2450 0)">
			<stop  offset="0" style="stop-color:#CCCCFF"/>
			<stop  offset="1" style="stop-color:#755CBB"/>
		</linearGradient>
		<polygon style="opacity:0.76;fill:url(#SVGID_00000109745681738264898760000017659651558880299452_);" points="1294.9,1376.6 
			1256.8,1351.8 1265.8,1376.6 1272.5,1451.2 		"/>
		
			<linearGradient id="SVGID_00000113345284704088516810000016423613919060303748_" gradientUnits="userSpaceOnUse" x1="1059.0664" y1="1414.661" x2="1059.0664" y2="1317.3206" gradientTransform="matrix(-1 0 0 1 2450 0)">
			<stop  offset="0" style="stop-color:#CCCCFF"/>
			<stop  offset="1" style="stop-color:#755CBB"/>
		</linearGradient>
		<polygon style="opacity:0.76;fill:url(#SVGID_00000113345284704088516810000016423613919060303748_);" points="1328.5,1378.2 
			1368.2,1355.7 1453.4,1317.3 1345,1389 1338.5,1414.7 		"/>
	</g>
	<g>
		<path class="st18" d="M1219,611.1c-0.2,1.8-0.4,2.7-0.4,2.7c2,8.3,4.3,16,6.8,23.1c8,23,18,39.3,25.4,49.5
			c6.5,8.8,11.1,13,11.1,13c59.6-18.7,88.9-77,100.2-106c0.1-0.1,0.1-0.3,0.2-0.4c2.2-5.5,3.6-9.9,4.5-12.7c0,0,0,0,0,0
			c0.7-2.3,1-3.6,1-3.6c-0.2-0.5-0.5-1-0.7-1.5l-0.1-0.2c-1-2-2-4.1-2.9-6.1c-7.8-17.1-13-33-16.3-45.6c-2.9-10.7-4.5-18.9-5.2-23.3
			c-0.4-2.2-0.5-3.5-0.5-3.5l-27.8,14.7l-95.7,50.6c1.4,8.8,2,17,2,24.3c0.1,5.1-0.1,9.7-0.4,13.6c-0.3,4.7-0.8,8.5-1.1,10.9v0
			C1219.1,610.7,1219.1,610.9,1219,611.1z"/>
		<path class="st19" d="M1218.8,609.5c0.1,0.5,0.2,1.1,0.2,1.6c0.2,1.1,0.4,2.2,0.8,3.3c0,0,0,0,0,0.1c4.9,18,24.5,36.4,49.3,27.6
			c27.1-9.7,78.6-118.8,78.6-118.8l-5.2-23.3l-122.3,99.6l-1.3,9.4L1218.8,609.5z"/>
	</g>
	<g>
		<g>
			<path class="st20" d="M1626.1,589.5c0,0,7.5-41.3,4.1-71.7c-3.4-30.4,0.9-65,0.9-65s7.4-3.1,12.8,0c5.4,3.1,18.1,34.6,12.4,59.8
				c-5.7,25.3-1.3,85.9-1.3,85.9h8.5L1682,573l9-2.6c0,0,52,49,51.2,78.1l-6.8,25.9l-64-2.2l-41.8-47.7L1626.1,589.5z"/>
			
				<linearGradient id="SVGID_00000005248878058975846030000011370752687323326393_" gradientUnits="userSpaceOnUse" x1="730.6027" y1="660.759" x2="730.6027" y2="570.417" gradientTransform="matrix(-1 0 0 1 2450 0)">
				<stop  offset="1.598750e-02" style="stop-color:#FFC2A9"/>
				<stop  offset="1" style="stop-color:#FF9595"/>
			</linearGradient>
			<path style="fill:url(#SVGID_00000005248878058975846030000011370752687323326393_);" d="M1691.1,570.4c0,0-1.3,32.5-8.6,60.3
				c0,0,1.2,11.4,14.6,12.2l3.3-3.7c0,0,2.3,13,14.1,13.9l11.2-11.2l-2.9,9.3c0,0,4.1,9.9,14.7,9.5c0,0,17.8-13.9,19-32.1
				l-17.6-14.9v-11.4l-20.9-14.7l-0.4-8.3C1717.5,579.3,1705.2,570.2,1691.1,570.4z"/>
			
				<linearGradient id="SVGID_00000055675977628320294070000004893570741336477354_" gradientUnits="userSpaceOnUse" x1="787.4913" y1="658.62" x2="787.4913" y2="509.0753" gradientTransform="matrix(-1 0 0 1 2450 0)">
				<stop  offset="0" style="stop-color:#FFEADB"/>
				<stop  offset="0.9944" style="stop-color:#C27CB6"/>
			</linearGradient>
			<path style="opacity:0.6;fill:url(#SVGID_00000055675977628320294070000004893570741336477354_);" d="M1629.4,509.1
				c0,0,3.1,8,7.6,11.1c4.4,3.1,17.3,5.5,17.3,5.5l0.6,72.9h8.5L1682,573c0,0-9.4,14.6-10,25.5l7.3,3.6l6.4-21.9l3,15.7l-3,19.6
				c0,0-11-9.5-30.9-9.9l-3,5.4c0,0,36,29.9,44.4,47.5c0,0-17.8-22.6-58.4-47.6l-3.9-12l-5.1-28.6
				C1628.8,570.4,1633.7,529.2,1629.4,509.1z"/>
			
				<linearGradient id="SVGID_00000155867993015917967760000005751952692378260391_" gradientUnits="userSpaceOnUse" x1="782.6395" y1="760.3575" x2="782.6395" y2="529.8125" gradientTransform="matrix(-1 0 0 1 2450 0)">
				<stop  offset="1.598750e-02" style="stop-color:#FFC2A9"/>
				<stop  offset="1" style="stop-color:#FF9595"/>
			</linearGradient>
			<path style="fill:url(#SVGID_00000155867993015917967760000005751952692378260391_);" d="M1599.2,636.2
				c3.3,10,38.4,51.8,42.3,60.9c3.9,9,6.2,20.9,6.2,20.9c17.2,37.3,58.9,42.4,58.9,42.4l1.9-33.6c0,0,22.4-12.9,26.2-20l0-0.1
				l0.4-1.2c1.1-6.6,0.2-31,0.2-31l-39.2-15.9c-17-22.1-58.4-47.6-58.4-47.6l-1.9-11.6c29.7-14.6,24.7-58.8,19.7-64.3
				c-5-5.4-14.3-5.4-14.3-5.4s-10.9,35.6-17.8,52.2C1616.5,598.7,1595.9,626.1,1599.2,636.2z"/>
			<path class="st24" d="M1717.5,579.3c0,0-4.4,40.6-17.2,60c0,0,16.3-20.2,17.6-51.6L1717.5,579.3z"/>
			<path class="st24" d="M1738.8,602.3c0,0-4.3,32.7-24.4,50.9c0,0,17.8-8.9,24.4-39.5V602.3z"/>
			
				<linearGradient id="SVGID_00000000919653782228992820000012576235416841329343_" gradientUnits="userSpaceOnUse" x1="741.4108" y1="724.3804" x2="813.8982" y2="724.3804" gradientTransform="matrix(-1 0 0 1 2450 0)">
				<stop  offset="1.598750e-02" style="stop-color:#D1A1D6"/>
				<stop  offset="0.9944" style="stop-color:#BD89C4"/>
			</linearGradient>
			<path style="opacity:0.91;fill:url(#SVGID_00000000919653782228992820000012576235416841329343_);" d="M1636.1,688.4
				c0,0,44.2,43,72.5,38.3l-1.9,33.6c0,0-46.4-4.1-61.5-52.9C1645.2,707.5,1639.7,693.4,1636.1,688.4z"/>
		</g>
		<g>
			
				<linearGradient id="SVGID_00000141420032762720140070000005435072627682721192_" gradientUnits="userSpaceOnUse" x1="1629.2341" y1="900.7833" x2="1629.2341" y2="592.4866" gradientTransform="matrix(-1 0 0 1 2450 0)">
				<stop  offset="1.598750e-02" style="stop-color:#FFC2A9"/>
				<stop  offset="1" style="stop-color:#FF9595"/>
			</linearGradient>
			<path style="fill:url(#SVGID_00000141420032762720140070000005435072627682721192_);" d="M700.9,746.8c0,0,40.6,74.3,88.2,97.1
				h16.3l37.5,56.9c0,0,24.3-15.2,26.1-65.3c0,0-8.5-8.9-10.6-18.9c0,0,13.4-10.5,17-18.3c3.6-7.8,4.9-31,7.5-40.5
				c2.6-9.6,24.5-29.4,29.4-32s27.1-3.9,27.1-3.9s3.1-8,0-11.8c-3.1-3.9-37.6-17.3-56.5-4.4c0,0-1.3,9.8-3.3,15
				c-2.1,5.1-18.6,23.4-21.2,23.4c-2.6,0-13.7-9.3-18.6-16.5c-4.7-6.9-29.6-60.7-35.7-78.9c0-0.2-0.1-0.4-0.2-0.5
				c-0.1-0.3-0.2-0.6-0.2-0.8c-0.1-0.2-0.1-0.4-0.2-0.5c0-0.1-0.1-0.1-0.1-0.2c-4.7-15.7-31.7-45.9-46.2-54.1c0,0-6.2-1.6-9.5,6.2
				c0,0,11.6,33,23.7,52.6c2,3.3,4.2,7.2,6.5,11.4c0,0,0,0,0,0c10.3,19,22,43.9,23.6,47.5l0.2,0.4l-6.5,3.3L778,697.5l-17.9-16.9
				l-41,43.3l4,5.1l12.8,16.5l-6.5,1.2l-15.1-16.7L700.9,746.8z"/>
			
				<linearGradient id="SVGID_00000005972417454964502700000009509287150878213813_" gradientUnits="userSpaceOnUse" x1="1665.6564" y1="802.0075" x2="1665.6564" y2="648.8417" gradientTransform="matrix(-1 0 0 1 2450 0)">
				<stop  offset="0" style="stop-color:#FFEADB"/>
				<stop  offset="0.9944" style="stop-color:#C27CB6"/>
			</linearGradient>
			<path style="opacity:0.6;fill:url(#SVGID_00000005972417454964502700000009509287150878213813_);" d="M710.4,762.6l13,19.1
				c0,0,71.3-55,86.7-59.6c15.5-4.7,21.2-1.6,21.2-1.6l16,20.4c0,0-29.4,26.1-32,61.1c0,0,9.8-44.3,43.1-57.8
				c-2.6,0-13.7-9.3-18.6-16.5c-4.7-6.9-29.6-60.7-35.7-78.9c0.8,3.1,1.9,9.1-0.7,13.9c-3.5,6.5-24.2,0.4-25.4,0c0,0,0,0,0,0
				l23.7,47.5l0.2,0.4l-6.5,3.3L778,697.5l8.7,20.3L723.1,729l12.8,16.5l-6.5,1.2L710.4,762.6z"/>
			
				<linearGradient id="SVGID_00000128444271618102868530000008280251132905974432_" gradientUnits="userSpaceOnUse" x1="1695.8729" y1="749.1414" x2="1695.8729" y2="680.4802" gradientTransform="matrix(-1 0 0 1 2450 0)">
				<stop  offset="0" style="stop-color:#FFB0B0"/>
				<stop  offset="0.984" style="stop-color:#FFC2A9"/>
			</linearGradient>
			<path style="fill:url(#SVGID_00000128444271618102868530000008280251132905974432_);" d="M760.1,680.5c0,0-12.4-1.8-20.4,14.2
				l1.8,5.2c0,0-12.1,2.4-23.7,21.9c0,0,10.3,18.8,35.8,27.3c0,0,11.9-3.4,13.9-13.4l-2.3-6.4l9.3,7c0,0,11.1,3.4,16-13.2
				L760.1,680.5z"/>
			
				<linearGradient id="SVGID_00000050621689053323463780000013743705968591157904_" gradientUnits="userSpaceOnUse" x1="1735.697" y1="759.7148" x2="1735.697" y2="722.0624" gradientTransform="matrix(-1 0 0 1 2450 0)">
				<stop  offset="0" style="stop-color:#FFB0B0"/>
				<stop  offset="0.984" style="stop-color:#FFC2A9"/>
			</linearGradient>
			<path style="fill:url(#SVGID_00000050621689053323463780000013743705968591157904_);" d="M697.1,741.7c0,0-2.6-11.9,10.1-19.6
				l24.5,27.1c0,0-0.7,8.7-11.3,10.6C720.3,759.7,703.6,754,697.1,741.7z"/>
			
				<linearGradient id="SVGID_00000128457742813908105390000008314788568517053066_" gradientUnits="userSpaceOnUse" x1="1574.6558" y1="834.7607" x2="1644.6851" y2="834.7607" gradientTransform="matrix(-1 0 0 1 2450 0)">
				<stop  offset="1.598750e-02" style="stop-color:#D1A1D6"/>
				<stop  offset="0.9944" style="stop-color:#BD89C4"/>
			</linearGradient>
			<path style="opacity:0.91;fill:url(#SVGID_00000128457742813908105390000008314788568517053066_);" d="M875.3,798.4
				c0,0-28.4,31.7-70,45.5l17.9,27.2l37.5-47.6l-2.4-6.9C858.3,816.7,873.3,805.4,875.3,798.4z"/>
			<path class="st24" d="M741.5,699.9c0,0,11.9,19.6,23.7,29.4l2.3,6.4c0,0-23-15.5-31.5-33.5C736,702.2,738.8,700.3,741.5,699.9z"
				/>
		</g>
		<path class="st31" d="M1599.2,636.2c0,0,19-4.1,26.8-20.6c7.9-16.5,2.7-40.5,2.7-40.5s-14.8,28.5-22.2,38.2
			C1599.2,623,1597.2,634.1,1599.2,636.2z"/>
	</g>
	<g>
		
			<linearGradient id="SVGID_00000004542846505206877510000008137331558300681874_" gradientUnits="userSpaceOnUse" x1="1157.797" y1="720.5042" x2="1157.797" y2="575.0967" gradientTransform="matrix(-1 0 0 1 2450 0)">
			<stop  offset="0" style="stop-color:#B4CDF8"/>
			<stop  offset="1" style="stop-color:#D3D6FB"/>
		</linearGradient>
		<path style="fill:url(#SVGID_00000004542846505206877510000008137331558300681874_);" d="M1245.6,705.8c5.5,5.5,12,10.4,19.8,14.5
			c0.2,0.1,0.3,0.2,0.5,0.3c0,0,0.2-0.1,0.6-0.3l0,0c2.1-1.3,9.2-5.6,18.7-12.8c25-18.8,66.7-56.9,78.6-108.2c0-0.1,0-0.1,0.1-0.2
			c1.4-6.1,2.4-12.3,2.9-18.7c0,0,0,0,0,0c0.1-1.7,0.2-3.3,0.3-5.1c0,0-8.3,19.5-22.7,40.5c-16.9,24.7-42.3,51.7-72.6,51.9
			c-26.2,0.2-39.6-17.8-46.5-34.3c-2.9-7-4.6-13.8-5.5-18.8c0,0,0-0.1,0-0.1c-0.3-1.5-0.5-2.8-0.7-3.9v0c-0.1-0.6-0.2-1.1-0.2-1.5
			c-0.2-1.8-0.3-2.9-0.3-2.9S1208.5,668.7,1245.6,705.8z"/>
		
			<linearGradient id="SVGID_00000006699321267581679550000012440911865123279251_" gradientUnits="userSpaceOnUse" x1="1082.9408" y1="647.6575" x2="1232.6532" y2="647.6575" gradientTransform="matrix(-1 0 0 1 2450 0)">
			<stop  offset="0" style="stop-color:#B2E8FF"/>
			<stop  offset="1" style="stop-color:#4964BB"/>
		</linearGradient>
		<path style="opacity:0.5;fill:url(#SVGID_00000006699321267581679550000012440911865123279251_);" d="M1245.6,705.8
			c5.5,5.5,12,10.4,19.8,14.5h0.5l0.6,0l0,0c2.1-1.3,9.2-5.6,18.7-12.8c25-18.8,66.7-56.9,78.6-108.2c0-0.1,0-0.1,0.1-0.2
			c1.4-6.1,2.4-12.3,2.9-18.7c0,0,0,0,0,0c0.1-1.7,0.2-3.3,0.3-5.1c0,0-8.3,19.5-22.7,40.5c0,0-16.5,45.3-52.2,67.8
			c-17.9,11.2-31.4,9.6-41.4,3c-10-6.6-16.4-18-20.2-26.7c-3.8-8.7-5-16.8-5.2-22.8c0-1.3,0-2.6,0-3.7c-2.9-7-4.6-13.8-5.5-18.8
			c0,0,0-0.1,0-0.1c-0.3-1.5-0.5-2.8-0.7-3.9v0c-0.1-0.6-0.2-1.1-0.2-1.5c-0.2-1.8-0.3-2.9-0.3-2.9S1208.5,668.7,1245.6,705.8z"/>
		
			<linearGradient id="SVGID_00000085937393113018699940000008076377518877481394_" gradientUnits="userSpaceOnUse" x1="1114.9878" y1="1301.4778" x2="1114.9878" y2="568.7675" gradientTransform="matrix(-1 0 0 1 2450 0)">
			<stop  offset="0" style="stop-color:#74A1EF"/>
			<stop  offset="1" style="stop-color:#979DEE"/>
		</linearGradient>
		<path style="fill:url(#SVGID_00000085937393113018699940000008076377518877481394_);" d="M1016.3,1076.1c0.4,0.2,0.7,0.3,0.7,0.3
			c3.3,0.4,13.8-1.9,27.4-13.7l0,0c0,0,0-0.1,0.1-0.1c0,0,0.1-0.1,0.2-0.2c11.4-10,25.2-26.7,38.8-54.1
			c27.4-54.7,35.2-91.2,36.5-97.6l0.2-1l16,25.3c10.8,32.5,31.3,167.2,31,173c-0.4,5.8-18.2,34.1-17.8,37.5c0,0,0,0,0,0.1
			c0.5,3.5,8.5,11.2,10.8,19.6c1.6,5.6-9.3,23.2-16.9,36.4v0c-4,6.9-7,12.5-7,14.6c0,6.2,19.4,36.3,19.4,36.3v16.3l0.3,0.3l0.9,0.8
			l0.7,0.6c7.3,5.8,38.5,24.8,135.9,30c115.4,6.2,192.2-31,192.2-31l-5.8-15.9c0,0,5.4-4.6,5.8-6.9c0.4-2.3-4.2-7.8-4.2-7.8
			s11.6-6.2,11.6-13.9c0-7.7-23.2-31.7-22.5-52.2c0.8-20.5,18.6-38.7,20.9-50.3s-30.2-40.2-30.2-40.2
			c27.8-88.2,33.3-206.6,33.3-206.6l5.4-6.2c0,0,33.3,75.8,63.5,112.9c3.6,4.4,7.4,8.8,11.3,13c8.4,9.1,17.4,17.6,26,25.1
			c20.9,18.2,39.9,30.2,44.7,29.2c7.8-1.6,38.7-62.7,37.3-125.4c-0.7-29.8-18.6-63.2-37.3-89.9c-2-2.9-4-5.7-6-8.4
			c-13.2-18-25.9-32.1-32-38.6c-2.4-2.5-3.7-3.9-3.7-3.9s4.2-13.7,7.1-25.6c0-0.3,0.1-0.6,0.2-0.9c0-0.1,0-0.3,0.1-0.4
			c0-0.2,0.1-0.3,0.1-0.3c1.7-7.3,2.8-13.6,1.8-15.2c-2.6-4.1-17.6-8.8-20.1-11.8c-2.6-3.1-13.4-55.2-21.6-60.9
			c-7.9-5.4-21.8-9.4-68.3-27.6c-2.3-0.9-4.6-1.8-7.1-2.8c-52.1-20.6-103.1-45.7-103.1-45.7l-19.6-24.1h-8.7l2.9,6.1l0.1,0.2
			c-1.4,6.2-3,12.2-4.8,17.8c0,0.2-0.1,0.3-0.2,0.4c-26.9,85-96.3,112.4-96.3,112.4c-48.2-35.6-47.2-92-47.2-92V606l-9,2.7
			l-6.2,14.7c0,0-10.5,16.3-51.9,34.5c-7.1,3.1-14.8,7.1-22.7,11.6c-37.9,21.5-80,54.8-83.3,61.9c-0.3,0.7-0.7,1.9-1.1,3.5v0
			c-4.5,17.5-13.6,82.9-22.1,106.3c-5.3,14.6-13.7,22.6-19.8,26.8c0,0,0,0-0.1,0c-4.6,3.1-7.9,4.1-7.9,4.1
			c-0.7,3.6-1.3,7.1-1.8,10.7C974.9,994.8,1008.7,1070.8,1016.3,1076.1z"/>
		
			<linearGradient id="SVGID_00000152943424328729139850000003408655643451412913_" gradientUnits="userSpaceOnUse" x1="810.9092" y1="844.903" x2="989.3508" y2="844.903" gradientTransform="matrix(-1 0 0 1 2450 0)">
			<stop  offset="0" style="stop-color:#B2E8FF"/>
			<stop  offset="1" style="stop-color:#4964BB"/>
		</linearGradient>
		<path style="opacity:0.5;fill:url(#SVGID_00000152943424328729139850000003408655643451412913_);" d="M1460.6,864.7l33.6,11.3
			l5.4-6.2c0,0,33.3,75.8,63.5,112.9c3.6,4.4,7.4,8.8,11.3,13c8.4,9.1,17.4,17.6,26,25.1l25.6-110.5l13-83.9
			c-13.2-18-25.9-32.1-32-38.6c-2.4-2.5-3.7-3.9-3.7-3.9s4.2-13.7,7.1-25.6c0-0.3,0.1-0.6,0.2-0.9c0-0.1,0-0.3,0.1-0.4
			c0-0.2,0.1-0.3,0.1-0.3c1.7-7.3,2.8-13.6,1.8-15.2c-2.6-4.1-17.6-8.8-20.1-11.8c-2.6-3.1-13.4-55.2-21.6-60.9
			c0,0,5.4,50-23.2,113.5l-13.9,19.6l-40.8,32.7C1493,834.8,1477.5,855.3,1460.6,864.7z"/>
		
			<linearGradient id="SVGID_00000093148218682310191810000016663060026027281044_" gradientUnits="userSpaceOnUse" x1="805.39" y1="1050.1108" x2="805.39" y2="707.4783" gradientTransform="matrix(-1 0 0 1 2450 0)">
			<stop  offset="0" style="stop-color:#74A1EF"/>
			<stop  offset="1" style="stop-color:#AEB3F3"/>
		</linearGradient>
		<path style="fill:url(#SVGID_00000093148218682310191810000016663060026027281044_);" d="M1558,955.2
			c7.2,53.6,87.1,94.9,87.1,94.9c17.8,0,37.7-31,55.7-69.1c18-38.2,19.2-147.9,20.1-154.6c1-6.8,11-20.3,11.6-26.1
			c0.6-5.8-16.3-17.8-16.3-17.8l0.1-0.3l0.1-0.3c1.8-3.8,11.6-24.9,10.9-28.8c-0.8-4.2-19.7-13.5-19.7-13.5l-1.2,20.9
			c0,0-44-8.3-58.9-42.4l-2.6-10.5l-7.3,4.9v44.9c0,0-1.5,7-3.8,7s-19.5-8.6-23.1-7.4c-3.6,1.2-7.2,25.2-12,28.3
			c-4.8,3.1-17.6,12-19.5,16.3c-0.9,1.9-0.9,8.8-1,16.9c-0.1,10-0.2,21.7-1.7,28.3C1574,858.6,1550.8,901.6,1558,955.2z"/>
		
			<linearGradient id="SVGID_00000061471901443541985800000010969890290619450499_" gradientUnits="userSpaceOnUse" x1="1394.5814" y1="951.3598" x2="1624.4952" y2="951.3598" gradientTransform="matrix(-1 0 0 1 2450 0)">
			<stop  offset="0" style="stop-color:#81AAF1"/>
			<stop  offset="1" style="stop-color:#AEB3F3"/>
		</linearGradient>
		<path style="fill:url(#SVGID_00000061471901443541985800000010969890290619450499_);" d="M827.1,909.3
			c3.6,5.7,21.6,17.6,26.3,22.2c4.7,4.6,0,19.9,0,19.9c75.8,80.5,154.9,120.8,162.8,124.7c0.4,0.2,0.7,0.3,0.7,0.3
			c47.6-32,43.5-84.7,27.7-129.2c-15.1-42.6-41-77.6-42.1-79.1l0,0c0,0,0,0,0,0c-0.9-0.3-14.5-6-24.2-6.7c-3.2-0.2-6.2,1-8.9,2.8
			c-5.8,3.6-10.7,9.3-15.4,6.9c-7-3.5-22.6-40.4-33.2-41.4c-7.4-0.7-17.6,6.8-24.5,11.1c-3,1.9-5.3,3.1-6.5,2.8
			c-3.9-1-17-16.8-18.1-17.2c-1-0.4-7,4-7,4l4.2,5.2c-6.5,37.2-27.6,62.1-27.6,62.1l-14.2-20.7C827.1,876.9,823.5,903.6,827.1,909.3
			z"/>
		
			<linearGradient id="SVGID_00000128445956215803084610000002460689299322739114_" gradientUnits="userSpaceOnUse" x1="1477.198" y1="1076.4535" x2="1477.198" y2="731.3658" gradientTransform="matrix(-1 0 0 1 2450 0)">
			<stop  offset="0" style="stop-color:#B2E8FF"/>
			<stop  offset="1" style="stop-color:#4964BB"/>
		</linearGradient>
		<path style="opacity:0.5;fill:url(#SVGID_00000128445956215803084610000002460689299322739114_);" d="M827.1,909.3
			c3.6,5.7,21.6,17.6,26.3,22.2c4.7,4.6,0,19.9,0,19.9c75.8,80.5,154.9,120.8,162.8,124.7c0.4,0.2,0.7,0.3,0.7,0.3
			c6.2,0.8,36.4-7.7,66.6-68.1c27.4-54.7,35.2-91.2,36.5-97.6l0.2-1l-6.7-9l-9.9-111.4l-6.9,22.4c-26.3-31.7-51.1-80.4-51.1-80.4
			l-1.1,3.5v0c-4.5,17.5-13.6,82.9-22.1,106.3c-5.3,14.6-13.7,22.6-19.8,26.8l0,0.1l0,0c24.2,22.1,36.2,53.9,42.1,79.1
			c5.4,23.2,5.8,41,5.8,41s-6.7-31.4-27.8-69.3c-7.7-13.8-18.9-26.1-29.9-36.1c-8.3-7.6-16.6-14-23.4-18.7
			c-5.8,3.6-10.7,9.3-15.4,6.9c31.8,47.8,31.1,142.5,1.1,124.4c-29.9-18-36.7-56.4-36.7-56.4c7.1-46.7,5-99.3-0.7-109.3
			c-6.9,0.2-26.6,14.1-27.8,13.8c1.8,54.9-24,91.6-24,91.6l-17-26.3c24.8-41.8,22.9-82.4,22.9-82.4c-1-0.4-7,4-7,4l4.2,5.2
			c-6.5,37.2-27.6,62.1-27.6,62.1l-14.2-20.7C827.1,876.9,823.5,903.6,827.1,909.3z"/>
		
			<linearGradient id="SVGID_00000171695258888417168500000003752236712850286215_" gradientUnits="userSpaceOnUse" x1="717.4008" y1="1006.928" x2="1294.58" y2="1006.928" gradientTransform="matrix(-1 0 0 1 2450 0)">
			<stop  offset="0" style="stop-color:#B2E8FF"/>
			<stop  offset="1" style="stop-color:#4964BB"/>
		</linearGradient>
		<path style="opacity:0.5;fill:url(#SVGID_00000171695258888417168500000003752236712850286215_);" d="M1155.4,1252.8v16.3l0.3,0.3
			l0.9,0.8l0.7,0.6c7.3,5.8,38.5,24.8,135.9,30c115.4,6.2,192.2-31,192.2-31l-5.8-15.9c0,0,5.4-4.6,5.8-6.9c0.4-2.3-4.2-7.8-4.2-7.8
			s11.6-6.2,11.6-13.9c0-7-18.9-27.2-22-46.2c-0.4-2-0.5-4-0.4-6c0.8-20.4,18.4-38.5,20.9-50.1c0-0.1,0-0.2,0-0.2
			c2.3-11.6-30.2-40.2-30.2-40.2c27.8-88.2,33.3-206.6,33.3-206.6l5.4-6.2c0,0,33.3,75.8,63.5,112.9c30.2,37.2,74.3,68.9,82,67.3
			c17.8,0,37.7-31,55.7-69.1c18-38.2,19.2-147.9,20.1-154.6c1-6.8,11-20.3,11.6-26.1c-19.4,33.3-50.2,23.5-50.2,23.5
			c22.3,0.5,33.9-41.3,33.9-41.3l0.1-0.3l0.1-0.3l10.9-28.8c-1.2,1.4-26.7,29.9-51.4,12.3c-25.3-18-38.3-53-38.3-53v44.9
			c0,0-1.5,7-3.8,7c1.5,20.7,5.9,45.8,11.2,70.6c11.5,53.6,27.2,105.4,27.2,105.4s-42.6-23.2-57.6-82c-7.1-28.1-8.3-52.6-7.6-70.4
			c0.6-15.2,2.6-25.6,3.4-29.4c0-0.3,0.1-0.6,0.2-0.9c0-0.1,0-0.3,0.1-0.4c0-0.1,0-0.2,0-0.2l-4.1,8.7l-7.8,19.4
			c-9.1,75.5,9.7,189.2,9.7,189.2c-27.4-34.1-33-109.4-31.8-127.6c0.5-8.7,1.2-19.5,1.7-28.3c0.6-9.6,1-16.9,1-16.9l-56,33.4
			l10.3-32.7l-40.8,32.7c0,0-36.6,44.1-74.3,49.2c-37.6,5.2-175.9,2.1-175.9,2.1s120.2,7.7,155.2,18c35.1,10.3,41.8,22.2,41.8,22.2
			c-25.4,129-165.7,172.5-170.1,173.8c127.3-19.1,186.6-127.4,186.6-127.4s2.1,60.9-7.7,84.1c-9.8,23.2-67.6,80-141.9,91.8
			c-6.2,1-12.4,1.6-18.5,1.9c-62.6,2.9-114.5-29.1-119.8-32.5c-0.3-0.2-0.4-0.3-0.4-0.3s0,0.1,0.1,0.2c2,3.1,27.7,39.2,131.4,43.1
			c6.3,0.2,12.4,0.2,18.4,0c0,0,0.1,0,0.1,0c96.1-4,145.1-68.1,145.1-68.1s35.6,19.1,12.9,47.4c-0.2,0.3-0.5,0.6-0.7,0.9
			c-6.7,7.7-21.4,17.1-38.9,26.9c-0.5,0.3-1,0.6-1.4,0.8c-21.1,11.6-45.8,23.6-64.9,33.6c-0.1,0-0.2,0.1-0.3,0.1
			c-11.7,6.1-21.3,11.3-26.6,15.2c0,0,0,0,0,0c-5.4,3.9-6.5,6.5-1.2,7.1c26.8,3.1,128.4-19.1,132.5-12.9c4.1,6.2-5,22.2-5,22.2
			c-93.3,46.2-292.8,23.4-299.1,22.7c167,42.8,303.6-11.4,303.6-11.4l-4.5,16c0,0-74.4,25.8-162.1,27.8
			c-87.7,2-142.4-20.4-142.4-20.4L1155.4,1252.8z"/>
		
			<linearGradient id="SVGID_00000122681645610909372140000001835734796801958306_" gradientUnits="userSpaceOnUse" x1="1226.2467" y1="910.3447" x2="1336.5702" y2="910.3447" gradientTransform="matrix(-1 0 0 1 2450 0)">
			<stop  offset="0" style="stop-color:#B2FFD5"/>
			<stop  offset="1" style="stop-color:#4964BB"/>
		</linearGradient>
		<path style="opacity:0.5;fill:url(#SVGID_00000122681645610909372140000001835734796801958306_);" d="M1223.8,885.6
			c0,0-66.4,3.6-110.3,15.2l22.6,34.3C1136.1,935.1,1170.1,905.2,1223.8,885.6z"/>
		
			<linearGradient id="SVGID_00000041989485872499915630000011544251169117300614_" gradientUnits="userSpaceOnUse" x1="1126.1833" y1="1103.962" x2="1288.3167" y2="1103.962" gradientTransform="matrix(-1 0 0 1 2450 0)">
			<stop  offset="0" style="stop-color:#B2FFD5"/>
			<stop  offset="1" style="stop-color:#4964BB"/>
		</linearGradient>
		<path style="opacity:0.5;fill:url(#SVGID_00000041989485872499915630000011544251169117300614_);" d="M1161.7,1068.7
			c0,0,41.4,34.6,82.2,50.6c40.7,16,79.9,17.5,79.9,17.5s-23.4,7-81.1-2.3c-57.6-9.3-77.4-40.5-77.4-40.5L1161.7,1068.7z"/>
		
			<linearGradient id="SVGID_00000153705825076038660600000007028703856872326320_" gradientUnits="userSpaceOnUse" x1="1133.6917" y1="1177.2731" x2="1306.9117" y2="1177.2731" gradientTransform="matrix(-1 0 0 1 2450 0)">
			<stop  offset="0" style="stop-color:#B2FFD5"/>
			<stop  offset="1" style="stop-color:#4964BB"/>
		</linearGradient>
		<path style="opacity:0.5;fill:url(#SVGID_00000153705825076038660600000007028703856872326320_);" d="M1143.1,1201.8
			L1143.1,1201.8c76.7,19.8,174-8.6,173.2-12c-0.8-3.5-26.7,1.6-86.6-10.5c-58.1-11.6-79.2-32.3-80.4-33.6
			c0.5,3.5,8.5,11.2,10.8,19.6C1161.6,1171,1150.7,1188.6,1143.1,1201.8z"/>
		
			<linearGradient id="SVGID_00000029725833290326933880000006215040329044847248_" gradientUnits="userSpaceOnUse" x1="984.6141" y1="995.7617" x2="984.6141" y2="801.3542" gradientTransform="matrix(-1 0 0 1 2450 0)">
			<stop  offset="0" style="stop-color:#B2FFD5"/>
			<stop  offset="1" style="stop-color:#4964BB"/>
		</linearGradient>
		<path style="opacity:0.5;fill:url(#SVGID_00000029725833290326933880000006215040329044847248_);" d="M1351.4,896
			c65.5,6.7,83.1,24.9,83.1,24.9c18.4,2.3,59.8-44.8,59.8-44.8l5.4-6.2c0,0,33.3,75.8,63.5,112.9c3.6,4.4,7.4,8.8,11.3,13l-4.3-9.6
			c0,0-7-3.3-9.1-40.2c-2.1-36.8,15.5-91.8,15.6-99.3c0.1-7.5,2.7-45.3,2.7-45.3l-56,33.4l10.3-32.7l-40.8,32.7c0,0-16,24-56.3,44
			C1398.7,897.7,1356.1,896.2,1351.4,896z"/>
		
			<linearGradient id="SVGID_00000125589316537612148170000005504044849489638029_" gradientUnits="userSpaceOnUse" x1="1000.2652" y1="1012.104" x2="1000.2652" y2="864.7365" gradientTransform="matrix(-1 0 0 1 2450 0)">
			<stop  offset="0" style="stop-color:#B2FFD5"/>
			<stop  offset="1" style="stop-color:#4964BB"/>
		</linearGradient>
		<path style="opacity:0.5;fill:url(#SVGID_00000125589316537612148170000005504044849489638029_);" d="M1499.7,869.8l-39-5.1
			c0,0-15.6,10.3-46.9,23.1l26.1,38.5c0,0-10.4,54.9-40.1,85.8c0,0,78.9-43.8,90-80.7L1499.7,869.8z"/>
		
			<linearGradient id="SVGID_00000121281140351928202510000005805319288111921804_" gradientUnits="userSpaceOnUse" x1="767.3604" y1="823.7198" x2="767.3604" y2="712.3783" gradientTransform="matrix(-1 0 0 1 2450 0)">
			<stop  offset="0" style="stop-color:#B2FFD5"/>
			<stop  offset="1" style="stop-color:#4964BB"/>
		</linearGradient>
		<path style="opacity:0.5;fill:url(#SVGID_00000121281140351928202510000005805319288111921804_);" d="M1727.5,753l-11.1,29.4
			c0,0-11.4,39.6-33.9,41.3c-22.6,1.7-44.6-66.4-44.6-66.4v-44.9c0,0,24,51.5,49.9,57.3C1713.6,775.4,1727.5,753,1727.5,753z"/>
		
			<linearGradient id="SVGID_00000152259925799813696420000004215741733253337253_" gradientUnits="userSpaceOnUse" x1="857.4592" y1="725.6706" x2="902.3305" y2="725.6706" gradientTransform="matrix(-1 0 0 1 2450 0)">
			<stop  offset="0" style="stop-color:#B2FFD5"/>
			<stop  offset="1" style="stop-color:#4964BB"/>
		</linearGradient>
		<path style="opacity:0.5;fill:url(#SVGID_00000152259925799813696420000004215741733253337253_);" d="M1592.5,729.8
			c0,0-20.1,40.2-44.9,52.6c0,0,29.4-71.4,23.2-113.5C1570.9,668.9,1581.7,675.7,1592.5,729.8z"/>
		
			<linearGradient id="SVGID_00000161617273879128462230000002907835246395570572_" gradientUnits="userSpaceOnUse" x1="1345.2432" y1="995.7617" x2="1345.2432" y2="789.39" gradientTransform="matrix(-1 0 0 1 2450 0)">
			<stop  offset="0" style="stop-color:#B2E8FF"/>
			<stop  offset="1" style="stop-color:#4964BB"/>
		</linearGradient>
		<path style="opacity:0.76;fill:url(#SVGID_00000161617273879128462230000002907835246395570572_);" d="M1103.6,789.4l-6.9,22.4
			l-7,184c0,0,17.8-35,30.4-85l-6.5-10C1113.4,900.8,1102.5,831.4,1103.6,789.4z"/>
		
			<linearGradient id="SVGID_00000180361415537225674360000013906191403834087822_" gradientUnits="userSpaceOnUse" x1="1577.2607" y1="951.3758" x2="1577.2607" y2="843.535" gradientTransform="matrix(-1 0 0 1 2450 0)">
			<stop  offset="0" style="stop-color:#B2E8FF"/>
			<stop  offset="1" style="stop-color:#4964BB"/>
		</linearGradient>
		<path style="opacity:0.5;fill:url(#SVGID_00000180361415537225674360000013906191403834087822_);" d="M889.8,843.5
			c0,0,3.9,90.4-34.5,98.2l-1.9,9.7C853.4,951.4,903.1,949.5,889.8,843.5z"/>
		
			<linearGradient id="SVGID_00000078002418948626964200000013777970890497857154_" gradientUnits="userSpaceOnUse" x1="1454.9562" y1="946.5575" x2="1454.9562" y2="864.115" gradientTransform="matrix(-1 0 0 1 2450 0)">
			<stop  offset="0" style="stop-color:#B2E8FF"/>
			<stop  offset="1" style="stop-color:#4964BB"/>
		</linearGradient>
		<path style="opacity:0.3;fill:url(#SVGID_00000078002418948626964200000013777970890497857154_);" d="M953.9,871
			c0,0,1.5,3.2,15.4-6.9c0,0,48.3,34.2,66.9,82.4c0,0-29.8-44.3-45.6-49.1c-15.8-4.8-19.7,12.9-19.7,12.9S964.7,885.4,953.9,871z"/>
		
			<linearGradient id="SVGID_00000155828358237996511720000013105020290286222004_" gradientUnits="userSpaceOnUse" x1="744.0542" y1="830.8272" x2="744.0542" y2="800.2108" gradientTransform="matrix(-1 0 0 1 2450 0)">
			<stop  offset="0" style="stop-color:#B2FFD5"/>
			<stop  offset="1" style="stop-color:#4964BB"/>
		</linearGradient>
		<path style="opacity:0.5;fill:url(#SVGID_00000155828358237996511720000013105020290286222004_);" d="M1732.6,800.2
			c0,0-18.6,34.3-53.4,23.5c0,0,20.9,14.1,41.8,2.6C1721,826.3,1733.9,804.1,1732.6,800.2z"/>
		
			<linearGradient id="SVGID_00000037672132024340108870000016174168476016703666_" gradientUnits="userSpaceOnUse" x1="825.8386" y1="924.1682" x2="825.8386" y2="756.8458" gradientTransform="matrix(-1 0 0 1 2450 0)">
			<stop  offset="0" style="stop-color:#B2E8FF"/>
			<stop  offset="1" style="stop-color:#4964BB"/>
		</linearGradient>
		<path style="opacity:0.5;fill:url(#SVGID_00000037672132024340108870000016174168476016703666_);" d="M1610.9,756.8
			c0,0-25.6,95.5,41.1,167.3c0,0-43.3-22.2-53.1-73.7C1589.1,799,1610.9,756.8,1610.9,756.8z"/>
		
			<linearGradient id="SVGID_00000159428326121162839090000000628988650516019897_" gradientUnits="userSpaceOnUse" x1="1256.317" y1="806.3938" x2="1256.317" y2="680.4801" gradientTransform="matrix(-1 0 0 1 2450 0)">
			<stop  offset="0" style="stop-color:#B2FFD5"/>
			<stop  offset="1" style="stop-color:#4964BB"/>
		</linearGradient>
		<path style="opacity:0.5;fill:url(#SVGID_00000159428326121162839090000000628988650516019897_);" d="M1153,680.5
			c0,0,2.9,43.1,23.5,74.1c20.7,30.9,61.7,51.8,61.7,51.8s-51.4-19-75-45.6C1139.6,734.1,1153,680.5,1153,680.5z"/>
		
			<linearGradient id="SVGID_00000012472229952109180370000007075631910673456806_" gradientUnits="userSpaceOnUse" x1="1091.3594" y1="789.3729" x2="1091.3594" y2="615.5878" gradientTransform="matrix(-1 0 0 1 2450 0)">
			<stop  offset="0" style="stop-color:#B2FFD5"/>
			<stop  offset="1" style="stop-color:#4964BB"/>
		</linearGradient>
		<path style="opacity:0.5;fill:url(#SVGID_00000012472229952109180370000007075631910673456806_);" d="M1416.1,615.6
			c0,0,0,36.1-11.6,72.8c-11.6,36.8-112.3,101-112.3,101s103.8-43.1,123.9-81.9C1436.3,668.7,1416.1,615.6,1416.1,615.6z"/>
		
			<linearGradient id="SVGID_00000103242478864238214600000009105628137646340774_" gradientUnits="userSpaceOnUse" x1="1032.6791" y1="821.158" x2="1322.9408" y2="821.158" gradientTransform="matrix(-1 0 0 1 2450 0)">
			<stop  offset="0" style="stop-color:#4634A0"/>
			<stop  offset="1" style="stop-color:#427CC0"/>
		</linearGradient>
		<path style="fill:url(#SVGID_00000103242478864238214600000009105628137646340774_);" d="M1417.3,787.3v58.7
			c0,0-135.2-1.1-286.8,9l-3.5-52.9C1127.1,802.2,1258.9,786.5,1417.3,787.3z"/>
		
			<linearGradient id="SVGID_00000062885185921464231890000012313342870487828644_" gradientUnits="userSpaceOnUse" x1="1057.7058" y1="653.66" x2="1246.6008" y2="653.66" gradientTransform="matrix(-1 0 0 1 2450 0)">
			<stop  offset="0" style="stop-color:#B2E8FF"/>
			<stop  offset="1" style="stop-color:#4964BB"/>
		</linearGradient>
		<path style="opacity:0.5;fill:url(#SVGID_00000062885185921464231890000012313342870487828644_);" d="M1203.4,623.4
			c3.2,38,14.7,64.4,27.1,82.3c17,24.5,35.4,32.9,35.4,32.9c18.4-8,34.3-18,48-29c58.2-46.5,77-111.1,78.4-116.4
			c-24.6,59.4-60.7,95.3-88,115.6c-22,16.4-38.4,22.5-38.4,22.5v-19c4.4-1.6,8.6-3.5,12.7-5.6c48.2-24.3,73.5-74.9,85.3-107.7
			c0-0.1,0-0.1,0.1-0.2c6.4-17.7,8.9-30.2,8.9-30.2h-8.7l2.9,6.1l0.1,0.2c-1.4,6.2-3,12.2-4.8,17.8c0,0.2-0.1,0.3-0.2,0.4
			c-26.9,85-96.3,112.4-96.3,112.4c-48.2-35.6-47.2-92-47.2-92V606l-9,2.7L1203.4,623.4z"/>
		
			<linearGradient id="SVGID_00000024002947788628682270000006835175176824874147_" gradientUnits="userSpaceOnUse" x1="1543.3013" y1="939.0805" x2="1543.3013" y2="829.7635" gradientTransform="matrix(-1 0 0 1 2450 0)">
			<stop  offset="0" style="stop-color:#B2E8FF"/>
			<stop  offset="1" style="stop-color:#4964BB"/>
		</linearGradient>
		<path style="opacity:0.3;fill:url(#SVGID_00000024002947788628682270000006835175176824874147_);" d="M917.6,829.8
			c0,0,13.1,42.8,0.7,109.3c0,0-6.2-84.3-10.8-91.7c-4.6-7.4-17.6-3.9-17.6-3.9S910.3,832.2,917.6,829.8z"/>
		
			<linearGradient id="SVGID_00000176001916179559683170000009220496698234459782_" gradientUnits="userSpaceOnUse" x1="1388.7825" y1="1062.4017" x2="1388.7825" y2="731.3658" gradientTransform="matrix(-1 0 0 1 2450 0)">
			<stop  offset="0" style="stop-color:#B2E8FF"/>
			<stop  offset="1" style="stop-color:#4964BB"/>
		</linearGradient>
		<path style="opacity:0.5;fill:url(#SVGID_00000176001916179559683170000009220496698234459782_);" d="M1044.6,1062.4
			c11.4-10,25.2-26.7,38.8-54.1c27.4-54.7,35.2-91.2,36.5-97.6l-6.5-10l-8.7-84.1l-8.1-4.9c0,0-29-32.1-51.1-80.4
			c-0.3,0.7-0.7,1.9-1.1,3.5v0c-4.5,17.5-13.6,82.9-22.1,106.3c-5.3,14.6-13.7,22.6-19.8,26.8c0,0,50.3,74.6,52.7,127.8
			C1057.4,1044.2,1046.6,1060,1044.6,1062.4z"/>
		
			<linearGradient id="SVGID_00000041989755965140564080000002116327644666242458_" gradientUnits="userSpaceOnUse" x1="1032.8792" y1="1217.895" x2="1032.8792" y2="1122.9983" gradientTransform="matrix(-1 0 0 1 2450 0)">
			<stop  offset="0" style="stop-color:#B2E8FF"/>
			<stop  offset="1" style="stop-color:#4964BB"/>
		</linearGradient>
		<path style="opacity:0.5;fill:url(#SVGID_00000041989755965140564080000002116327644666242458_);" d="M1343.1,1217.9
			c0,0,90.6-14.9,127.6-38.7c0,0,0,0,0,0c-0.4-2-0.5-4-0.4-6c0.8-20.4,18.4-38.5,20.9-50.1c-0.4,1.1-3.1,7.2-15.9,18.3
			c-8.1,7-20.4,16-38.9,26.9c-0.5,0.3-1,0.6-1.4,0.8c-26.1,15.4-48.6,25.9-64.9,33.6c-0.1,0-0.2,0.1-0.3,0.1
			C1355.1,1209.5,1345.7,1214,1343.1,1217.9C1343.1,1217.9,1343.1,1217.9,1343.1,1217.9z"/>
		
			<linearGradient id="SVGID_00000049913632332097165420000008936864348921439388_" gradientUnits="userSpaceOnUse" x1="1217.2212" y1="1191.8273" x2="1217.2212" y2="1145.7426" gradientTransform="matrix(-1 0 0 1 2450 0)">
			<stop  offset="0" style="stop-color:#B2E8FF"/>
			<stop  offset="1" style="stop-color:#4964BB"/>
		</linearGradient>
		<path style="opacity:0.5;fill:url(#SVGID_00000049913632332097165420000008936864348921439388_);" d="M1149.3,1145.7
			c0.5,3.5,8.5,11.2,10.8,19.6c0,0,33.2,35.2,156.3,24.4c-0.8-3.5-26.7,1.6-86.6-10.5C1171.6,1167.7,1150.5,1147,1149.3,1145.7z"/>
		<g>
			<path class="st60" d="M1168.2,821c0.6,7.9-5.1,13.3-14.7,14.1c-1.7,0.1-3.3,0.3-5,0.4c0.2,2.8,0.4,5.6,0.7,8.4
				c-3.9,0.3-7.7,0.6-11.5,0.9c-0.9-11.4-1.8-22.8-2.7-34.2c5.5-0.4,11.1-0.9,16.6-1.3C1161.2,808.6,1167.6,813.1,1168.2,821z
				 M1156.5,821.9c-0.2-2.5-1.8-3.9-5-3.6c-1.4,0.1-2.8,0.2-4.2,0.3c0.2,2.7,0.4,5.3,0.6,8c1.4-0.1,2.8-0.2,4.2-0.3
				C1155.3,826,1156.7,824.4,1156.5,821.9z"/>
			<path class="st60" d="M1187.7,832.4c-1,0.1-2.1,0.1-3.1,0.2c0.2,2.9,0.4,5.7,0.6,8.6c-3.9,0.3-7.7,0.5-11.6,0.8
				c-0.8-11.4-1.6-22.8-2.5-34.2c5.5-0.4,11.1-0.8,16.6-1.2c9.6-0.7,16.1,3.9,16.6,11.9c0.3,4.9-1.8,8.8-5.8,11.2
				c2.6,3.4,5.3,6.7,7.9,10.1c-4.1,0.3-8.2,0.5-12.3,0.8C1191.9,837.9,1189.8,835.2,1187.7,832.4z M1187.6,815.6
				c-1.4,0.1-2.8,0.2-4.2,0.3c0.2,2.7,0.4,5.3,0.6,8c1.4-0.1,2.8-0.2,4.2-0.3c3.2-0.2,4.6-1.8,4.4-4.3
				C1192.4,816.8,1190.8,815.4,1187.6,815.6z"/>
			<path class="st60" d="M1207.6,822.6c-0.7-10.4,7.1-18.4,18.4-19.1c11.3-0.7,19.9,6.4,20.5,16.8c0.6,10.4-7.2,18.3-18.4,19
				C1216.9,839.9,1208.3,832.9,1207.6,822.6z M1234.7,820.9c-0.3-5.3-3.9-8.4-8.2-8.1c-4.3,0.3-7.5,3.7-7.2,9c0.3,5.3,4,8.3,8.2,8.1
				C1231.8,829.6,1235,826.2,1234.7,820.9z"/>
			<path class="st60" d="M1246.7,833.1c1.9-2.6,3.9-5.1,5.8-7.7c1.9,2.2,3.7,3.2,5.6,3.1c2.4-0.1,3.7-1.7,3.5-4.5
				c-0.2-4.3-0.4-8.7-0.7-13c-3.9,0.2-7.8,0.4-11.7,0.6c-0.2-2.9-0.3-5.8-0.5-8.7c7.7-0.4,15.5-0.8,23.2-1.2c0.3,7,0.7,14,1,21
				c0.5,9.4-4.3,14.2-13.5,14.7C1254.2,837.7,1249.7,836.2,1246.7,833.1z"/>
			<path class="st60" d="M1307.1,825.7c0.1,2.9,0.2,5.8,0.4,8.7c-9.5,0.4-19,0.8-28.5,1.3c-0.5-11.4-1.1-22.8-1.6-34.2
				c9.4-0.4,18.7-0.9,28.1-1.3c0.1,2.9,0.2,5.8,0.4,8.7c-5.5,0.2-11.1,0.5-16.6,0.7c0.1,1.3,0.1,2.7,0.2,4c4.9-0.2,9.7-0.4,14.6-0.6
				c0.1,2.8,0.2,5.5,0.3,8.3c-4.8,0.2-9.7,0.4-14.5,0.6c0.1,1.5,0.1,3,0.2,4.5C1295.7,826.2,1301.4,826,1307.1,825.7z"/>
			<path class="st60" d="M1309.9,817.2c-0.4-10.5,7.4-18.2,18.5-18.7c6.8-0.2,12.2,2,15.7,6.3c-2.4,2.3-4.8,4.5-7.1,6.8
				c-2.1-2.5-4.6-3.9-7.7-3.7c-4.8,0.2-8,3.6-7.8,8.9c0.2,5.2,3.6,8.4,8.4,8.3c3.1-0.1,5.4-1.7,7.4-4.3c2.5,2.1,5,4.2,7.5,6.3
				c-3.2,4.5-8.4,7.1-15.2,7.4C1318.7,834.8,1310.3,827.7,1309.9,817.2z"/>
			<path class="st60" d="M1354.9,807.4c-3.4,0.1-6.7,0.2-10.1,0.3c-0.1-3-0.2-6-0.3-9c10.6-0.3,21.3-0.7,31.9-0.9c0.1,3,0.1,6,0.2,9
				c-3.4,0.1-6.7,0.2-10.1,0.3c0.2,8.4,0.5,16.9,0.7,25.3c-3.9,0.1-7.7,0.2-11.6,0.3C1355.4,824.3,1355.1,815.8,1354.9,807.4z"/>
			<path class="st60" d="M1378,829.3c1.2-2.8,2.3-5.7,3.5-8.5c3.3,1.8,7.6,3,11.4,2.9c3.3-0.1,4.5-0.8,4.4-2
				c-0.1-4.3-19-0.4-19.3-13.2c-0.2-6.4,5.1-11.7,15.8-11.9c4.6-0.1,9.5,0.8,13.1,2.7c-1.1,2.8-2.2,5.6-3.3,8.4
				c-3.4-1.6-6.7-2.4-9.7-2.4c-3.4,0.1-4.5,1.1-4.4,2.3c0.1,4.1,19.1,0.3,19.3,12.9c0.1,6.3-5.1,11.6-15.8,11.9
				C1387.3,832.6,1381.5,831.4,1378,829.3z"/>
		</g>
	</g>
	<path class="st61" d="M1128.8,669.5l78.6,25.5l23,10.7l0.1,0l15,0l20.3,0l12.7,1l6.7,0.5l19.1,1.5l9.6,0.8l94.3-34.1l16.9-6.1
		l77.6-28.1c-2.3-0.9-4.6-1.8-7.1-2.8c-52.1-20.6-103.1-45.7-103.1-45.7l-19.6-24.1h-8.7c-7.8-17.1-13-33-16.3-45.6l-5.2-23.3
		c-0.4-2.2-0.5-3.5-0.5-3.5l-27.8,14.7l-93.6,74.9c0.1,5.1-0.1,9.7-0.4,13.6l-1.3,9.4c-0.2-1.8-0.3-2.9-0.3-2.9l-9,2.7l-6.2,14.7
		c0,0-10.5,16.3-51.9,34.5C1144.4,661,1136.7,665,1128.8,669.5z"/>
	<g>
		
			<linearGradient id="SVGID_00000116197011076913404680000009737350112234923965_" gradientUnits="userSpaceOnUse" x1="1215.1897" y1="599.4819" x2="1215.1897" y2="284.2201" gradientTransform="matrix(-1 0 0 1 2450 0)">
			<stop  offset="1.598750e-02" style="stop-color:#FFC2A9"/>
			<stop  offset="1" style="stop-color:#FF9595"/>
		</linearGradient>
		<path style="fill:url(#SVGID_00000116197011076913404680000009737350112234923965_);" d="M1188.7,597.8c0,0,36.7,8.2,77.1-11.4
			c40.5-19.6,74.5-77.4,76.6-91.8c2-14.5-15.5-52.1-15.5-81.5c0-29.4,14.4-80-9.8-107.3c-24.3-27.3-135.6-31.4-171.8,3.6
			c0,0-11.2,28.1-11.2,44c0,3.8,0.7,9.5,1.7,16c0.3,2.4,0.8,5,1.2,7.6c3.2,19.2,7.7,42.7,5.6,53c-0.7,3.6-1.9,6.9-3.2,10v0
			c-4.5,10.3-11.1,18.5-12.2,27.4C1125.6,479.1,1141.2,561.7,1188.7,597.8z"/>
		
			<linearGradient id="SVGID_00000160873996515611102550000003542678600904617122_" gradientUnits="userSpaceOnUse" x1="1097.6635" y1="472.2668" x2="1097.6635" y2="379.32" gradientTransform="matrix(-1 0 0 1 2450 0)">
			<stop  offset="1.598750e-02" style="stop-color:#FFC2A9"/>
			<stop  offset="1" style="stop-color:#FF9595"/>
		</linearGradient>
		<path style="fill:url(#SVGID_00000160873996515611102550000003542678600904617122_);" d="M1327.2,404.8c0,0,10-25.1,35.2-25.5
			c0,0,14.7,5.8,17,17c0,0-5.4,40.6-11.6,59.6c-6.2,19-28.9,16.2-28.9,16.2S1319.1,441.9,1327.2,404.8z"/>
		
			<linearGradient id="SVGID_00000016053334225674714950000013779665496426130867_" gradientUnits="userSpaceOnUse" x1="1259.0087" y1="507.4164" x2="1262.9058" y2="487.1253" gradientTransform="matrix(-1 0 0 1 2450 0)">
			<stop  offset="0" style="stop-color:#E1616A"/>
			<stop  offset="1" style="stop-color:#FF8883"/>
		</linearGradient>
		<path style="fill:url(#SVGID_00000016053334225674714950000013779665496426130867_);" d="M1230.6,487.5c0,0-8.4-0.7-12,2.1
			c-3.6,2.7-16.8,15.5-33.4,19c-16.6,3.5-27.8-10.7-31.3-11.4c-3.5-0.7-7.4,4.3-7.4,4.3s1.5-5.8,10.2-8.4c0,0,3.5,13.3,27.6,8.8
			c24.1-4.6,34.4-15.3,34.4-15.3l1.2-2.2C1219.8,484.3,1226.6,485.7,1230.6,487.5z"/>
		
			<linearGradient id="SVGID_00000124157305295256895160000006686359178365602196_" gradientUnits="userSpaceOnUse" x1="1223.8302" y1="491.891" x2="1223.8302" y2="288.7991" gradientTransform="matrix(-1 0 0 1 2450 0)">
			<stop  offset="0" style="stop-color:#FFEADB"/>
			<stop  offset="0.9944" style="stop-color:#C27CB6"/>
		</linearGradient>
		<path style="opacity:0.6;fill:url(#SVGID_00000124157305295256895160000006686359178365602196_);" d="M1266.2,362.6l-0.3-2.6
			c0,0-24-42.2-71.6-43.4c-47.6-1.2-58.3,28.7-58.3,28.7l-8.8-13.4l20.1-40.8l139.8-2.3l34,27.5l4.3,67.2l-15.1,88.8l-36.8,19.6
			l-10.4-9.2c3.8-29.7,25.9-56.9,25.9-56.9l-16.1-11.2c0,0-41.4,20-65.3,14c0,0-18-52.5-17-91.4
			C1190.5,337.2,1251.8,346.3,1266.2,362.6z"/>
		
			<linearGradient id="SVGID_00000012435705057999491430000017138221567647696803_" gradientUnits="userSpaceOnUse" x1="1181.7114" y1="348.8243" x2="1261.4973" y2="348.8243" gradientTransform="matrix(-1 0 0 1 2450 0)">
			<stop  offset="5.586590e-03" style="stop-color:#651D4F"/>
			<stop  offset="1" style="stop-color:#93364F"/>
		</linearGradient>
		<path style="fill:url(#SVGID_00000012435705057999491430000017138221567647696803_);" d="M1268.3,365.7c0,0-2.3-15.2-28-21.3
			c-28.6-6.8-51.8-12.5-51.8-12.5s5.1,16.7,14.6,22.9c0,0,30.2-1.1,45.5,2.4C1263.9,360.7,1268.3,365.7,1268.3,365.7z"/>
		
			<linearGradient id="SVGID_00000039824564342381771090000002910739045113283748_" gradientUnits="userSpaceOnUse" x1="1289.7531" y1="364.2488" x2="1315.9705" y2="364.2488" gradientTransform="matrix(-1 0 0 1 2450 0)">
			<stop  offset="5.586590e-03" style="stop-color:#651D4F"/>
			<stop  offset="1" style="stop-color:#93364F"/>
		</linearGradient>
		<path style="fill:url(#SVGID_00000039824564342381771090000002910739045113283748_);" d="M1135.9,345.3c0,0,14.5,11.2,24.4,37.9
			c0,0-9.5-12.4-18.2-12.2c-6,0.1-5,6-5,6S1131.1,361.1,1135.9,345.3z"/>
		
			<linearGradient id="SVGID_00000037666899944949773830000016666333723897899177_" gradientUnits="userSpaceOnUse" x1="1213.9321" y1="408.72" x2="1213.9321" y2="368.4886" gradientTransform="matrix(-1 0 0 1 2450 0)">
			<stop  offset="0" style="stop-color:#CF6074"/>
			<stop  offset="1" style="stop-color:#F37270"/>
		</linearGradient>
		<path style="fill:url(#SVGID_00000037666899944949773830000016666333723897899177_);" d="M1258.7,408.7c0,0-1.5-32.1-32.9-40.2
			c0,0-11.2,14.5-12.4,30.9C1213.4,399.4,1230.1,396.3,1258.7,408.7z"/>
		
			<linearGradient id="SVGID_00000066483921679580788380000016097130757430303650_" gradientUnits="userSpaceOnUse" x1="1294.1782" y1="421.4862" x2="1294.1782" y2="386.4769" gradientTransform="matrix(-1 0 0 1 2450 0)">
			<stop  offset="0" style="stop-color:#CF6074"/>
			<stop  offset="1" style="stop-color:#FF817F"/>
		</linearGradient>
		<path style="fill:url(#SVGID_00000066483921679580788380000016097130757430303650_);" d="M1169,421.5c0,0-2.5-25.6-17.2-35
			c0,0-10,7.5-9,28.9C1142.8,415.4,1151.5,412.2,1169,421.5z"/>
		<path class="st70" d="M1258.7,408.7c0,0-10.2,12.5-38.7,15c0,0-5.4-8.3-4.9-24.4C1215.1,399.2,1241.3,396.7,1258.7,408.7z"/>
		<path class="st70" d="M1169,421.5v3.7c0,0-4.4,9.2-20.1,10.7c0,0-5.1-7.9-5.5-20.7C1143.3,415.2,1153.3,412.7,1169,421.5z"/>
		<path class="st71" d="M1228.2,398.6c0,0,7.2,8.8,6.6,22.7c0,0-9.5,2.2-14.8,2.5c0,0-6.2-8.7-4.9-24.4
			C1215.1,399.2,1223.4,397.5,1228.2,398.6z"/>
		<path class="st71" d="M1154,415.7c0,0,4.1,4.4,4.9,17.8c0,0-5.6,2.4-10.1,2.4c0,0-5.7-8.1-5.5-20.7
			C1143.3,415.2,1147.3,413.7,1154,415.7z"/>
		<path class="st72" d="M1230.6,422.2c0,0,2.6-17.3-7.3-24l-8.1,1c0,0-2.7,13.7,4.9,24.4C1220,423.7,1228.1,422.8,1230.6,422.2z"/>
		<path class="st72" d="M1150.4,414.9c0,0,3.7,7.7,5.4,19.7c0,0-2.8,1.2-7,1.3c0,0-5.6-6.8-5.5-20.7
			C1143.3,415.2,1147.6,414.1,1150.4,414.9z"/>
		<path class="st73" d="M1258.7,408.7c0,0-19-11-51.3-4.7l6-4.5C1213.4,399.4,1236.5,392.3,1258.7,408.7z"/>
		<path class="st73" d="M1169,421.5c0,0-15.2-8.1-32.9-3.8l7.3-5.4C1143.3,412.3,1155.2,410.5,1169,421.5z"/>
		<path class="st10" d="M1238.2,408.7c0,0-5.2-1.1-9.8,3.6C1228.4,412.3,1234.8,414.1,1238.2,408.7z"/>
		<path class="st10" d="M1162,423.7c0,0-8.1-1.6-10.9,2.1C1151.1,425.8,1155.4,428.8,1162,423.7z"/>
		<path class="st74" d="M1256.8,410.6c0,0-14.7,14.6-38.3,18l-0.6-8.6l2.2,3.6C1220,423.7,1242.7,422.3,1256.8,410.6z"/>
		<path class="st74" d="M1169,425.2c0,0-2.6,9.4-21.8,13.7l0.6-4.6l1.1,1.6C1148.8,435.9,1162.5,434.2,1169,425.2z"/>
		<path class="st75" d="M1207.4,462.9c0,0-7.2-1.5-20.3,0c-13.2,1.5-27.9,5.2-36,0c0,0,10.7,10.7,20,12.4c9.3,1.6,23.5-6.5,23.5-6.5
			l6.2,0.1C1200.8,468.8,1205.6,466.5,1207.4,462.9z"/>
		<path class="st76" d="M1199.9,468.8c0,0-3.2-2.1-5.9-1.6c-2.7,0.5-5.5,4.5-5.5,4.5S1194.2,468.7,1199.9,468.8z"/>
		<path class="st31" d="M1151.1,462.9c-3.4-3.4,14.4-35,22.9-36.2c8.5-1.2,16.5,35.5,16.5,35.5s-11.8,1.7-23.3,3.2
			C1155.7,466.9,1151.1,462.9,1151.1,462.9z"/>
		
			<linearGradient id="SVGID_00000031191582646337617100000010493249436102388400_" gradientUnits="userSpaceOnUse" x1="1297.4729" y1="441.8575" x2="1297.4729" y2="363.0767" gradientTransform="matrix(-1 0 0 1 2450 0)">
			<stop  offset="0" style="stop-color:#FFEADB"/>
			<stop  offset="0.9944" style="stop-color:#C27CB6"/>
		</linearGradient>
		<path style="opacity:0.6;fill:url(#SVGID_00000031191582646337617100000010493249436102388400_);" d="M1138.4,363.1
			c4.8-0.6,21.8,20.1,21.8,20.1s10.8,33.5,8.7,43.4c-2.1,10-28.4,15.2-28.4,15.2l-1.1-1.8v0c1.3-3.1,2.5-6.5,3.2-10
			c2.1-10.3-2.4-33.8-5.6-53c0,0-1.1-4-1.2-7.6C1135.7,366.3,1136.2,363.3,1138.4,363.1z"/>
		
			<linearGradient id="SVGID_00000176021374371785372810000004404398920719338151_" gradientUnits="userSpaceOnUse" x1="1219.4207" y1="603.4466" x2="1219.4207" y2="221.1125" gradientTransform="matrix(-1 0 0 1 2450 0)">
			<stop  offset="5.586590e-03" style="stop-color:#651D4F"/>
			<stop  offset="1" style="stop-color:#93364F"/>
		</linearGradient>
		<path style="fill:url(#SVGID_00000176021374371785372810000004404398920719338151_);" d="M1130,490.2
			c0.6,3.8,13.7,86.4,51.9,111.4c0,0,0,0,0,0s34.6,8.5,87.2-11.1c0,0,59.1-33.9,73.4-90.7c0,0,3.3-13.4-3.7-27.7
			c0,0-9.9-4.2-14.5-30.3c-5.1-29,10.3-48.9,10.3-48.9s-2.1-15.7,2.5-33.5c4.7-17.8,13.4-35.1,9.6-47.7
			c-3.9-12.7-36.2-20.7-50.9-32.6c-2.6-2.1-4.7-4.1-6.5-6.1c0,0,0,0-0.1-0.1c0,0-0.2-0.1-0.2-0.2c-1.9-2-3.5-4-5.1-6l-1.6-1.9
			l-1.5-1.8c-4.4-5.1-9.7-9.9-20.9-15.2c-22.4-10.4-38.2-12-54.3-26.5c-0.1-0.1-0.2-0.2-0.2-0.2s-0.8,14.7,4.7,27.4
			c0,0-49.5-11.2-61.1-11.2s-15.5,37.1-15.5,37.1l0,0c-0.9,1.2-14.7,19.8-19.7,32.5c-2.7,6.9,21.2,55.7,21.2,55.7s-2.7-23.2,12-44.5
			l5.4,5c0,0,0.2-0.5,0.7-1.3c2.2-4.2,10.2-17.2,24.1-20.7c0,0,0,2.7,43.7-2c43.7-4.6,61.5-6.9,71.9,3.1
			c10.5,10.1,6.6,33.6-3.1,41.8c0,0,26.7,28.3,25.9,68.1c-0.7,38.3-29.7,66.8-42,71.6c-0.4,0.2-0.9,0.4-1.3,0.5
			c-11.4,3.1-17.1-17.3-83.8-8.5c-47.2,6.2-43.8,12.1-49.2,23.4C1137.7,502.2,1130.6,491.2,1130,490.2z M1143.3,515.2
			c-0.3-17.6,12.1-23.2,14.5-22.2c2.3,1,9.3,4.6,28.6,3.3c19.3-1.3,32.2-12.1,32.2-12.1s24.9,2.6,32.1,22.7
			c7.1,20.1-25.8,33.5-32.1,33c-6.2-0.5-21.6-18-21.6-18s-16.8-1.3-19.9,1.8c-3.1,3.1-5,26.6-14.3,28.1
			C1153.5,553.4,1143.5,527.4,1143.3,515.2z"/>
		<path class="st79" d="M1165.2,433.7c0,0-16.7,20.7-15.1,28.5c1.7,8.5,21.1,13.1,21.1,13.1s-15.5-5.3-18.7-13.1
			C1152.5,462.2,1156.5,446.5,1165.2,433.7z"/>
		
			<linearGradient id="SVGID_00000066512768934661959200000000453598306032798095_" gradientUnits="userSpaceOnUse" x1="1319.8422" y1="362.6817" x2="1319.8422" y2="274.4817" gradientTransform="matrix(-1 0 0 1 2450 0)">
			<stop  offset="0" style="stop-color:#FFEADB"/>
			<stop  offset="0.9944" style="stop-color:#8860C7"/>
		</linearGradient>
		<path style="opacity:0.6;fill:url(#SVGID_00000066512768934661959200000000453598306032798095_);" d="M1134.9,362.7
			c0,0-2.7-23.2,12-44.5c-11.8-21.1-13.5-43.7-13.5-43.7l0,0c-4,9.8-6.3,29-6.3,29l-13.4,3.5
			C1110.9,313.9,1134.9,362.7,1134.9,362.7z"/>
		
			<linearGradient id="SVGID_00000025438755937615531600000015294707827188346542_" gradientUnits="userSpaceOnUse" x1="1199.6506" y1="603.4466" x2="1199.6506" y2="221.1125" gradientTransform="matrix(-1 0 0 1 2450 0)">
			<stop  offset="0" style="stop-color:#CCC2DB"/>
			<stop  offset="0.9944" style="stop-color:#8860C7"/>
		</linearGradient>
		<path style="opacity:0.6;fill:url(#SVGID_00000025438755937615531600000015294707827188346542_);" d="M1153,321.9
			c2.2-4.2,10.2-17.2,24.1-20.7c0,0,0,2.7,43.7-2c43.7-4.6,61.5-6.9,71.9,3.1c10.5,10.1,6.6,33.6-3.1,41.8c0,0,26.7,28.3,25.9,68.1
			c-0.7,38.3-29.7,66.8-42,71.6l0.6,4.2c0,0-2.2,87.8-23.5,94.8c-21.3,6.9-65.6,3.3-69.7,7.5c-3.9,3.9,0.6,10.7,1,11.3c0,0,0,0,0,0
			s34.6,8.5,87.2-11.1c0,0,59.1-33.9,73.4-90.7c0,0,3.3-13.4-3.7-27.7c0,0-9.9-4.2-14.5-30.3c-5.1-29,10.3-48.9,10.3-48.9
			s-2.1-15.7,2.5-33.5c4.7-17.8,13.4-35.1,9.6-47.7c-24.7,3.9-41-9-41-9s-4.3-6-23.5-9.1c-19.2-3.1-96.1,4.7-96.1,4.7
			s7.7-6.4,24-10.7c15.4-4,67.8,0.7,73.4,1.1c-6-1.1-65.5-11.3-72.2-9.2c-7.2,2.1-32.9,13.9-32.9,13.9c2.3-11.8,25.4-40.2,25.4-40.2
			s32.5,0.6,53.8,5c19,4,29.4,12.7,31.4,14.5l-5.1-6l-1.6-1.9l-1.5-1.8l-7.4-1.3l-37.3-15.1c-12.5-6.7-28.6-23.3-30.5-25.3
			c-0.1-0.1-0.2-0.2-0.2-0.2s-0.8,14.7,4.7,27.4c-31.5-3.9-42.2-1.9-42.2-1.9C1153.5,266.9,1153,321.9,1153,321.9z"/>
		
			<linearGradient id="SVGID_00000178177006266480496650000013593170495472748161_" gradientUnits="userSpaceOnUse" x1="1225.2875" y1="603.356" x2="1225.2875" y2="586.9293" gradientTransform="matrix(-1 0 0 1 2450 0)">
			<stop  offset="0" style="stop-color:#776D7E"/>
			<stop  offset="1" style="stop-color:#9D68C2"/>
		</linearGradient>
		<path style="opacity:0.5;fill:url(#SVGID_00000178177006266480496650000013593170495472748161_);" d="M1269.1,590.5
			c0,0-19.3-4.6-48.5-3.4c-29.2,1.2-45.9,1.3-38.7,14.5C1182,601.6,1218.6,609.9,1269.1,590.5z"/>
		<path class="st83" d="M1167.8,246.6c0,0-17.7-6.9-24.7-5.8c0,0,2.8-3.7,5.7-4.5c2.9-0.8,61.2,12.2,61.2,12.2
			S1173.6,244.3,1167.8,246.6z"/>
		<path class="st83" d="M1203.8,253.2c0,0,1.4,19.3,7.6,26.3l72.2,9.2l21.2-3.7c0,0-8.2-3.5-17.2-14
			C1278.5,260.4,1231.4,250.1,1203.8,253.2z"/>
		<path class="st83" d="M1133.4,274.5c0,0-5.9,19-6.3,29l-13.4,3.5C1113.6,307,1117.7,292.7,1133.4,274.5z"/>
		
			<linearGradient id="SVGID_00000138570920608584055500000017650272401325858954_" gradientUnits="userSpaceOnUse" x1="1111.1993" y1="450.2376" x2="1069.5667" y2="399.2323" gradientTransform="matrix(-1 0 0 1 2450 0)">
			<stop  offset="0" style="stop-color:#FFEADB"/>
			<stop  offset="0.9944" style="stop-color:#B060F4"/>
		</linearGradient>
		<path style="opacity:0.8;fill:url(#SVGID_00000138570920608584055500000017650272401325858954_);" d="M1330.2,438.9
			c0,0,5.1-24.4,17.5-36.4c12.5-12.1,26.6-8.2,26.6-8.2s-3.9,45.2-7.9,56.2c-4.1,11-10.3,13.9-10.3,13.9s8.7-7.6,9.9-22.6
			c1.2-14.9,1.5-36-1.7-38.5c-3.3-2.5-16.6,7.3-16.6,7.3s4.2,5.1,6.7,18.5c2.5,13.3-6.8,23-10.3,22.8c-3.5-0.2,0.2-15.4-0.4-19.8
			C1343.2,427.7,1335.5,428.6,1330.2,438.9z"/>
		
			<linearGradient id="SVGID_00000015347609301103697990000002304853184241349007_" gradientUnits="userSpaceOnUse" x1="1115.5577" y1="443.6678" x2="1095.0732" y2="418.5717" gradientTransform="matrix(-1 0 0 1 2450 0)">
			<stop  offset="0" style="stop-color:#FFEADB"/>
			<stop  offset="0.9944" style="stop-color:#B060F4"/>
		</linearGradient>
		<path style="opacity:0.8;fill:url(#SVGID_00000015347609301103697990000002304853184241349007_);" d="M1342.6,408.6
			c0,0,13.6,8.9,12.1,27.3c-1.5,18.3-11.9,17.5-12,13.7c0-3.8,2-13.7,0.9-19.3c-1.1-5.6-10.1-3.1-10.1-3.1
			S1339.6,412.6,1342.6,408.6z"/>
		<path class="st83" d="M1256.7,286.8c0,0-20.6,7-43.2,9c-22.6,2-27.3,2.4-27.3,2.4s9.1-8.8,28.5-11.5
			C1234,284.2,1256.7,286.8,1256.7,286.8z"/>
		
			<linearGradient id="SVGID_00000157266495183735356090000008634681005508186545_" gradientUnits="userSpaceOnUse" x1="1292.7727" y1="502.8164" x2="1314.1576" y2="502.8164" gradientTransform="matrix(-1 0 0 1 2450 0)">
			<stop  offset="5.586590e-03" style="stop-color:#651D4F"/>
			<stop  offset="1" style="stop-color:#C46376"/>
		</linearGradient>
		<path style="fill:url(#SVGID_00000157266495183735356090000008634681005508186545_);" d="M1157,491.9c0,0-9.9,0-13.7,12.4
			c-3.1,9.9-3.9,18.4-3.9,18.4l-3.5-13.6c0,0,4.6-17.2,9.3-21.1c3.4-2.8,9.3-5.6,12.1-4.9L1157,491.9z"/>
		
			<linearGradient id="SVGID_00000166677011314268119020000017452692373722853043_" gradientUnits="userSpaceOnUse" x1="1266.3707" y1="486.9151" x2="1289.4358" y2="486.9151" gradientTransform="matrix(-1 0 0 1 2450 0)">
			<stop  offset="5.586590e-03" style="stop-color:#651D4F"/>
			<stop  offset="1" style="stop-color:#C46376"/>
		</linearGradient>
		<path style="fill:url(#SVGID_00000166677011314268119020000017452692373722853043_);" d="M1183.6,479.5l-1.7,14.7c0,0-12,1-20-2.3
			l-1.4-8.9C1160.6,483,1175.9,479.1,1183.6,479.5z"/>
	</g>
</g>
<g>
	<path class="st88" d="M1014.1,549.7l-13.1,374.8c-0.5,14.9-12.7,26.7-27.6,26.7H327.6c-15,0-27.3-12-27.6-27L291,545
		c-0.4-15.6,12.2-28.4,27.8-28.3l667.9,4.4C1002.2,521.2,1014.6,534.1,1014.1,549.7z"/>
	<g>
		<path class="st89" d="M299,924.2l-9-379.2c-0.2-7.8,2.7-15.2,8.2-20.8c5.5-5.6,12.9-8.5,20.6-8.6l667.9,4.4
			c7.8,0.1,15.1,3.2,20.5,8.8c5.4,5.6,8.2,13,8,20.8l-13.1,374.8c-0.5,15.5-13.1,27.6-28.6,27.6H327.6
			C311.9,952.2,299.3,939.9,299,924.2z M299.6,525.7c-5.1,5.2-7.8,12-7.6,19.3l9,379.2c0.3,14.3,12.3,26,26.6,26h645.7
			c14.4,0,26.1-11.3,26.6-25.7l13.1-374.8c0.3-7.2-2.4-14.1-7.4-19.3c-5-5.2-11.8-8.1-19-8.2l-667.9-4.4c-0.1,0-0.1,0-0.2,0
			C311.4,517.7,304.6,520.5,299.6,525.7z"/>
	</g>
	
		<linearGradient id="SVGID_00000025405608625356090760000013565600265667055021_" gradientUnits="userSpaceOnUse" x1="1436.4999" y1="542.8638" x2="2159.4888" y2="542.8638" gradientTransform="matrix(-1 0 0 1 2450 0)">
		<stop  offset="0" style="stop-color:#9D68C2"/>
		<stop  offset="1" style="stop-color:#AEC2FF"/>
	</linearGradient>
	<path style="opacity:0.6;fill:url(#SVGID_00000025405608625356090760000013565600265667055021_);" d="M1013.1,568.8H291.7
		l-1.2-19.8c-1-17.5,12.9-32.2,30.5-32l667.6,5.3c13.9,0.1,25.1,11.6,24.8,25.5L1013.1,568.8z"/>
	
		<linearGradient id="SVGID_00000029757324315624645620000007784193968236670084_" gradientUnits="userSpaceOnUse" x1="1583.5739" y1="815.93" x2="1583.5739" y2="597.8711" gradientTransform="matrix(-1 0 0 1 2450 0)">
		<stop  offset="0" style="stop-color:#CCEDFF"/>
		<stop  offset="1" style="stop-color:#9D68C2"/>
	</linearGradient>
	<polygon style="opacity:0.3;fill:url(#SVGID_00000029757324315624645620000007784193968236670084_);" points="976.8,599 
		976.8,815.9 756,815.9 756,597.9 	"/>
	
		<linearGradient id="SVGID_00000026144605975019713450000008015531218061876864_" gradientUnits="userSpaceOnUse" x1="1955.3973" y1="709.616" x2="1955.3973" y2="613.5653" gradientTransform="matrix(-1 0 0 1 2450 0)">
		<stop  offset="0" style="stop-color:#CCEDFF"/>
		<stop  offset="1" style="stop-color:#9D68C2"/>
	</linearGradient>
	<polygon style="opacity:0.3;fill:url(#SVGID_00000026144605975019713450000008015531218061876864_);" points="446.6,709.6 
		542.6,709.6 542.6,613.6 446.6,613.6 	"/>
	
		<linearGradient id="SVGID_00000075151662125337542040000007868897588466831542_" gradientUnits="userSpaceOnUse" x1="2068.7239" y1="709.616" x2="2068.7239" y2="613.5653" gradientTransform="matrix(-1 0 0 1 2450 0)">
		<stop  offset="0" style="stop-color:#CCEDFF"/>
		<stop  offset="1" style="stop-color:#9D68C2"/>
	</linearGradient>
	<polygon style="opacity:0.3;fill:url(#SVGID_00000075151662125337542040000007868897588466831542_);" points="333.3,709.6 
		429.3,709.6 429.3,613.6 333.3,613.6 	"/>
	
		<linearGradient id="SVGID_00000119105850279291065730000003803081995119043202_" gradientUnits="userSpaceOnUse" x1="1840.1771" y1="709.616" x2="1840.1771" y2="613.5653" gradientTransform="matrix(-1 0 0 1 2450 0)">
		<stop  offset="0" style="stop-color:#CCEDFF"/>
		<stop  offset="1" style="stop-color:#9D68C2"/>
	</linearGradient>
	<polygon style="opacity:0.3;fill:url(#SVGID_00000119105850279291065730000003803081995119043202_);" points="561.8,709.6 
		657.8,709.6 657.8,613.6 561.8,613.6 	"/>
	
		<rect x="333.3" y="765.6" transform="matrix(-1 -1.224647e-16 1.224647e-16 -1 912.128 1554.2457)" class="st95" width="245.6" height="23"/>
	
		<rect x="333.3" y="800.6" transform="matrix(-1 -1.224647e-16 1.224647e-16 -1 973.5601 1608.3857)" class="st95" width="307.1" height="7.1"/>
	
		<rect x="578.7" y="721.9" transform="matrix(-1 -1.224647e-16 1.224647e-16 -1 1216.0889 1450.8488)" class="st95" width="58.7" height="7.1"/>
	
		<rect x="465.2" y="721.9" transform="matrix(-1 -1.224647e-16 1.224647e-16 -1 989.205 1450.8488)" class="st95" width="58.7" height="7.1"/>
	
		<rect x="351.9" y="721.9" transform="matrix(-1 -1.224647e-16 1.224647e-16 -1 762.5523 1450.8488)" class="st95" width="58.7" height="7.1"/>
	
		<rect x="559.1" y="812.2" transform="matrix(-1 -1.224647e-16 1.224647e-16 -1 1216.921 1631.5289)" class="st95" width="98.8" height="7.1"/>
	
		<rect x="333.3" y="823.6" transform="matrix(-1 -1.224647e-16 1.224647e-16 -1 973.5601 1654.403)" class="st95" width="307.1" height="7.1"/>
	
		<rect x="333.3" y="835.1" transform="matrix(-1 -1.224647e-16 1.224647e-16 -1 991.0989 1677.2769)" class="st95" width="324.6" height="7.1"/>
	
		<rect x="333.3" y="846.5" transform="matrix(-1 -1.224647e-16 1.224647e-16 -1 991.0989 1700.1509)" class="st95" width="324.6" height="7.1"/>
	
		<rect x="333.3" y="892.8" transform="matrix(-1 -1.224647e-16 1.224647e-16 -1 973.5601 1792.6254)" class="st95" width="307.1" height="7.1"/>
	
		<rect x="333.3" y="904.2" transform="matrix(-1 -1.224647e-16 1.224647e-16 -1 991.0989 1815.4994)" class="st95" width="324.6" height="7.1"/>
	
		<rect x="333.3" y="915.6" transform="matrix(-1 -1.224647e-16 1.224647e-16 -1 991.0989 1838.373)" class="st95" width="324.6" height="7.1"/>
	
		<rect x="346.3" y="858" transform="matrix(-1 -1.224647e-16 1.224647e-16 -1 1004.1578 1723.025)" class="st95" width="311.5" height="7.1"/>
	
		<rect x="333.3" y="869.4" transform="matrix(-1 -1.224647e-16 1.224647e-16 -1 973.5601 1745.899)" class="st95" width="307.1" height="7.1"/>
	
		<rect x="394.9" y="880.8" transform="matrix(-1 -1.224647e-16 1.224647e-16 -1 1052.7065 1768.7729)" class="st95" width="263" height="7.1"/>
	<g>
		<path class="st96" d="M852.2,709.6c0-34.6,28.2-62.8,62.8-62.8c34.6,0,62.8,28.2,62.8,62.8c0,34.6-28.2,62.8-62.8,62.8
			C880.3,772.4,852.2,744.3,852.2,709.6z M856.2,709.6c0,32.4,26.3,58.7,58.7,58.7c32.4,0,58.7-26.3,58.7-58.7
			c0-32.4-26.3-58.7-58.7-58.7C882.6,650.9,856.2,677.2,856.2,709.6z"/>
	</g>
	
		<ellipse transform="matrix(0.9868 -0.1619 0.1619 0.9868 -102.8172 157.4976)" class="st10" cx="915" cy="709.6" rx="34.1" ry="34.1"/>
	<g>
		<path class="st96" d="M693.2,597.9c0-34.6,28.2-62.8,62.8-62.8c34.6,0,62.8,28.2,62.8,62.8c0,34.6-28.2,62.8-62.8,62.8
			C721.4,660.7,693.2,632.5,693.2,597.9z M697.3,597.9c0,32.4,26.3,58.7,58.7,58.7c32.4,0,58.7-26.3,58.7-58.7
			c0-32.4-26.3-58.7-58.7-58.7C723.6,539.1,697.3,565.5,697.3,597.9z"/>
	</g>
	<path class="st10" d="M723.9,597.9c0,17.7,14.4,32.1,32.1,32.1c17.7,0,32.1-14.4,32.1-32.1c0-17.7-14.4-32.1-32.1-32.1
		C738.3,565.7,723.9,580.1,723.9,597.9z"/>
	<g>
		<polygon class="st10" points="987.8,539.3 983.2,532.4 958.4,554.1 962.2,559.4 		"/>
		<polygon class="st10" points="957.8,539.3 962.4,532.4 987.2,554.1 983.4,559.4 		"/>
	</g>
	
		<rect x="309.2" y="537.1" transform="matrix(-1 -1.224647e-16 1.224647e-16 -1 840.6509 1085.3376)" class="st10" width="222.3" height="11.1"/>
</g>
<g>
	
		<linearGradient id="SVGID_00000084529940113409511530000005781341458778889904_" gradientUnits="userSpaceOnUse" x1="807.1446" y1="473.6152" x2="807.1446" y2="373.0754" gradientTransform="matrix(-1 0 0 1 2450 0)">
		<stop  offset="0" style="stop-color:#D93DE3"/>
		<stop  offset="1" style="stop-color:#FF6DBA"/>
	</linearGradient>
	<polygon style="fill:url(#SVGID_00000084529940113409511530000005781341458778889904_);" points="1701.3,376.2 1701.3,472.6 
		1585.9,473.6 1584.4,373.1 	"/>
	
		<linearGradient id="SVGID_00000059304599856601781050000004636434122576935323_" gradientUnits="userSpaceOnUse" x1="868.5983" y1="473.6152" x2="868.5983" y2="373.0754" gradientTransform="matrix(-1 0 0 1 2450 0)">
		<stop  offset="0" style="stop-color:#A242EA"/>
		<stop  offset="1" style="stop-color:#FE117E"/>
	</linearGradient>
	<polygon style="fill:url(#SVGID_00000059304599856601781050000004636434122576935323_);" points="1584.4,373.1 1576.9,385.7 
		1580.6,473.5 1585.9,473.6 	"/>
	<polygon class="st10" points="1680.7,408.7 1670.1,393.3 1612.4,441.6 1621.3,453.4 	"/>
	<polygon class="st10" points="1611,408.7 1621.6,393.3 1679.2,441.6 1670.4,453.4 	"/>
</g>
<g>
	
		<linearGradient id="SVGID_00000065754269161776140670000018183041039360281006_" gradientUnits="userSpaceOnUse" x1="789.6989" y1="1532.7607" x2="844.0679" y2="1099.87" gradientTransform="matrix(-1 0 0 1 2450 0)">
		<stop  offset="0" style="stop-color:#FF06DA"/>
		<stop  offset="1" style="stop-color:#7837A0"/>
	</linearGradient>
	<path style="opacity:0.81;fill:url(#SVGID_00000065754269161776140670000018183041039360281006_);" d="M1432.1,1511.6H1827
		c17.6,0,31.9-14,32.3-31.6l7.4-323.8c0.4-18.1-14.2-33.1-32.3-33.1h-411.1c-18.2,0-32.8,15-32.3,33.2l8.9,323.8
		C1400.3,1497.6,1414.6,1511.6,1432.1,1511.6z"/>
	<g>
		<path class="st100" d="M1398.8,1480.2l-8.9-323.8c-0.2-9.1,3.1-17.7,9.4-24.2c6.3-6.5,14.8-10.1,23.9-10.1h411.1
			c9.1,0,17.5,3.6,23.9,10c6.3,6.5,9.7,15,9.5,24.1l-7.4,323.8c-0.4,18-15.4,32.6-33.3,32.6h-394.8
			C1414,1512.6,1399.3,1498.3,1398.8,1480.2z M1423.3,1124.1c-8.5,0-16.5,3.4-22.4,9.5c-5.9,6.1-9.1,14.2-8.9,22.7l8.9,323.8
			c0.5,17.1,14.2,30.5,31.3,30.5H1827c16.9,0,30.9-13.7,31.3-30.6l7.4-323.8c0.2-8.5-3-16.5-8.9-22.6c-5.9-6.1-13.9-9.4-22.4-9.4
			H1423.3z"/>
	</g>
	<g>
		
			<rect x="1552.6" y="1189.3" transform="matrix(-1 -1.224647e-16 1.224647e-16 -1 3312.8298 2387.498)" class="st10" width="207.6" height="8.9"/>
		
			<rect x="1656.4" y="1210.9" transform="matrix(-1 -1.224647e-16 1.224647e-16 -1 3416.6482 2430.7458)" class="st10" width="103.8" height="8.9"/>
		
			<rect x="1656.4" y="1229" transform="matrix(-1 -1.224647e-16 1.224647e-16 -1 3416.6482 2466.8511)" class="st10" width="103.8" height="8.9"/>
		
			<rect x="1562.2" y="1229" transform="matrix(-1 -1.224647e-16 1.224647e-16 -1 3206.939 2466.8511)" class="st10" width="82.6" height="8.9"/>
		
			<rect x="1592.9" y="1247" transform="matrix(-1 -1.224647e-16 1.224647e-16 -1 3353.0933 2502.9563)" class="st10" width="167.4" height="8.9"/>
		
			<rect x="1700.7" y="1265.1" transform="matrix(-1 -1.224647e-16 1.224647e-16 -1 3460.8933 2539.0615)" class="st10" width="59.6" height="8.9"/>
		
			<rect x="1585.4" y="1319.2" transform="matrix(-1 -1.224647e-16 1.224647e-16 -1 3273.7903 2647.3772)" class="st10" width="103" height="8.9"/>
		
			<rect x="1573.5" y="1283.1" transform="matrix(-1 -1.224647e-16 1.224647e-16 -1 3333.751 2575.1667)" class="st10" width="186.7" height="8.9"/>
		
			<rect x="1616.6" y="1301.2" transform="matrix(-1 -1.224647e-16 1.224647e-16 -1 3376.8193 2611.272)" class="st10" width="143.6" height="8.9"/>
		
			<rect x="1692.7" y="1319.2" transform="matrix(-1 -1.224647e-16 1.224647e-16 -1 3452.8984 2647.3772)" class="st10" width="67.6" height="8.9"/>
		
			<rect x="1656.4" y="1337.3" transform="matrix(-1 -1.224647e-16 1.224647e-16 -1 3416.6482 2683.4827)" class="st10" width="103.8" height="8.9"/>
		
			<rect x="1730.4" y="1355.4" transform="matrix(-1 -1.224647e-16 1.224647e-16 -1 3490.6799 2719.5881)" class="st10" width="29.8" height="8.9"/>
		
			<rect x="1610.1" y="1355.4" transform="matrix(-1 -1.224647e-16 1.224647e-16 -1 3328.3352 2719.5881)" class="st10" width="108.1" height="8.9"/>
		
			<rect x="1585.4" y="1372.9" transform="matrix(-1 -1.224647e-16 1.224647e-16 -1 3273.7903 2754.6265)" class="st10" width="103" height="8.9"/>
		
			<rect x="1692.7" y="1372.9" transform="matrix(-1 -1.224647e-16 1.224647e-16 -1 3452.8984 2754.6265)" class="st10" width="67.6" height="8.9"/>
		
			<rect x="1656.4" y="1390.9" transform="matrix(-1 -1.224647e-16 1.224647e-16 -1 3416.6482 2790.7317)" class="st10" width="103.8" height="8.9"/>
		
			<rect x="1730.4" y="1409" transform="matrix(-1 -1.224647e-16 1.224647e-16 -1 3490.6799 2826.8369)" class="st10" width="29.8" height="8.9"/>
		
			<rect x="1610.1" y="1409" transform="matrix(-1 -1.224647e-16 1.224647e-16 -1 3328.3352 2826.8369)" class="st10" width="108.1" height="8.9"/>
	</g>
</g>
<linearGradient id="SVGID_00000003075248218407255890000006427379442499175818_" gradientUnits="userSpaceOnUse" x1="2059.0168" y1="462.6756" x2="2059.0168" y2="426.182" gradientTransform="matrix(-1 0 0 1 2450 0)">
	<stop  offset="0" style="stop-color:#459FFF"/>
	<stop  offset="1" style="stop-color:#A96DFF"/>
</linearGradient>
<path style="fill:url(#SVGID_00000003075248218407255890000006427379442499175818_);" d="M372.7,444.4c0,10.1,8.2,18.2,18.2,18.2
	c10.1,0,18.2-8.2,18.2-18.2c0-10.1-8.2-18.2-18.2-18.2C380.9,426.2,372.7,434.4,372.7,444.4z"/>
<linearGradient id="SVGID_00000149345602369405727360000001543846438491702407_" gradientUnits="userSpaceOnUse" x1="344.0441" y1="890.3231" x2="344.0441" y2="844.9029" gradientTransform="matrix(-1 0 0 1 2450 0)">
	<stop  offset="0" style="stop-color:#459FFF"/>
	<stop  offset="1" style="stop-color:#A96DFF"/>
</linearGradient>
<path style="fill:url(#SVGID_00000149345602369405727360000001543846438491702407_);" d="M2083.2,867.6c0,12.5,10.2,22.7,22.7,22.7
	c12.5,0,22.7-10.2,22.7-22.7c0-12.5-10.2-22.7-22.7-22.7C2093.4,844.9,2083.2,855.1,2083.2,867.6z"/>
<linearGradient id="SVGID_00000048469256627094957610000003322481508820984972_" gradientUnits="userSpaceOnUse" x1="2112.6113" y1="462.6756" x2="2112.6113" y2="426.182" gradientTransform="matrix(-1 0 0 1 2450 0)">
	<stop  offset="0" style="stop-color:#B31A8F"/>
	<stop  offset="1" style="stop-color:#FE117E"/>
</linearGradient>
<circle style="fill:url(#SVGID_00000048469256627094957610000003322481508820984972_);" cx="337.4" cy="444.4" r="18.2"/>
<linearGradient id="SVGID_00000107562181290727894190000003852833919258124967_" gradientUnits="userSpaceOnUse" x1="935.9135" y1="582.7962" x2="935.9135" y2="556.9912" gradientTransform="matrix(-1 0 0 1 2450 0)">
	<stop  offset="0" style="stop-color:#B31A8F"/>
	<stop  offset="1" style="stop-color:#FE117E"/>
</linearGradient>
<circle style="fill:url(#SVGID_00000107562181290727894190000003852833919258124967_);" cx="1514.1" cy="569.9" r="12.9"/>
<linearGradient id="SVGID_00000150062293730444379710000003526405491152994184_" gradientUnits="userSpaceOnUse" x1="1800.178" y1="1152.1664" x2="1800.178" y2="1126.3615" gradientTransform="matrix(-1 0 0 1 2450 0)">
	<stop  offset="0" style="stop-color:#8642A0"/>
	<stop  offset="1" style="stop-color:#6456C0"/>
</linearGradient>
<circle style="fill:url(#SVGID_00000150062293730444379710000003526405491152994184_);" cx="649.8" cy="1139.3" r="12.9"/>
<linearGradient id="SVGID_00000114760851820787286250000004096095157119254442_" gradientUnits="userSpaceOnUse" x1="458.7148" y1="1279.4419" x2="458.7148" y2="1256.3727" gradientTransform="matrix(-1 0 0 1 2450 0)">
	<stop  offset="0" style="stop-color:#8642A0"/>
	<stop  offset="1" style="stop-color:#6456C0"/>
</linearGradient>
<circle style="fill:url(#SVGID_00000114760851820787286250000004096095157119254442_);" cx="1991.3" cy="1267.9" r="11.5"/>
<g>
	
		<linearGradient id="SVGID_00000140011583126937753660000017713961586946308787_" gradientUnits="userSpaceOnUse" x1="555.5095" y1="1154.6499" x2="555.5095" y2="964.1109" gradientTransform="matrix(-1 0 0 1 2450 0)">
		<stop  offset="0" style="stop-color:#0683E3"/>
		<stop  offset="1" style="stop-color:#6DE2FF"/>
	</linearGradient>
	<path style="opacity:0.73;fill:url(#SVGID_00000140011583126937753660000017713961586946308787_);" d="M1794.6,1154.6h199.3
		c16,0,29.2-12.7,29.7-28.7l4.4-131.1c0.6-16.8-12.9-30.7-29.7-30.7h-207.7c-16.8,0-30.2,13.9-29.7,30.6l4,131.1
		C1765.4,1141.9,1778.6,1154.6,1794.6,1154.6z"/>
	<g>
		<path class="st108" d="M1763.9,1125.9l-4-131.1c-0.3-8.4,2.8-16.3,8.7-22.4c5.8-6,13.7-9.3,22.1-9.3h207.7
			c8.4,0,16.3,3.3,22.1,9.4c5.8,6,8.9,14,8.6,22.4l-4.4,131.1c-0.6,16.7-14.1,29.7-30.7,29.7h-199.3
			C1777.9,1155.7,1764.4,1142.6,1763.9,1125.9z M1790.6,965.1c-7.8,0-15.2,3.1-20.6,8.7c-5.5,5.6-8.3,13-8.1,20.9l4,131.1
			c0.5,15.6,13.1,27.8,28.7,27.8h199.3c15.6,0,28.2-12.2,28.7-27.8l4.4-131.1c0.3-7.8-2.6-15.3-8.1-20.9c-5.5-5.6-12.8-8.8-20.6-8.8
			H1790.6z"/>
	</g>
	<g>
		<polygon class="st10" points="1940.8,1011.2 1989.9,1068.1 1939.9,1110.6 1939.9,1088.7 1968.8,1063.6 1941.9,1033.2 		"/>
	</g>
	<g>
		<polygon class="st10" points="1854.4,1013.8 1805.3,1070.7 1855.3,1113.2 1855.3,1091.3 1826.4,1066.2 1858.6,1032.1 		"/>
	</g>
	<g>
		<polygon class="st10" points="1930.1,1110.6 1887.3,1016.3 1867.2,1016.3 1915.6,1110.6 		"/>
	</g>
</g>
<g>
	
		<linearGradient id="SVGID_00000089557199491949113000000008802223031684123809_" gradientUnits="userSpaceOnUse" x1="1871.1224" y1="1424.3545" x2="1871.1224" y2="1185.993" gradientTransform="matrix(-1 0 0 1 2450 0)">
		<stop  offset="0" style="stop-color:#0683E3"/>
		<stop  offset="1" style="stop-color:#6DE2FF"/>
	</linearGradient>
	<path style="opacity:0.73;fill:url(#SVGID_00000089557199491949113000000008802223031684123809_);" d="M454,1424.4h249.3
		c20.1,0,36.5-15.9,37.2-35.9l5.5-164c0.7-21-16.1-38.5-37.2-38.5H449c-21,0-37.8,17.4-37.2,38.3l5,164
		C417.4,1408.4,433.9,1424.4,454,1424.4z"/>
	<g>
		<path class="st108" d="M415.8,1388.3l-5-164c-0.3-10.4,3.5-20.3,10.8-27.8c7.3-7.5,17-11.6,27.4-11.6h259.8
			c10.5,0,20.2,4.1,27.5,11.7c7.3,7.5,11.1,17.4,10.7,27.9l-5.5,164c-0.7,20.7-17.5,36.9-38.2,36.9H454
			C433.2,1425.4,416.4,1409.1,415.8,1388.3z M449,1187c-9.9,0-19.1,3.9-26,11c-6.9,7.1-10.5,16.4-10.2,26.3l5,164
			c0.6,19.7,16.5,35.1,36.2,35.1h249.3c19.6,0,35.5-15.4,36.2-35l5.5-164c0.3-9.9-3.3-19.3-10.1-26.4c-6.9-7.1-16.1-11-26-11H449z"
			/>
	</g>
	
		<rect x="467.7" y="1212.4" transform="matrix(-1 -1.224647e-16 1.224647e-16 -1 1163.7418 2560.3655)" class="st95" width="228.3" height="135.6"/>
	<polygon class="st10" points="602.1,1246 602.1,1314.3 543.7,1277.1 	"/>
	
		<rect x="467.7" y="1373" transform="matrix(-1 -1.224647e-16 1.224647e-16 -1 1163.7418 2758.3369)" class="st95" width="228.3" height="12.4"/>
	<rect x="636.9" y="1373" class="st10" width="59.1" height="12.4"/>
</g>
<g>
	<g>
		
			<linearGradient id="SVGID_00000062893271562367859350000014252179988873684363_" gradientUnits="userSpaceOnUse" x1="1667.9777" y1="1171.652" x2="1647.6677" y2="997.3303" gradientTransform="matrix(-0.9656 0.26 0.26 0.9656 2194.1267 -273.9562)">
			<stop  offset="0" style="stop-color:#1852A0"/>
			<stop  offset="1" style="stop-color:#067ED3"/>
		</linearGradient>
		<path style="fill-rule:evenodd;clip-rule:evenodd;fill:url(#SVGID_00000062893271562367859350000014252179988873684363_);" d="
			M875.2,1203.6l-11.9-34.1C859.1,1172.6,868.6,1184.8,875.2,1203.6z M887.1,1237.7l-11.9-34.1
			C881.8,1222.5,884.1,1236.8,887.1,1237.7z M875.2,1203.6l-11.9-34.1C859.1,1172.6,868.6,1184.8,875.2,1203.6z M887.1,1237.7
			l-11.9-34.1C881.8,1222.5,884.1,1236.8,887.1,1237.7z M843.1,1237.2c2.9,4.8,6.1,9.2,9.5,13.1l-5.6,16l24,18.2l2.4-18
			c4.9,2.2,9.9,3.4,14.8,3.4l2.3,8.3l3.3,12.1l21.5-8.4l-8.2-19c3.7-3.2,6.8-7.3,9.2-12.2l13.4,12.8l6.4-30l-14-8.8
			c0.2-6.6-0.3-13.6-1.8-20.8l13.4-2.2l-12.5-34.1l-11.6,6.5c-3.4-6.4-7.4-12.1-11.7-17.1l5.6-16l-24-18.2l-2.4,18.1
			c-4.9-2.2-9.9-3.4-14.8-3.5l-5.2-19.1l0,0l-21.8,7.1l8.2,18.9c-0.8,0.7-1.6,1.5-2.3,2.3c-2.7,2.8-5,6.2-6.9,10l-13.4-12.8l-6.4,30
			l14,8.8c-0.2,5.4,0.2,11.1,1.1,17c0.2,1.3,0.4,2.5,0.6,3.8l-13.4,2.2l12.5,34.1l11.6-6.6C841.5,1234.5,842.3,1235.9,843.1,1237.2z
			 M863.3,1169.5c11.9-4.2,27,7.7,33.6,26.5c6.6,18.8,2.2,37.4-9.7,41.7c-11.9,4.2-5.3-15.2-11.9-34.1
			C868.6,1184.8,851.3,1173.7,863.3,1169.5z M875.2,1203.6l-11.9-34.1C859.1,1172.6,868.6,1184.8,875.2,1203.6z M887.1,1237.7
			l-11.9-34.1C881.8,1222.5,884.1,1236.8,887.1,1237.7z"/>
	</g>
	
		<linearGradient id="SVGID_00000163061156689684019440000005150209197292867748_" gradientUnits="userSpaceOnUse" x1="1648.2903" y1="1172.3121" x2="1648.2903" y2="993.6889" gradientTransform="matrix(-0.9656 0.26 0.26 0.9656 2194.1267 -273.9562)">
		<stop  offset="0" style="stop-color:#1852A0"/>
		<stop  offset="1" style="stop-color:#067ED3"/>
	</linearGradient>
	<path style="fill-rule:evenodd;clip-rule:evenodd;fill:url(#SVGID_00000163061156689684019440000005150209197292867748_);" d="
		M843.1,1237.2l18.8,11.6l-14.9,17.5l24,18.2l19.5-6.3l11.4-3.7l-3.1,5.9l-4.9,9.9l30.8-10l21.5-8.4l-6.9-16l21.3-2.3l-11.1-40.5
		l-22.5-62.3l7.3-19.7l-24-18.2l-18.7,8.9l-4-14.7l-21.5,8.4l-9,2.9l-21.8,7.1l10.7,21.9l5.7-13.5l-30.8,10l-4.7,29.2l14.1,6.9
		l1.3,18.8l-2.1,1l-12.7,6l12.5,34.1L843.1,1237.2z M887.1,1237.7l-11.9-34.1l-11.9-34.1c11.9-4.2,27,7.7,33.6,26.5
		C903.5,1214.8,899.1,1233.5,887.1,1237.7z"/>
	<g>
		
			<linearGradient id="SVGID_00000088113599106640841320000007942465708961120651_" gradientUnits="userSpaceOnUse" x1="1613.1826" y1="1068.7341" x2="1600.0455" y2="955.9775" gradientTransform="matrix(-0.9438 0.3306 0.5202 1.4851 1895.7157 -841.026)">
			<stop  offset="0" style="stop-color:#188DC1"/>
			<stop  offset="1" style="stop-color:#06BFE7"/>
		</linearGradient>
		<path style="fill-rule:evenodd;clip-rule:evenodd;fill:url(#SVGID_00000088113599106640841320000007942465708961120651_);" d="
			M871.6,1223.1c3.4,6.4,7.4,12.2,11.7,17.1l-5.5,16l24,18.2l2.4-18c4.9,2.2,9.9,3.4,14.8,3.5l5.6,20.4l21.5-8.4l-8.2-19
			c3.7-3.2,6.8-7.3,9.2-12.3l13.4,12.8l6.4-30l-14-8.8c0.2-6.6-0.4-13.6-1.8-20.8l13.4-2.2l-12.5-34.1l-11.6,6.5
			c-3.4-6.4-7.4-12.2-11.7-17.1l5.5-16l-24-18.2l-2.4,18c-4.9-2.2-9.9-3.4-14.8-3.5l-5.6-20.4l-21.5,8.4l8.2,19
			c-3.7,3.2-6.8,7.3-9.2,12.3l-13.4-12.8l-6.4,30l14,8.8c-0.2,6.6,0.4,13.6,1.8,20.8l-13.4,2.2l12.5,34.1L871.6,1223.1z
			 M884.4,1201.2c-6.6-18.8-2.2-37.5,9.7-41.7c12-4.2,27,7.7,33.6,26.5c6.6,18.8,2.2,37.5-9.7,41.7
			C906,1231.8,891,1220,884.4,1201.2z"/>
	</g>
	<polygon class="st113" points="814.3,1173.8 845.1,1163.8 859.1,1172.6 828.3,1182.6 	"/>
	<polygon class="st114" points="847,1266.3 877.8,1256.2 883.3,1240.2 852.5,1250.3 	"/>
	<polygon class="st113" points="874.1,1134.3 857.2,1139.2 851.5,1133.7 840.3,1137.4 835.1,1125.4 865.9,1115.3 	"/>
	<path class="st113" d="M919,1259.8l-16.1,6.7l1.3-10.2C904.2,1256.4,912.9,1261,919,1259.8z"/>
	<path class="st113" d="M916.5,1167.4l-27.2,14.4c0,0-3.9-5.3-7-7.4C882.4,1174.4,889.5,1144.4,916.5,1167.4z"/>
</g>
<polygon class="st115" points="1540.3,150.9 1514.1,203.4 1531.6,211.4 1556.1,163.2 "/>
<polygon class="st116" points="2130.1,1373.2 2105.9,1399.8 2096.4,1388.9 2119.2,1363.7 "/>
<polygon class="st117" points="897.9,471.1 922.3,485.9 932.1,467.3 905.4,451.8 "/>
<polygon class="st117" points="777.6,1409.1 812.6,1433.9 822.4,1415.4 788.4,1395.5 "/>
<g>
	
		<linearGradient id="SVGID_00000072959214927194616950000004676426696955694493_" gradientUnits="userSpaceOnUse" x1="1683.7675" y1="359.7313" x2="1730.0378" y2="187.8914" gradientTransform="matrix(-1 0 0 1 2450 0)">
		<stop  offset="0" style="stop-color:#188DC1"/>
		<stop  offset="1" style="stop-color:#06BFE7"/>
	</linearGradient>
	
		<polygon style="fill-rule:evenodd;clip-rule:evenodd;fill:url(#SVGID_00000072959214927194616950000004676426696955694493_);" points="
		823.9,344.2 829.8,206.8 649.8,206.8 657.2,343.8 	"/>
	
		<linearGradient id="SVGID_00000138554823674372243150000008510151945698627205_" gradientUnits="userSpaceOnUse" x1="1604.2338" y1="339.9075" x2="1638.7386" y2="211.7629" gradientTransform="matrix(-1 0 0 1 2450 0)">
		<stop  offset="0" style="stop-color:#1852A0"/>
		<stop  offset="1" style="stop-color:#067ED3"/>
	</linearGradient>
	
		<polygon style="fill-rule:evenodd;clip-rule:evenodd;fill:url(#SVGID_00000138554823674372243150000008510151945698627205_);" points="
		829.8,206.8 835.2,214.9 829.8,344.2 823.9,344.2 	"/>
	<polygon class="st10" points="770,234.2 798.3,231.2 794.4,325.4 770,323 770,313.2 784.1,313.6 785.8,240.9 770,241.4 	"/>
	<polygon class="st10" points="712.2,234.2 684,231.2 687.8,325.4 712.2,323 712.2,313.2 698.1,313.6 696.5,240.9 712.2,241.4 	"/>
</g>
<g>
	
		<linearGradient id="SVGID_00000039133423972549796890000012564893174046520995_" gradientUnits="userSpaceOnUse" x1="1710.6688" y1="655.664" x2="1742.2124" y2="538.5169" gradientTransform="matrix(1 0 0 1 393.3441 0)">
		<stop  offset="0" style="stop-color:#188DC1"/>
		<stop  offset="1" style="stop-color:#06BFE7"/>
	</linearGradient>
	
		<polygon style="fill-rule:evenodd;clip-rule:evenodd;fill:url(#SVGID_00000039133423972549796890000012564893174046520995_);" points="
		2064.7,645.1 2060.7,551.4 2183.4,551.4 2178.3,644.8 	"/>
	
		<linearGradient id="SVGID_00000017518813589325289800000002923951684254581920_" gradientUnits="userSpaceOnUse" x1="1656.4489" y1="642.1497" x2="1679.9716" y2="554.7906" gradientTransform="matrix(1 0 0 1 393.3441 0)">
		<stop  offset="0" style="stop-color:#1852A0"/>
		<stop  offset="1" style="stop-color:#067ED3"/>
	</linearGradient>
	
		<polygon style="fill-rule:evenodd;clip-rule:evenodd;fill:url(#SVGID_00000017518813589325289800000002923951684254581920_);" points="
		2060.7,551.4 2057,556.9 2060.7,645.1 2064.7,645.1 	"/>
	<path class="st10" d="M2108,570.2c0,0-13.4-0.5-15.8,0.6c-2.4,1.1,0.6,23,0.6,23l-5.4,4.9l5,4.9c0,0-0.3,22.2,2.9,24.1
		c3.2,1.8,14,0,14,0v-5.5c0,0-8.8,0.6-10.3-0.6c-1.5-1.2-1.3-20.6-1.3-20.6l-2.4-2.6l2.4-2.8c0,0-0.4-13.8-0.2-17.6
		c0.2-2.5,10.5-2.7,10.5-2.7V570.2z"/>
	<path class="st10" d="M2138.8,570.2c0,0,13.4-0.5,15.8,0.6c2.4,1.1-0.6,23-0.6,23l5.4,4.9l-5,4.9c0,0,0.3,22.2-2.9,24.1
		c-3.2,1.8-14,0-14,0v-5.5c0,0,8.8,0.6,10.3-0.6c1.5-1.2,1.3-20.6,1.3-20.6l2.4-2.6l-2.4-2.8c0,0,0.4-13.8,0.2-17.6
		c-0.2-2.5-10.5-2.7-10.5-2.7V570.2z"/>
</g>
<g>
	<g>
		<path class="st122" d="M981.7,294.2l78-16.3l-30.1,78.7L981.7,294.2z M985.3,295.5l43.7,56.9l27.4-71.8L985.3,295.5z"/>
	</g>
	<g>
		
			<rect x="800.7" y="1431.2" transform="matrix(0.8065 -0.5912 0.5912 0.8065 -704.1915 755.1772)" class="st122" width="2" height="44.7"/>
	</g>
	<g>
		<polygon class="st122" points="1062,1139.9 1090.4,1104.6 1088.8,1103.3 1060.4,1138.6 		"/>
	</g>
	<g>
		<polygon class="st122" points="1937.2,1387.8 1993.8,1346.8 1992.6,1345.1 1936,1386.2 		"/>
	</g>
	<g>
		
			<rect x="1963.9" y="1331.5" transform="matrix(0.7955 -0.606 0.606 0.7955 -426.1972 1470.2169)" class="st122" width="2" height="69.9"/>
	</g>
	<g>
		
			<rect x="2025.7" y="774" transform="matrix(0.8852 -0.4651 0.4651 0.8852 -125.627 1040.7874)" class="st122" width="41.4" height="2"/>
	</g>
	<g>
		<polygon class="st122" points="620.5,291.4 622,290.1 579.6,241.8 578.1,243.1 		"/>
	</g>
	<g>
		
			<rect x="1413.3" y="426.7" transform="matrix(0.4454 -0.8953 0.8953 0.4454 412.6286 1521.6207)" class="st122" width="42.5" height="2"/>
	</g>
	<g>
		
			<rect x="1718.5" y="1038" transform="matrix(0.6416 -0.767 0.767 0.6416 -204.2855 1702.3226)" class="st122" width="2" height="63.5"/>
	</g>
</g>
<path class="st123" d="M212.3,1383.6c0,15.5-12.6,28.1-28.1,28.1c-15.5,0-28.1-12.6-28.1-28.1c0-15.5,12.6-28.1,28.1-28.1
	C199.7,1355.5,212.3,1368.1,212.3,1383.6z"/>
<rect transform="matrix(-1 -1.224647e-16 1.224647e-16 -1 2450 1633.3333)" class="st124" width="2450" height="1633.3"/>
</svg>
