<?xml version="1.0" encoding="utf-8"?>
<!-- Generator: Adobe Illustrator 26.0.0, SVG Export Plug-In . SVG Version: 6.00 Build 0)  -->
<svg version="1.1" id="Layer_1" xmlns="http://www.w3.org/2000/svg" xmlns:xlink="http://www.w3.org/1999/xlink" x="0px" y="0px"
	 viewBox="0 0 451 1820" style="enable-background:new 0 0 451 1820;" xml:space="preserve">
<style type="text/css">
	.st0{fill-rule:evenodd;clip-rule:evenodd;fill:#331942;}
	.st1{fill:#331941;}
</style>
<path class="st0" d="M66.8,103.5C89.3,47.7,115.8,14,133.5,0l1.4,1.4c-17.3,13.7-43.6,47.1-66.1,102.7
	C47.5,157,29.7,229.9,26.6,324.9c2.2-1.6,4.6-2.8,7.1-3.8c12.1-4.8,22.9-3.4,31,0.8c8,4.2,13.3,11.3,14.3,18l0,0.1l0,0.1
	c-0.2,11.4-3.7,19.8-8.9,25.2c-5.2,5.4-12.1,7.9-18.9,7.5c-13.8-0.7-27-12.5-27-32.7v0l0,0c0.1-3.6,0.1-7.2,0.2-10.8
	c-6.8,6.4-12.4,16.9-16.4,34.2c-5.7,25.3-7.6,64.7-3.9,125.7l0,0l0,0c0.9,28.5,5.8,64,12.3,107c1,7,2.1,14.2,3.2,21.5
	c5.8,38.1,12.3,81.5,18.3,130.6C52.2,865.6,62.9,1015,50.6,1201l0,0l0,0c-7.8,70.9-18.8,194.2-11.8,308.9
	c3.5,57.4,11.6,112.5,26.8,157.9c15.2,45.4,37.6,80.8,69.6,98.9l0,0l0,0c63.6,41.6,129.8,50.9,306.1,48.9l0,1.9
	c-176.3,2-243.1-7.3-307.4-49.3c-32.6-18.5-55.2-54.4-70.4-99.9c-15.3-45.6-23.3-100.9-26.9-158.3c-7.1-114.8,4-238.2,11.8-309.1
	C60.7,1015,50,865.7,35.8,748.6c-6-49.1-12.5-92.5-18.3-130.6c-1.1-7.4-2.2-14.6-3.3-21.5C7.8,553.4,2.9,517.9,2,489.2
	c-3.8-61.1-1.9-100.7,3.9-126.2c4.2-18.7,10.6-29.9,18.5-36.5C27.4,230.5,45.3,156.9,66.8,103.5z M26.5,327.4
	c-0.1,4.2-0.2,8.4-0.3,12.7c0,19.5,12.7,30.2,25,30.9c6.2,0.3,12.4-1.9,17.2-6.9c4.8-5,8.1-12.9,8.4-24c-0.9-6.1-5.8-12.6-13.2-16.6
	c-7.5-4-17.6-5.3-29-0.7C31.7,323.9,29,325.4,26.5,327.4z"/>
<polyline class="st1" points="441.1,1813.3 448.8,1815.6 441.1,1819.4 "/>
</svg>
