<?xml version="1.0" encoding="utf-8"?>
<!-- Generator: Adobe Illustrator 28.2.0, SVG Export Plug-In . SVG Version: 6.00 Build 0)  -->
<svg version="1.1" id="Layer_1" xmlns="http://www.w3.org/2000/svg" xmlns:xlink="http://www.w3.org/1999/xlink" x="0px" y="0px"
	 viewBox="0 0 298.9 299" style="enable-background:new 0 0 298.9 299;" xml:space="preserve">
<style type="text/css">
	.st0{fill-rule:evenodd;clip-rule:evenodd;fill:#FFFFFF;}
	.st1{fill:#FFFFFF;}
	.st2{fill-rule:evenodd;clip-rule:evenodd;}
</style>
<g>
	<path d="M143,276l-3.2,0.8c2.8,2.5,4.8,4.3,6.1,5.6h4.1C147.7,280.3,145.3,278.2,143,276z M179.8,282.4h8.5
		c4.6-4.2,10-9.1,15.8-14.5v-7.7C194.5,269.4,185.9,277.2,179.8,282.4z M112.8,254.2c-7.4-6.3-3.1-2,3.7,4.5v-1.4
		C115.4,256.3,114.1,255.2,112.8,254.2z M102.3,264.6v3.4c4.9,5.1,9.2,9.1,14.2,13.6V279C110.9,273.7,106.4,269.2,102.3,264.6z
		 M102.3,253.9v6.9c4.5,5.3,9,10.1,14.2,15v-6.7C112.2,265,107.4,260,102.3,253.9z M188.1,110.8c-4.7-5.8-9.9-14.5-11.7-25.2
		c-0.1,0-0.2,0.1-0.2,0.1c12-7.6,20.1-21,20.1-36.4c0-23.7-19.2-43-43-43c-23.7,0-43,19.2-43,43c0,15.4,8.1,28.9,20.3,36.5
		c-0.2-0.1-0.3-0.2-0.5-0.3c-1.8,10.7-7,19.5-11.7,25.2H94.9v36.1h7.4v46.8c6.2,6.2,10.8,11,14.2,14.7v-11.8l73.3-17.7v28.4
		l-62.8,15.2c1.5,3.3,1.7,6.2,1.5,9.9l0,0.2c-0.2,5.2-2.1,9.6-4.2,13c1.8,1.8,3.7,3.5,5.6,5.3l46-11.1c8.6-8.2,18.2-17.8,28-28.5
		v-64.2h7.4v-36.1H188.1z M148.1,11.9c2.4,0,4.3,1.9,4.3,4.3c0,2.4-1.9,4.3-4.3,4.3c-2.4,0-4.3-1.9-4.3-4.3
		C143.8,13.8,145.7,11.9,148.1,11.9z M125.3,49.3c0,2.2-1.8,4-4,4c-2.2,0-4-1.8-4-4c0-12.8,6.5-24.4,17.4-31.1
		c1.9-1.2,4.4-0.6,5.5,1.3c1.2,1.9,0.6,4.4-1.3,5.5C130.4,30.3,125.3,39.4,125.3,49.3z M189.9,149.8l-73.3,17.8v-20.6h73.3V149.8z
		 M197.2,132.6h-88.1V125h88.1V132.6z M119.5,281.7l-2.3,0.6l-0.6,0.2h3.8C120.1,282.2,119.8,281.9,119.5,281.7z"/>
</g>
<g>
	<g>
		
			<text transform="matrix(1 0 0 1 -112.7428 -105.9065)" class="st1" style="font-family:'OpenSans-Extrabold'; font-size:116.0626px;">V  RTUOSO</text>
	</g>
	<g>
		<g>
			<path class="st0" d="M263.3-310.4c4.5,1.9,7,6.4,6,12.4c-3.5,20.2-77.1,88.1-80,88.1c0,0-13.2-12.6-13.4-12.8
				c-0.6-0.3,29.7-23.3,54.9-55.9C247.4-300,252.1-315.3,263.3-310.4z M259.5-285.9c3.1-4.8-7.9,2.4-10.7-10.3
				c-0.8-2.3-1.6,4.1,2.7,7.6c1.9,1.4,2,0.7,1.3,1.4c-18.6,19.7-79.9,83-60.3,64.5c46.6-42.7,61.3-64.3,62.3-64.3
				c2.8,0.8,2.6,0.7-1.7,5.9C219-239.9,187-215.6,189.5-215C192.1-214.3,249.4-269.5,259.5-285.9z M152.4-237.3
				c-9.8-8.3,12.3,12.1,14.9,14.8c3.9,4.1,4.1,6.3,0.1,2.9c-22.5-19-23.7-23.7-33.9-34.1c-14.6-14.7-62.7-58.8-31.5-29.4
				c28.7,26.5,38,39,43.3,45.3c13.5,16,23.5,20.7,23.2,23.1c-0.1,0.5-0.3,1.2-1,1c-1-0.2-8.6-6.1-10-7.3
				c-14.6-12.6-19.5-24.2-47.9-52.3c-27.1-27.1-24.5-19.6-18.3-29.5c1.5-2.9-3.7,2-5.4,4.7c-3.2,4.8,2,5.3,15.4,18.7
				c44.4,44.1,35.8,44.3,66.2,68.9c6.4,5.2-1.5-2.2,5.4-5.6C175.8-217.5,180.1-214.3,152.4-237.3z M106.9-298.5
				c26,24.7,52.9,51.9,44.8,42.4c-6.4-7.3-51.4-52.7-53.9-53.2c-0.8,0-3.5,2.8-4,3.4c74.9,75.6,74.6,70.9,20.5,18.8
				c-50.5-49,27.3,24.1,38.8,36.3c0.5-2.1,0.2-1.5-5.8-7.4C146.2-258.2,73.8-329.9,106.9-298.5z M263.6-296.3
				c-1.4,6.7-11.6,5.9-11.6-1.3c0-3.6,3.2-6.4,7-5.7c-4.3-1.3-8.7,1.8-8.7,6.3C250.3-288.4,262.9-287.9,263.6-296.3L263.6-296.3z
				 M259.3-291.2c-6.5,2.4-11.1-5.5-6.6-10C249.7-297.3,252.4-290.3,259.3-291.2z M253.2-297.6c0,6.2,9.3,6.3,9.3,0
				C262.5-303.7,253.2-303.7,253.2-297.6L253.2-297.6z M261.3-297.5c0,4.7-7,4.7-7,0C254.4-302.1,261.4-302.2,261.3-297.5
				L261.3-297.5z M177-214.1c-2.3-2.3-6.8-0.3-5.5,3.7C170-210.5,173.1-217.1,177-214.1z M173-211.3c0,2.5,3.8,2.6,3.8,0
				C176.8-213.8,173-213.8,173-211.3L173-211.3z M171.7-211.3c0-4.9,7.8-3.6,6.4,0.6c2-5-7.1-6.9-7.1-1.1c0,1.9,1.4,3.5,3.3,3.6
				C171.9-208.6,171.5-211.3,171.7-211.3z M174.9-213.8c3.5,0,3.4,5.1,0,5.1C171.6-208.7,171.5-213.8,174.9-213.8z M151.2-242.3
				c20.2,20.4,53.4,44.5,48.7,55.8c-0.4,0.9-1,2-2,2.4c0,0-2.3,0.8-3.8,0.4c-6.7-1.5,1.3-15.4-13.1-17.7c-4.3-0.8-4.8,0.3-8.1-2.5
				c-18-15.7-21.7-18.1-32.6-30.2c-52.7-62.2-59.1-55.2-57.3-62.4c0.7-3.2,11.3-16.3,15.1-15.7c2.5,0.2,12.8,10.6,26,23.7
				c32.5,32.5,32.1,32,31.9,36.9C155.8-245.9,150.6-242.3,151.2-242.3z M177-199.4c-2.3,2-5.7,4.8-8.2,5.6
				c-7.9,2.4-15.9-8.2-8.7-16.2C162.5-212.4,170.8-199.4,177-199.4z"/>
		</g>
	</g>
	<g>
		<path class="st1" d="M-19.7-92.7c7.5,0,13.6-5.6,14.4-12.9h-28.9C-33.3-98.4-27.2-92.7-19.7-92.7z"/>
		<path class="st1" d="M0-118h-2.5v-58.2H0v-12.2h-7.9c-1.6-2-3.4-4.9-4-8.5c0,0-0.1,0-0.1,0.1c4.1-2.6,6.8-7.1,6.8-12.3
			c0-8-6.5-14.5-14.5-14.5s-14.5,6.5-14.5,14.5c0,5.2,2.7,9.8,6.9,12.3c0,0-0.1-0.1-0.1-0.1c-0.6,3.6-2.4,6.6-4,8.5h-7.9v12.2h2.5
			v58.2h-2.5v12.2H0V-118z M-19.7-194.6C-19.7-194.6-19.7-194.6-19.7-194.6C-19.7-194.6-19.7-194.6-19.7-194.6
			C-19.7-194.6-19.8-194.6-19.7-194.6C-19.8-194.6-19.7-194.6-19.7-194.6z M-21.5-221.8c0.8,0,1.5,0.7,1.5,1.5
			c0,0.8-0.7,1.5-1.5,1.5c-0.8,0-1.5-0.7-1.5-1.5C-22.9-221.2-22.3-221.8-21.5-221.8z M-29.2-209.2c0,0.8-0.6,1.4-1.4,1.4
			s-1.4-0.6-1.4-1.4c0-4.3,2.2-8.2,5.9-10.5c0.6-0.4,1.5-0.2,1.9,0.4c0.4,0.6,0.2,1.5-0.4,1.9C-27.4-215.6-29.2-212.5-29.2-209.2z
			 M-32.1-159.4l24.8-6v9.6l-24.8,6V-159.4z M-32.1-139.9l24.8-6v9.6l-24.8,6V-139.9z M-34.6-183.6h29.8v2.6h-29.8V-183.6z
			 M-7.3-176.2v1l-24.8,6v-7H-7.3z M-32.1-120.5l24.8-6v8.5h-24.8V-120.5z M-4.8-110.6h-29.8v-2.5h29.8V-110.6z"/>
	</g>
	<g>
		<g>
			<path class="st1" d="M291.3-76c0-2.1,0-4.2,0-6.4c0.5-8.3-2-12.4-7.7-12.4c-5.3,0-10.5,0-15.7,0v46.4c2.9,0.5,5.8,1,8.7,1.6
				v-18.8c2.3,0.3,4.7,0.6,7,0.9C289.2-64.1,291.8-67.8,291.3-76z M282.7-85.8v12c0,0.1,0,0.1,0,0.2c0,0.1,0,0.1,0,0.2
				c0,0,0,0,0,0.1c0,0.2-0.2,0.5-0.3,0.6c-0.2,0.3-0.5,0.4-0.9,0.4c-1.6-0.2-3.2-0.3-4.8-0.5v-14.9c1.6,0,3.2,0.1,4.8,0.2
				c0.3,0,0.6,0.2,0.9,0.5c0.1,0.1,0.1,0.2,0.2,0.2c0.1,0.2,0.2,0.5,0.2,0.7C282.7-86,282.7-85.9,282.7-85.8z"/>
			<path class="st1" d="M253.8-95.5h-8.3c-5.2,0-7.7,2.9-7.7,8.7v26.6c0,5.8,2.6,8.9,7.7,9.5c2.7,0.3,5.5,0.6,8.3,1
				c5.1,0.7,7.7-2,7.7-8.2v-28.3C261.6-92.4,259-95.5,253.8-95.5z M252.9-57.9c0,0.4-0.1,0.7-0.3,0.9c-0.2,0.3-0.5,0.4-0.9,0.3
				c-1.3-0.1-2.6-0.3-3.9-0.4c-0.3,0-0.6-0.2-0.9-0.5c-0.2-0.3-0.3-0.6-0.3-1v-29.3c0-0.4,0.1-0.7,0.3-0.9c0.2-0.3,0.5-0.4,0.9-0.4
				c1.3,0,2.6,0,3.9,0.1c0.3,0,0.6,0.2,0.9,0.4c0.2,0.3,0.3,0.6,0.3,1V-57.9z M222.9-94.9v17.4c-2.3-0.1-4.6-0.1-6.9-0.2v-17.3h-8.7
				v40.8c2.9,0.1,5.8,0.2,8.7,0.4v-16.2c2.3,0.1,4.6,0.1,6.9,0.2v16.3c2.9,0.2,5.8,0.4,8.7,0.6v-42.2
				C228.7-94.9,225.8-94.9,222.9-94.9z M193.9-79c-1.9,0-3.7,0-5.6,0c-0.3,0-0.6-0.1-0.9-0.4c-0.3-0.3-0.4-0.6-0.3-1
				c0-2.3,0-4.6,0-6.9c0-0.4,0.1-0.7,0.3-1c0.2-0.2,0.5-0.4,0.9-0.4c1.1,0,2.3,0,3.4,0c0.3,0,0.6,0.1,0.8,0.4
				c0.6,0.7,0.3,1.7-0.4,2.7c0.4,0.8,0.3,0.6,0.7,1.4c2.7,0,5.5,0,8.3,0v-3c0-5.5-2.6-8.3-7.7-8.3h-6.9c-5.1,0-7.7,2.7-7.7,8.2v8.1
				c0,5.5,2.6,8.2,7.7,8.2c1.9,0,3.7,0,5.6,0c0.3,0,0.6,0.1,0.9,0.4c0.3,0.3,0.4,0.7,0.3,1.1c0,2.5,0,4.9,0,7.4
				c0.1,0.5,0,0.9-0.3,1.2c-0.2,0.3-0.5,0.4-0.9,0.4c-1.3,0-2.6,0-3.8,0c-0.3,0-0.6-0.1-0.9-0.4c-0.7-0.8-0.3-1.9,0.8-3
				c-0.7-1.5-0.4-0.8-1.1-2.3c-2.8,0-5.5,0-8.3-0.1v4.2c0,5.5,2.6,8.2,7.7,8.3c2.4,0,4.9,0.1,7.3,0.1c5.2,0.1,7.7-2.6,7.7-8.3v-8.5
				C201.6-76.1,199-78.9,193.9-79z M173.3-81.9v-4.8c0-5.5-2.6-8.2-7.7-8.2H150v40.2h8.7v-16.5h4.2c0.8,0,1.2,0.4,1.2,1.2v15.2
				c2.9,0,5.8,0,8.7,0v-15.9c0-2.6-1-4.4-3.1-5.1C172-76.6,173.2-78.7,173.3-81.9z M164.2-77.6c-0.2,0.3-0.5,0.4-0.9,0.4h-4.6V-89
				h4.6c0.3,0,0.6,0.1,0.9,0.4c0.3,0.3,0.4,0.6,0.3,1c0,3,0,5.8,0,8.8C164.6-78.3,164.5-78,164.2-77.6z M145-87.8v-7.1h-18.3v40.3
				c6.1,0,12.2,0,18.3,0v-7.2h-9.7v-9.6h9v-6.8h-9v-9.4H145z M116.7-76.7c2.3-0.9,3.5-3,3.5-6.4v-3.7c0-5.5-2.6-8.2-7.7-8.2
				c-5.2,0-10.4,0-15.5,0v40.7c5.3-0.1,10.7-0.3,16-0.3c5.1-0.1,7.7-2.7,7.7-8.1v-7.2C120.8-73.4,119.4-75.7,116.7-76.7z M105.7-89
				c1.5,0,3.1,0,4.6,0c0.3,0,0.6,0.1,0.8,0.4c0.4,0.5,0.4,1,0.1,1.8c0,2.4,0.1,4.5,0.1,6.9c0.2,0.6,0.1,1-0.2,1.4
				c-0.2,0.3-0.5,0.4-0.8,0.4c-1.6,0-3.1,0-4.6,0V-89z M111.6-60.9c-0.2,0.3-0.5,0.4-0.8,0.4c-1.7,0-3.4,0-5.1,0.1V-72
				c1.7,0,3.4,0,5.1,0c0.3,0,0.6,0.1,0.8,0.4c0.4,0.4,0.5,1.1,0.1,1.7c-0.1,2.5-0.1,4.3-0.2,6.8C112-62.3,112.2-61.5,111.6-60.9z
				 M91.4-81.6v-5c0-5.5-2.6-8.3-7.7-8.3c-5.2,0-10.3,0-15.5,0v42.2c2.9-0.2,5.8-0.4,8.7-0.6v-17c1.4-0.1,2.8-0.1,4.2-0.2
				c0.8,0,1.2,0.4,1.2,1.2v15.6c2.9-0.1,5.8-0.3,8.7-0.4v-16.2c0-2.7-1-4.4-3.1-5.1C90.2-76.3,91.4-78.3,91.4-81.6z M82.4-77.2
				c-0.2,0.3-0.5,0.4-0.8,0.4c-1.6,0-3.1,0.1-4.6,0.1v-12.1c1.5,0,3.1,0,4.6,0c0.3,0,0.6,0.1,0.8,0.4c0.3,0.3,0.4,0.6,0.3,1
				c0,3,0,5.9-0.1,8.9C82.8-78,82.7-77.5,82.4-77.2z M54-95.5h-8.3c-5.1,0-7.7,3.1-7.7,9.3v36.9c2.9-0.4,5.8-0.8,8.7-1.2v-14.9
				c2.1-0.2,4.2-0.3,6.3-0.5v14.6c2.9-0.3,5.8-0.6,8.7-0.9v-34.6C61.7-92.6,59.2-95.5,54-95.5z M53-73.2c-2.1,0.1-4.2,0.3-6.3,0.4
				v-14.8c0-0.4,0.1-0.7,0.3-1c0.2-0.3,0.5-0.4,0.8-0.4c1.3,0,2.6,0,3.9-0.1c0.3,0,0.6,0.1,0.8,0.4c0.2,0.3,0.4,0.6,0.4,0.9V-73.2z
				 M28-73.5c2.4-1.2,3.5-3.8,3.5-7.6v-4.2c0-6.3-2.6-9.5-7.7-9.5c-5.2,0-10.3,0-15.5,0v51.1c5.3-1.2,10.6-2.4,16-3.4
				c5.1-1,7.7-4.4,7.7-10.6v-8.3C32.1-70.1,30.8-72.6,28-73.5z M17.1-87.6c1.5,0,3-0.1,4.6-0.2c0.3,0,0.6,0.1,0.8,0.4
				c0.3,0.4,0.4,0.9,0.3,1.5c0,2.9,0,5.8,0,8.7c0.2,0.6,0.1,1.2-0.3,1.7c-0.2,0.3-0.5,0.5-0.8,0.5c-1.6,0.1-3.1,0.3-4.6,0.4V-87.6z
				 M23.4-55.5c0,0.4-0.1,0.8-0.3,1.1c-0.2,0.3-0.5,0.5-0.8,0.6c-1.7,0.3-3.4,0.6-5.1,0.9V-67c1.7-0.2,3.4-0.4,5.1-0.6
				c0.3,0,0.6,0.1,0.8,0.4c0.2,0.3,0.3,0.6,0.3,1V-55.5z"/>
		</g>
		<rect x="-112.3" y="-75.1" class="st1" width="110.1" height="4.5"/>
		<rect x="302" y="-75.1" class="st1" width="110.1" height="4.5"/>
	</g>
</g>
<g>
	<g>
		<path class="st0" d="M151.4,313.4c-3.7,3.2-8.9,7.5-12.9,8.7c-12.4,3.8-24.8-12.8-13.6-25.4C128.7,293,141.7,313.4,151.4,313.4z"
			/>
		<path class="st0" d="M179.8,282.4h-24.3c6.2,5.9,15.1,14.4,15.1,14.4c1,0,7.8-5.5,17.7-14.4c4.6-4.2,10-9.1,15.8-14.5v-7.7
			C194.5,269.4,185.9,277.2,179.8,282.4z M83.2,228.4c-22.8-23-97.9-91.8-49.2-45.9c44.9,41.4,59.4,61,67.7,70.8
			c0.2,0.2,0.4,0.5,0.6,0.7v-4.1C95.6,242.3,91.1,236.5,83.2,228.4z M46,197.9c-42.4-42.3-38.3-30.6-28.5-46.1
			c2.4-4.5-5.8,3.1-8.5,7.3c-5,7.5,3,8.3,24,29.2c44.6,44.4,55,60.3,69.3,76.3v-3.8C89.6,246.1,76.5,228.1,46,197.9z M102.3,253.9
			v6.9c4.5,5.3,9,10.1,14.2,15v-6.7C112.2,265,107.4,260,102.3,253.9z M150,282.4c-2.3-2.1-4.7-4.2-7-6.4l-3.2,0.8
			c2.8,2.5,4.8,4.3,6.1,5.6c4.5,4.6,1.4,3.7-1,4.8c-10.8,5.3,1.6,16.8-8.5,8.7c-6.3-5.1-11.5-9.5-16-13.5c-0.3-0.2-0.5-0.5-0.8-0.7
			c-1-0.9-2-1.8-3-2.7c-5.7-5.2-10.1-9.8-14.2-14.4v3.4c4.9,5.1,9.2,9.1,14.2,13.6v0.7h0.8c6.7,5.9,14.9,12.8,27.6,23.9
			c5.1,4.3,6,2.6,12.7,3.9c22.6,3.7,10.1,25.2,20.5,27.7c2.3,0.7,5.8-0.6,5.9-0.6c1.5-0.6,2.5-2.3,3.1-3.7
			C191.8,322.4,172.7,303.1,150,282.4z M116.6,223.9v1.1l0.6-0.1C117,224.5,116.8,224.2,116.6,223.9z M112.8,254.2
			c-7.4-6.3-3.1-2,3.7,4.5v-1.4C115.4,256.3,114.1,255.2,112.8,254.2z M268.5,160c0-5.6,5-9.9,10.9-8.9c-6.7-2-13.6,2.7-13.6,9.9
			c-0.1,13.4,19.6,14.1,20.7,1C284.4,172.5,268.5,171.2,268.5,160z M270.4,160c0,9.7,14.5,9.9,14.5,0.1
			C284.9,150.4,270.4,150.5,270.4,160z"/>
		<path class="st2" d="M124.9,296.7c-11.3,12.6,1.2,29.2,13.6,25.4c3.9-1.2,9.2-5.5,12.9-8.7C141.7,313.4,128.7,293,124.9,296.7z
			 M142.3,294.2c-0.4,1.1-0.3,1.9,0.4,1.9C142.5,295.4,142.3,294.8,142.3,294.2z M142.3,294.2c0.9-2.7,4.6-7.1,8.9-3.8
			C148,287.1,142.2,289.3,142.3,294.2z M145,294.8c0,3.9,6,4,6,0C151,290.8,145.1,290.9,145,294.8z M142.3,294.2
			c0.9-2.7,4.6-7.1,8.9-3.8C148,287.1,142.2,289.3,142.3,294.2z M142.3,294.2c-0.4,1.1-0.3,1.9,0.4,1.9
			C142.5,295.4,142.3,294.8,142.3,294.2z M145,294.8c0,3.9,6,4,6,0C151,290.8,145.1,290.9,145,294.8z M142.3,294.2
			c-0.4,1.1-0.3,1.9,0.4,1.9C142.5,295.4,142.3,294.8,142.3,294.2z M142.3,294.2c0.9-2.7,4.6-7.1,8.9-3.8
			C148,287.1,142.2,289.3,142.3,294.2z M145,294.8c0,3.9,6,4,6,0C151,290.8,145.1,290.9,145,294.8z M142.3,294.2
			c0.9-2.7,4.6-7.1,8.9-3.8C148,287.1,142.2,289.3,142.3,294.2z M142.3,294.2c-0.4,1.1-0.3,1.9,0.4,1.9
			C142.5,295.4,142.3,294.8,142.3,294.2z M145,294.8c0,3.9,6,4,6,0C151,290.8,145.1,290.9,145,294.8z M142.3,294.2
			c-0.4,1.1-0.3,1.9,0.4,1.9C142.5,295.4,142.3,294.8,142.3,294.2z M142.3,294.2c0.9-2.7,4.6-7.1,8.9-3.8
			C148,287.1,142.2,289.3,142.3,294.2z M145,294.8c0,3.9,6,4,6,0C151,290.8,145.1,290.9,145,294.8z M142.3,294.2
			c0.9-2.7,4.6-7.1,8.9-3.8C148,287.1,142.2,289.3,142.3,294.2z M142.3,294.2c-0.4,1.1-0.3,1.9,0.4,1.9
			C142.5,295.4,142.3,294.8,142.3,294.2z M145,294.8c0,3.9,6,4,6,0C151,290.8,145.1,290.9,145,294.8z M142.3,294.2
			c-0.4,1.1-0.3,1.9,0.4,1.9C142.5,295.4,142.3,294.8,142.3,294.2z M142.3,294.2c0.9-2.7,4.6-7.1,8.9-3.8
			C148,287.1,142.2,289.3,142.3,294.2z M145,294.8c0,3.9,6,4,6,0C151,290.8,145.1,290.9,145,294.8z M142.3,294.2
			c0.9-2.7,4.6-7.1,8.9-3.8C148,287.1,142.2,289.3,142.3,294.2z M142.3,294.2c-0.4,1.1-0.3,1.9,0.4,1.9
			C142.5,295.4,142.3,294.8,142.3,294.2z M145,294.8c0,3.9,6,4,6,0C151,290.8,145.1,290.9,145,294.8z M142.3,294.2
			c-0.4,1.1-0.3,1.9,0.4,1.9C142.5,295.4,142.3,294.8,142.3,294.2z M142.3,294.2c0.9-2.7,4.6-7.1,8.9-3.8
			C148,287.1,142.2,289.3,142.3,294.2z M145,294.8c0,3.9,6,4,6,0C151,290.8,145.1,290.9,145,294.8z M142.3,294.2
			c0.9-2.7,4.6-7.1,8.9-3.8C148,287.1,142.2,289.3,142.3,294.2z M142.3,294.2c-0.4,1.1-0.3,1.9,0.4,1.9
			C142.5,295.4,142.3,294.8,142.3,294.2z M145,294.8c0,3.9,6,4,6,0C151,290.8,145.1,290.9,145,294.8z M142.3,294.2
			c-0.4,1.1-0.3,1.9,0.4,1.9C142.5,295.4,142.3,294.8,142.3,294.2z M142.3,294.2c0.9-2.7,4.6-7.1,8.9-3.8
			C148,287.1,142.2,289.3,142.3,294.2z M145,294.8c0,3.9,6,4,6,0C151,290.8,145.1,290.9,145,294.8z M142.3,294.2
			c0.9-2.7,4.6-7.1,8.9-3.8C148,287.1,142.2,289.3,142.3,294.2z M142.3,294.2c-0.4,1.1-0.3,1.9,0.4,1.9
			C142.5,295.4,142.3,294.8,142.3,294.2z M145,294.8c0,3.9,6,4,6,0C151,290.8,145.1,290.9,145,294.8z M142.3,294.2
			c-0.4,1.1-0.3,1.9,0.4,1.9C142.5,295.4,142.3,294.8,142.3,294.2z M142.3,294.2c0.9-2.7,4.6-7.1,8.9-3.8
			C148,287.1,142.2,289.3,142.3,294.2z M145,294.8c0,3.9,6,4,6,0C151,290.8,145.1,290.9,145,294.8z M142.3,294.2
			c0.9-2.7,4.6-7.1,8.9-3.8C148,287.1,142.2,289.3,142.3,294.2z M142.3,294.2c-0.4,1.1-0.3,1.9,0.4,1.9
			C142.5,295.4,142.3,294.8,142.3,294.2z M145,294.8c0,3.9,6,4,6,0C151,290.8,145.1,290.9,145,294.8z M142.3,294.2
			c-0.4,1.1-0.3,1.9,0.4,1.9C142.5,295.4,142.3,294.8,142.3,294.2z M142.3,294.2c0.9-2.7,4.6-7.1,8.9-3.8
			C148,287.1,142.2,289.3,142.3,294.2z M145,294.8c0,3.9,6,4,6,0C151,290.8,145.1,290.9,145,294.8z M142.3,294.2
			c0.9-2.7,4.6-7.1,8.9-3.8C148,287.1,142.2,289.3,142.3,294.2z M142.3,294.2c-0.4,1.1-0.3,1.9,0.4,1.9
			C142.5,295.4,142.3,294.8,142.3,294.2z M145,294.8c0,3.9,6,4,6,0C151,290.8,145.1,290.9,145,294.8z M142.3,294.2
			c-0.4,1.1-0.3,1.9,0.4,1.9C142.5,295.4,142.3,294.8,142.3,294.2z M142.3,294.2c0.9-2.7,4.6-7.1,8.9-3.8
			C148,287.1,142.2,289.3,142.3,294.2z M145,294.8c0,3.9,6,4,6,0C151,290.8,145.1,290.9,145,294.8z M142.3,294.2
			c0.9-2.7,4.6-7.1,8.9-3.8C148,287.1,142.2,289.3,142.3,294.2z M142.3,294.2c-0.4,1.1-0.3,1.9,0.4,1.9
			C142.5,295.4,142.3,294.8,142.3,294.2z M145,294.8c0,3.9,6,4,6,0C151,290.8,145.1,290.9,145,294.8z M102.3,253.9v6.9
			c4.5,5.3,9,10.1,14.2,15v-6.7C112.2,265,107.4,260,102.3,253.9z M142.3,294.2c-0.4,1.1-0.3,1.9,0.4,1.9
			C142.5,295.4,142.3,294.8,142.3,294.2z M142.3,294.2c0.9-2.7,4.6-7.1,8.9-3.8C148,287.1,142.2,289.3,142.3,294.2z M145,294.8
			c0,3.9,6,4,6,0C151,290.8,145.1,290.9,145,294.8z M142.3,294.2c0.9-2.7,4.6-7.1,8.9-3.8C148,287.1,142.2,289.3,142.3,294.2z
			 M142.3,294.2c-0.4,1.1-0.3,1.9,0.4,1.9C142.5,295.4,142.3,294.8,142.3,294.2z M145,294.8c0,3.9,6,4,6,0
			C151,290.8,145.1,290.9,145,294.8z M142.3,294.2c-0.4,1.1-0.3,1.9,0.4,1.9C142.5,295.4,142.3,294.8,142.3,294.2z M142.3,294.2
			c0.9-2.7,4.6-7.1,8.9-3.8C148,287.1,142.2,289.3,142.3,294.2z M145,294.8c0,3.9,6,4,6,0C151,290.8,145.1,290.9,145,294.8z
			 M142.3,294.2c0.9-2.7,4.6-7.1,8.9-3.8C148,287.1,142.2,289.3,142.3,294.2z M142.3,294.2c-0.4,1.1-0.3,1.9,0.4,1.9
			C142.5,295.4,142.3,294.8,142.3,294.2z M145,294.8c0,3.9,6,4,6,0C151,290.8,145.1,290.9,145,294.8z M142.3,294.2
			c-0.4,1.1-0.3,1.9,0.4,1.9C142.5,295.4,142.3,294.8,142.3,294.2z M142.3,294.2c0.9-2.7,4.6-7.1,8.9-3.8
			C148,287.1,142.2,289.3,142.3,294.2z M145,294.8c0,3.9,6,4,6,0C151,290.8,145.1,290.9,145,294.8z M142.3,294.2
			c0.9-2.7,4.6-7.1,8.9-3.8C148,287.1,142.2,289.3,142.3,294.2z M142.7,296.1c-0.2-0.7-0.3-1.3-0.4-1.9
			C142,295.2,142,296.1,142.7,296.1z M145,294.8c0,3.9,6,4,6,0C151,290.8,145.1,290.9,145,294.8z M150,282.4c-2.3-2.1-4.7-4.2-7-6.4
			l-3.2,0.8c2.8,2.5,4.8,4.3,6.1,5.6c4.5,4.6,1.4,3.7-1,4.8c-10.8,5.3,1.6,16.8-8.5,8.7c-6.3-5.1-11.5-9.5-16-13.5
			c-0.3-0.2-0.5-0.5-0.8-0.7c-1-0.9-2-1.8-3-2.7c-5.7-5.2-10.1-9.8-14.2-14.4v3.4c4.9,5.1,9.2,9.1,14.2,13.6
			c0.2,0.2,0.4,0.4,0.6,0.6c0.1,0,0.1,0.1,0.2,0.2c6.7,5.9,14.9,12.8,27.6,23.9c5.1,4.3,6,2.6,12.7,3.9
			c22.6,3.7,10.1,25.2,20.5,27.7c2.3,0.7,5.8-0.6,5.9-0.6c1.5-0.6,2.5-2.3,3.1-3.7C191.8,322.4,172.7,303.1,150,282.4z M148,298.9
			c-5.1,0-5.3-8,0-8C153.5,290.9,153.3,298.9,148,298.9z M152.9,295.8c2.2-6.6-9.9-8.7-9.9-1c-0.3,0,0.3,4.2,3.9,4.9
			c-2.9-0.2-5.1-2.7-5.1-5.7C141.9,285,156.1,288,152.9,295.8z M145,294.8c0,3.9,6,4,6,0C151,290.8,145.1,290.9,145,294.8z
			 M142.3,294.2c0.9-2.7,4.6-7.1,8.9-3.8C148,287.1,142.2,289.3,142.3,294.2z M142.7,296.1c-0.2-0.7-0.3-1.3-0.4-1.9
			C142,295.2,142,296.1,142.7,296.1z M145,294.8c0,3.9,6,4,6,0C151,290.8,145.1,290.9,145,294.8z M142.3,294.2
			c-0.4,1.1-0.3,1.9,0.4,1.9C142.5,295.4,142.3,294.8,142.3,294.2z M142.3,294.2c0.9-2.7,4.6-7.1,8.9-3.8
			C148,287.1,142.2,289.3,142.3,294.2z M145,294.8c0,3.9,6,4,6,0C151,290.8,145.1,290.9,145,294.8z M142.3,294.2
			c0.9-2.7,4.6-7.1,8.9-3.8C148,287.1,142.2,289.3,142.3,294.2z M142.3,294.2c-0.4,1.1-0.3,1.9,0.4,1.9
			C142.5,295.4,142.3,294.8,142.3,294.2z M145,294.8c0,3.9,6,4,6,0C151,290.8,145.1,290.9,145,294.8z M142.3,294.2
			c-0.4,1.1-0.3,1.9,0.4,1.9C142.5,295.4,142.3,294.8,142.3,294.2z M142.3,294.2c0.9-2.7,4.6-7.1,8.9-3.8
			C148,287.1,142.2,289.3,142.3,294.2z M145,294.8c0,3.9,6,4,6,0C151,290.8,145.1,290.9,145,294.8z M142.3,294.2
			c0.9-2.7,4.6-7.1,8.9-3.8C148,287.1,142.2,289.3,142.3,294.2z M142.3,294.2c-0.4,1.1-0.3,1.9,0.4,1.9
			C142.5,295.4,142.3,294.8,142.3,294.2z M145,294.8c0,3.9,6,4,6,0C151,290.8,145.1,290.9,145,294.8z M142.3,294.2
			c-0.4,1.1-0.3,1.9,0.4,1.9C142.5,295.4,142.3,294.8,142.3,294.2z M142.3,294.2c0.9-2.7,4.6-7.1,8.9-3.8
			C148,287.1,142.2,289.3,142.3,294.2z M145,294.8c0,3.9,6,4,6,0C151,290.8,145.1,290.9,145,294.8z M142.3,294.2
			c0.9-2.7,4.6-7.1,8.9-3.8C148,287.1,142.2,289.3,142.3,294.2z M142.3,294.2c-0.4,1.1-0.3,1.9,0.4,1.9
			C142.5,295.4,142.3,294.8,142.3,294.2z M116.6,223.9v1.1l0.6-0.1C117,224.5,116.8,224.2,116.6,223.9z M145,294.8c0,3.9,6,4,6,0
			C151,290.8,145.1,290.9,145,294.8z M142.3,294.2c-0.4,1.1-0.3,1.9,0.4,1.9C142.5,295.4,142.3,294.8,142.3,294.2z M142.3,294.2
			c0.9-2.7,4.6-7.1,8.9-3.8C148,287.1,142.2,289.3,142.3,294.2z M145,294.8c0,3.9,6,4,6,0C151,290.8,145.1,290.9,145,294.8z
			 M142.3,294.2c0.9-2.7,4.6-7.1,8.9-3.8C148,287.1,142.2,289.3,142.3,294.2z M142.3,294.2c-0.4,1.1-0.3,1.9,0.4,1.9
			C142.5,295.4,142.3,294.8,142.3,294.2z M145,294.8c0,3.9,6,4,6,0C151,290.8,145.1,290.9,145,294.8z M142.3,294.2
			c-0.4,1.1-0.3,1.9,0.4,1.9C142.5,295.4,142.3,294.8,142.3,294.2z M142.3,294.2c0.9-2.7,4.6-7.1,8.9-3.8
			C148,287.1,142.2,289.3,142.3,294.2z M145,294.8c0,3.9,6,4,6,0C151,290.8,145.1,290.9,145,294.8z M142.3,294.2
			c0.9-2.7,4.6-7.1,8.9-3.8C148,287.1,142.2,289.3,142.3,294.2z M142.3,294.2c-0.4,1.1-0.3,1.9,0.4,1.9
			C142.5,295.4,142.3,294.8,142.3,294.2z M145,294.8c0,3.9,6,4,6,0C151,290.8,145.1,290.9,145,294.8z M142.3,294.2
			c-0.4,1.1-0.3,1.9,0.4,1.9C142.5,295.4,142.3,294.8,142.3,294.2z M142.3,294.2c0.9-2.7,4.6-7.1,8.9-3.8
			C148,287.1,142.2,289.3,142.3,294.2z M145,294.8c0,3.9,6,4,6,0C151,290.8,145.1,290.9,145,294.8z M142.3,294.2
			c0.9-2.7,4.6-7.1,8.9-3.8C148,287.1,142.2,289.3,142.3,294.2z M142.3,294.2c-0.4,1.1-0.3,1.9,0.4,1.9
			C142.5,295.4,142.3,294.8,142.3,294.2z M145,294.8c0,3.9,6,4,6,0C151,290.8,145.1,290.9,145,294.8z M142.3,294.2
			c-0.4,1.1-0.3,1.9,0.4,1.9C142.5,295.4,142.3,294.8,142.3,294.2z M142.3,294.2c0.9-2.7,4.6-7.1,8.9-3.8
			C148,287.1,142.2,289.3,142.3,294.2z M145,294.8c0,3.9,6,4,6,0C151,290.8,145.1,290.9,145,294.8z M142.3,294.2
			c0.9-2.7,4.6-7.1,8.9-3.8C148,287.1,142.2,289.3,142.3,294.2z M142.3,294.2c-0.4,1.1-0.3,1.9,0.4,1.9
			C142.5,295.4,142.3,294.8,142.3,294.2z M145,294.8c0,3.9,6,4,6,0C151,290.8,145.1,290.9,145,294.8z M142.3,294.2
			c-0.4,1.1-0.3,1.9,0.4,1.9C142.5,295.4,142.3,294.8,142.3,294.2z M142.3,294.2c0.9-2.7,4.6-7.1,8.9-3.8
			C148,287.1,142.2,289.3,142.3,294.2z M145,294.8c0,3.9,6,4,6,0C151,290.8,145.1,290.9,145,294.8z M142.3,294.2
			c0.9-2.7,4.6-7.1,8.9-3.8C148,287.1,142.2,289.3,142.3,294.2z M142.3,294.2c-0.4,1.1-0.3,1.9,0.4,1.9
			C142.5,295.4,142.3,294.8,142.3,294.2z M145,294.8c0,3.9,6,4,6,0C151,290.8,145.1,290.9,145,294.8z M142.3,294.2
			c-0.4,1.1-0.3,1.9,0.4,1.9C142.5,295.4,142.3,294.8,142.3,294.2z M142.3,294.2c0.9-2.7,4.6-7.1,8.9-3.8
			C148,287.1,142.2,289.3,142.3,294.2z M145,294.8c0,3.9,6,4,6,0C151,290.8,145.1,290.9,145,294.8z M142.3,294.2
			c0.9-2.7,4.6-7.1,8.9-3.8C148,287.1,142.2,289.3,142.3,294.2z M142.3,294.2c-0.4,1.1-0.3,1.9,0.4,1.9
			C142.5,295.4,142.3,294.8,142.3,294.2z M145,294.8c0,3.9,6,4,6,0C151,290.8,145.1,290.9,145,294.8z M142.3,294.2
			c-0.4,1.1-0.3,1.9,0.4,1.9C142.5,295.4,142.3,294.8,142.3,294.2z M142.3,294.2c0.9-2.7,4.6-7.1,8.9-3.8
			C148,287.1,142.2,289.3,142.3,294.2z M145,294.8c0,3.9,6,4,6,0C151,290.8,145.1,290.9,145,294.8z M142.3,294.2
			c0.9-2.7,4.6-7.1,8.9-3.8C148,287.1,142.2,289.3,142.3,294.2z M142.3,294.2c-0.4,1.1-0.3,1.9,0.4,1.9
			C142.5,295.4,142.3,294.8,142.3,294.2z M145,294.8c0,3.9,6,4,6,0C151,290.8,145.1,290.9,145,294.8z M142.3,294.2
			c-0.4,1.1-0.3,1.9,0.4,1.9C142.5,295.4,142.3,294.8,142.3,294.2z M142.3,294.2c0.9-2.7,4.6-7.1,8.9-3.8
			C148,287.1,142.2,289.3,142.3,294.2z M145,294.8c0,3.9,6,4,6,0C151,290.8,145.1,290.9,145,294.8z M142.3,294.2
			c0.9-2.7,4.6-7.1,8.9-3.8C148,287.1,142.2,289.3,142.3,294.2z M142.3,294.2c-0.4,1.1-0.3,1.9,0.4,1.9
			C142.5,295.4,142.3,294.8,142.3,294.2z M145,294.8c0,3.9,6,4,6,0C151,290.8,145.1,290.9,145,294.8z M142.3,294.2
			c-0.4,1.1-0.3,1.9,0.4,1.9C142.5,295.4,142.3,294.8,142.3,294.2z M142.3,294.2c0.9-2.7,4.6-7.1,8.9-3.8
			C148,287.1,142.2,289.3,142.3,294.2z M145,294.8c0,3.9,6,4,6,0C151,290.8,145.1,290.9,145,294.8z M142.3,294.2
			c0.9-2.7,4.6-7.1,8.9-3.8C148,287.1,142.2,289.3,142.3,294.2z M142.3,294.2c-0.4,1.1-0.3,1.9,0.4,1.9
			C142.5,295.4,142.3,294.8,142.3,294.2z M145,294.8c0,3.9,6,4,6,0C151,290.8,145.1,290.9,145,294.8z M142.3,294.2
			c0.9-2.7,4.6-7.1,8.9-3.8C148,287.1,142.2,289.3,142.3,294.2z M142.3,294.2c-0.4,1.1-0.3,1.9,0.4,1.9
			C142.5,295.4,142.3,294.8,142.3,294.2z M145,294.8c0,3.9,6,4,6,0C151,290.8,145.1,290.9,145,294.8z M142.3,294.2
			c0.9-2.7,4.6-7.1,8.9-3.8C148,287.1,142.2,289.3,142.3,294.2z M142.3,294.2c-0.4,1.1-0.3,1.9,0.4,1.9
			C142.5,295.4,142.3,294.8,142.3,294.2z M272.2,160c0,7.3,10.9,7.5,10.9,0C283.1,152.8,272.2,152.9,272.2,160z M272.2,160
			c0,7.3,10.9,7.5,10.9,0C283.1,152.8,272.2,152.9,272.2,160z M269.5,154.2c-7,7,0.1,19.3,10.3,15.7
			C269.1,171.4,265,160.4,269.5,154.2z M269.5,154.2c-7,7,0.1,19.3,10.3,15.7C269.1,171.4,265,160.4,269.5,154.2z M269.5,154.2
			c-7,7,0.1,19.3,10.3,15.7C269.1,171.4,265,160.4,269.5,154.2z M272.2,160c0,7.3,10.9,7.5,10.9,0
			C283.1,152.8,272.2,152.9,272.2,160z M269.5,154.2c-7,7,0.1,19.3,10.3,15.7C269.1,171.4,265,160.4,269.5,154.2z M272.2,160
			c0,7.3,10.9,7.5,10.9,0C283.1,152.8,272.2,152.9,272.2,160z M269.5,154.2c-7,7,0.1,19.3,10.3,15.7
			C269.1,171.4,265,160.4,269.5,154.2z M272.2,160c0,7.3,10.9,7.5,10.9,0C283.1,152.8,272.2,152.9,272.2,160z M269.5,154.2
			c-7,7,0.1,19.3,10.3,15.7C269.1,171.4,265,160.4,269.5,154.2z M272.2,160c0,7.3,10.9,7.5,10.9,0
			C283.1,152.8,272.2,152.9,272.2,160z M269.5,154.2c-7,7,0.1,19.3,10.3,15.7C269.1,171.4,265,160.4,269.5,154.2z M272.2,160
			c0,7.3,10.9,7.5,10.9,0C283.1,152.8,272.2,152.9,272.2,160z M269.5,154.2c-7,7,0.1,19.3,10.3,15.7
			C269.1,171.4,265,160.4,269.5,154.2z M272.2,160c0,7.3,10.9,7.5,10.9,0C283.1,152.8,272.2,152.9,272.2,160z M269.5,154.2
			c-7,7,0.1,19.3,10.3,15.7C269.1,171.4,265,160.4,269.5,154.2z M272.2,160c0,7.3,10.9,7.5,10.9,0
			C283.1,152.8,272.2,152.9,272.2,160z M269.5,154.2c-7,7,0.1,19.3,10.3,15.7C269.1,171.4,265,160.4,269.5,154.2z M272.2,160
			c0,7.3,10.9,7.5,10.9,0C283.1,152.8,272.2,152.9,272.2,160z M269.5,154.2c-7,7,0.1,19.3,10.3,15.7
			C269.1,171.4,265,160.4,269.5,154.2z M272.2,160c0,7.3,10.9,7.5,10.9,0C283.1,152.8,272.2,152.9,272.2,160z M269.5,154.2
			c-7,7,0.1,19.3,10.3,15.7C269.1,171.4,265,160.4,269.5,154.2z M272.2,160c0,7.3,10.9,7.5,10.9,0
			C283.1,152.8,272.2,152.9,272.2,160z M269.5,154.2c-7,7,0.1,19.3,10.3,15.7C269.1,171.4,265,160.4,269.5,154.2z M272.2,160
			c0,7.3,10.9,7.5,10.9,0C283.1,152.8,272.2,152.9,272.2,160z M269.5,154.2c-7,7,0.1,19.3,10.3,15.7
			C269.1,171.4,265,160.4,269.5,154.2z M272.2,160c0,7.3,10.9,7.5,10.9,0C283.1,152.8,272.2,152.9,272.2,160z M269.5,154.2
			c-7,7,0.1,19.3,10.3,15.7C269.1,171.4,265,160.4,269.5,154.2z M272.2,160c0,7.3,10.9,7.5,10.9,0
			C283.1,152.8,272.2,152.9,272.2,160z M269.5,154.2c-7,7,0.1,19.3,10.3,15.7C269.1,171.4,265,160.4,269.5,154.2z M272.2,160
			c0,7.3,10.9,7.5,10.9,0C283.1,152.8,272.2,152.9,272.2,160z M179.8,282.4c-5,4.3-8.3,6.8-9,6.6c-0.9-0.2,1.1-2.5,5.5-6.6h-20.7
			c6.2,5.9,15.1,14.4,15.1,14.4c1,0,7.8-5.5,17.7-14.4c4.6-4.2,10-9.1,15.8-14.5v-7.7C194.5,269.4,185.9,277.2,179.8,282.4z
			 M269.5,154.2c-7,7,0.1,19.3,10.3,15.7C269.1,171.4,265,160.4,269.5,154.2z M272.2,160c0,7.3,10.9,7.5,10.9,0
			C283.1,152.8,272.2,152.9,272.2,160z M272.2,160c0,7.3,10.9,7.5,10.9,0C283.1,152.8,272.2,152.9,272.2,160z M269.5,154.2
			c-7,7,0.1,19.3,10.3,15.7C269.1,171.4,265,160.4,269.5,154.2z M272.2,160c0,7.3,10.9,7.5,10.9,0
			C283.1,152.8,272.2,152.9,272.2,160z M269.5,154.2c-7,7,0.1,19.3,10.3,15.7C269.1,171.4,265,160.4,269.5,154.2z M272.2,160
			c0,7.3,10.9,7.5,10.9,0C283.1,152.8,272.2,152.9,272.2,160z M269.5,154.2c-7,7,0.1,19.3,10.3,15.7
			C269.1,171.4,265,160.4,269.5,154.2z M272.2,160c0,7.3,10.9,7.5,10.9,0C283.1,152.8,272.2,152.9,272.2,160z M269.5,154.2
			c-7,7,0.1,19.3,10.3,15.7C269.1,171.4,265,160.4,269.5,154.2z M272.2,160c0,7.3,10.9,7.5,10.9,0
			C283.1,152.8,272.2,152.9,272.2,160z M269.5,154.2c-7,7,0.1,19.3,10.3,15.7C269.1,171.4,265,160.4,269.5,154.2z M272.2,160
			c0,7.3,10.9,7.5,10.9,0C283.1,152.8,272.2,152.9,272.2,160z M269.5,154.2c-7,7,0.1,19.3,10.3,15.7
			C269.1,171.4,265,160.4,269.5,154.2z M272.2,160c0,7.3,10.9,7.5,10.9,0C283.1,152.8,272.2,152.9,272.2,160z M269.5,154.2
			c-7,7,0.1,19.3,10.3,15.7C269.1,171.4,265,160.4,269.5,154.2z M272.2,160c0,7.3,10.9,7.5,10.9,0
			C283.1,152.8,272.2,152.9,272.2,160z M269.5,154.2c-7,7,0.1,19.3,10.3,15.7C269.1,171.4,265,160.4,269.5,154.2z M272.2,160
			c0,7.3,10.9,7.5,10.9,0C283.1,152.8,272.2,152.9,272.2,160z M269.5,154.2c-7,7,0.1,19.3,10.3,15.7
			C269.1,171.4,265,160.4,269.5,154.2z M272.2,160c0,7.3,10.9,7.5,10.9,0C283.1,152.8,272.2,152.9,272.2,160z M269.5,154.2
			c-7,7,0.1,19.3,10.3,15.7C269.1,171.4,265,160.4,269.5,154.2z M272.2,160c0,7.3,10.9,7.5,10.9,0
			C283.1,152.8,272.2,152.9,272.2,160z M269.5,154.2c-7,7,0.1,19.3,10.3,15.7C269.1,171.4,265,160.4,269.5,154.2z M272.2,160
			c0,7.3,10.9,7.5,10.9,0C283.1,152.8,272.2,152.9,272.2,160z M269.5,154.2c-7,7,0.1,19.3,10.3,15.7
			C269.1,171.4,265,160.4,269.5,154.2z M272.2,160c0,7.3,10.9,7.5,10.9,0C283.1,152.8,272.2,152.9,272.2,160z M269.5,154.2
			c-7,7,0.1,19.3,10.3,15.7C269.1,171.4,265,160.4,269.5,154.2z M272.2,160c0,7.3,10.9,7.5,10.9,0
			C283.1,152.8,272.2,152.9,272.2,160z M269.5,154.2c-7,7,0.1,19.3,10.3,15.7C269.1,171.4,265,160.4,269.5,154.2z M272.2,160
			c0,7.3,10.9,7.5,10.9,0C283.1,152.8,272.2,152.9,272.2,160z M269.5,154.2c-7,7,0.1,19.3,10.3,15.7
			C269.1,171.4,265,160.4,269.5,154.2z M272.2,160c0,7.3,10.9,7.5,10.9,0C283.1,152.8,272.2,152.9,272.2,160z M269.5,154.2
			c-7,7,0.1,19.3,10.3,15.7C269.1,171.4,265,160.4,269.5,154.2z"/>
		<path class="st2" d="M118.4,253.6c-2.5-2.4-5-4.9-7.4-7.2c-1,0,7.1-5.6,7.5-14.4c0.1-2.6,0.3-4.2-1.5-7.1l-0.6,0.1v-1.1
			c-2.1-3.2-6.2-7.8-14.2-16c-7.4-7.6-18.1-18.2-33.5-33.7c-20.6-20.4-36.7-36.7-40.6-37c-6-0.9-22.5,19.5-23.6,24.5
			c-2.7,11.3,7.3,0.4,89.6,97.5c3,3.3,5.7,6.2,8.2,8.8v-3.4c-14.4-16-24.7-31.9-69.3-76.3c-21-20.9-29-21.7-24-29.2
			c2.7-4.2,10.9-11.8,8.5-7.3c-9.8,15.5-13.8,3.7,28.5,46.1c30.5,30.2,43.6,48.2,56.3,62.9v-6.9c-0.2-0.2-0.4-0.4-0.6-0.7
			c-8.3-9.8-22.8-29.4-67.7-70.8c-48.8-45.9,26.4,23,49.2,45.9c7.9,8.1,12.3,13.9,19.1,21.4c3.7,4.1,8.2,8.7,14.2,14.5v-5.6
			c-6.8-6.5-11.1-10.7-3.7-4.5c1.3,1.1,2.5,2.1,3.7,3.1c10.9,9.1,18.3,15.3,23.2,19.5l3.2-0.8C134.7,268.6,126.2,261,118.4,253.6z
			 M102.3,227c-13.6-12.8-40.2-38.8-81.1-80.1c0.9-0.9,5-5.3,6.3-5.3c3.3,0.7,52.6,50,74.8,73.1c4.4,4.6,7.8,8.2,9.5,10.1
			c5.4,6.4,0.8,2.2-9.5-7.7c-13.7-13.2-37.4-36.5-60.6-58.5c-47.3-45,43.8,45.5,60.6,60.7c1.5,1.4,2.4,2.1,2.5,2.1
			c9.4,9.2,9.9,8.3,9,11.6c-2.3-2.5-6.4-6.5-11.6-11.6c-34.6-33.8-117.7-111.7-49.1-45.1c22.5,21.7,39.1,38.2,49.1,48.3
			C116.6,239.3,117.2,241.1,102.3,227z"/>
		<path class="st2" d="M286.1,139.9c-17.5-7.6-24.9,16.4-50.7,49.6c-10.2,13.2-21,25.5-31.3,36.3c-4.9,5.1-9.7,10-14.2,14.5
			c-16.6,16.2-30.4,27.9-36.7,33.3c-2.4,2.1-3.7,3.2-3.5,3.3c0.1,0.1,2.6,2.5,5.8,5.6h20.7c5.7-5.5,15.5-14.3,27.9-26.1V250
			c-4.5,4.3-9.2,8.9-14.2,13.6v1.1l-1.6,0.4c-4.1,3.8-8.3,7.7-12.7,11.8c-11.4,10.8-5.3,3.8,8.4-10.7c1.8-2,3.8-4.1,5.9-6.3
			c4.3-4.6,9.2-9.7,14.2-15c23.2-24.3,51.9-54.1,65.6-68.7c1.1-1.1,1,0.1-2-2.2c-6.7-5.5-5.4-15.5-4.2-11.9
			c4.3,19.9,21.6,8.6,16.7,16.1c-9.7,15.8-47.6,54.7-76.1,81.9v7.7c35.8-33.8,87.8-87.6,91.5-108.6
			C297.1,149.8,293.1,142.8,286.1,139.9z M284.9,160.1c0,9.8-14.6,9.6-14.5-0.1C270.4,150.5,284.9,150.4,284.9,160.1z M265.9,161
			c0-7.2,6.9-11.9,13.6-9.9c-5.9-1-10.9,3.3-10.9,8.9c0,11.2,15.8,12.5,18,2C285.5,175.1,265.8,174.3,265.9,161z"/>
	</g>
</g>
</svg>
