<?xml version="1.0" encoding="utf-8"?>
<!-- Generator: Adobe Illustrator 28.2.0, SVG Export Plug-In . SVG Version: 6.00 Build 0)  -->
<svg version="1.1" id="Layer_1" xmlns="http://www.w3.org/2000/svg" xmlns:xlink="http://www.w3.org/1999/xlink" x="0px" y="0px"
	 viewBox="0 0 595.3 299" style="enable-background:new 0 0 595.3 299;" xml:space="preserve">
<style type="text/css">
	.st0{font-family:'OpenSans-Extrabold';}
	.st1{font-size:116.0626px;}
	.st2{fill-rule:evenodd;clip-rule:evenodd;}
</style>
<g>
	<text transform="matrix(1 0 0 1 30.1631 224.7602)" class="st0 st1">V  RTUOSO</text>
</g>
<g>
	<g>
		<path class="st2" d="M406.2,20.2c4.5,1.9,7,6.4,6,12.4c-3.5,20.2-77.1,88.1-80,88.1c0,0-13.2-12.6-13.4-12.8
			c-0.6-0.3,29.7-23.3,54.9-55.9C390.3,30.7,395,15.4,406.2,20.2z M402.4,44.8c3.1-4.8-7.9,2.4-10.7-10.3c-0.8-2.3-1.6,4.1,2.7,7.6
			c1.9,1.4,2,0.7,1.3,1.4c-18.6,19.7-79.9,83-60.3,64.5c46.6-42.7,61.3-64.3,62.3-64.3c2.8,0.8,2.6,0.7-1.7,5.9
			c-34.1,41.1-66.1,65.5-63.7,66.1C335,116.4,392.3,61.1,402.4,44.8z M295.3,93.4c-9.8-8.3,12.3,12.1,14.9,14.8
			c3.9,4.1,4.1,6.3,0.1,2.9c-22.5-19-23.7-23.7-33.9-34.1c-14.6-14.7-62.7-58.8-31.5-29.4c28.7,26.5,38,39,43.3,45.3
			c13.5,16,23.5,20.7,23.2,23.1c-0.1,0.5-0.3,1.2-1,1c-1-0.2-8.6-6.1-10-7.3c-14.6-12.6-19.5-24.2-47.9-52.3
			c-27.1-27.1-24.5-19.6-18.3-29.5c1.5-2.9-3.7,2-5.4,4.7c-3.2,4.8,2,5.3,15.4,18.7c44.4,44.1,35.8,44.3,66.2,68.9
			c6.4,5.2-1.5-2.2,5.4-5.6C318.7,113.2,323,116.4,295.3,93.4z M249.8,32.2c26,24.7,52.9,51.9,44.8,42.4
			c-6.4-7.3-51.4-52.7-53.9-53.2c-0.8,0-3.5,2.8-4,3.4c74.9,75.6,74.6,70.9,20.5,18.8c-50.5-49,27.3,24.1,38.8,36.3
			c0.5-2.1,0.2-1.5-5.8-7.4C289.1,72.4,216.7,0.8,249.8,32.2z M406.5,34.4c-1.4,6.7-11.6,5.9-11.6-1.3c0-3.6,3.2-6.4,7-5.7
			c-4.3-1.3-8.7,1.8-8.7,6.3C393.2,42.3,405.8,42.8,406.5,34.4L406.5,34.4z M402.2,39.4c-6.5,2.4-11.1-5.5-6.6-10
			C392.6,33.4,395.3,40.4,402.2,39.4z M396.1,33.1c0,6.2,9.3,6.3,9.3,0C405.4,27,396.1,27,396.1,33.1L396.1,33.1z M404.2,33.1
			c0,4.7-7,4.7-7,0C397.3,28.5,404.3,28.5,404.2,33.1L404.2,33.1z M319.9,116.5c-2.3-2.3-6.8-0.3-5.5,3.7
			C312.9,120.2,316,113.6,319.9,116.5z M315.9,119.4c0,2.5,3.8,2.6,3.8,0C319.7,116.9,315.9,116.9,315.9,119.4L315.9,119.4z
			 M314.6,119.4c0-4.9,7.8-3.6,6.4,0.6c2-5-7.1-6.9-7.1-1.1c0,1.9,1.4,3.5,3.3,3.6C314.8,122.1,314.4,119.4,314.6,119.4z
			 M317.8,116.9c3.5,0,3.4,5.1,0,5.1C314.5,122,314.4,116.9,317.8,116.9z M294.1,88.4c20.2,20.4,53.4,44.5,48.7,55.8
			c-0.4,0.9-1,2-2,2.4c0,0-2.3,0.8-3.8,0.4c-6.7-1.5,1.3-15.4-13.1-17.7c-4.3-0.8-4.8,0.3-8.1-2.5c-18-15.7-21.7-18.1-32.6-30.2
			c-52.7-62.2-59.1-55.2-57.3-62.4c0.7-3.2,11.3-16.3,15.1-15.7c2.5,0.2,12.8,10.6,26,23.7c32.5,32.5,32.1,32,31.9,36.9
			C298.7,84.8,293.5,88.4,294.1,88.4z M319.9,131.3c-2.3,2-5.7,4.8-8.2,5.6c-7.9,2.4-15.9-8.2-8.7-16.2
			C305.4,118.2,313.7,131.3,319.9,131.3z"/>
	</g>
</g>
<g>
	<path d="M123.2,238c7.5,0,13.6-5.6,14.4-12.9h-28.9C109.6,232.3,115.7,238,123.2,238z"/>
	<path d="M142.9,212.7h-2.5v-58.2h2.5v-12.2H135c-1.6-2-3.4-4.9-4-8.5c0,0-0.1,0-0.1,0.1c4.1-2.6,6.8-7.1,6.8-12.3
		c0-8-6.5-14.5-14.5-14.5s-14.5,6.5-14.5,14.5c0,5.2,2.7,9.8,6.9,12.3c0,0-0.1-0.1-0.1-0.1c-0.6,3.6-2.4,6.6-4,8.5h-7.9v12.2h2.5
		v58.2h-2.5v12.2h39.4V212.7z M123.2,136C123.2,136,123.2,136,123.2,136C123.2,136,123.2,136,123.2,136
		C123.2,136,123.1,136,123.2,136C123.1,136,123.2,136,123.2,136z M121.5,108.8c0.8,0,1.5,0.7,1.5,1.5c0,0.8-0.7,1.5-1.5,1.5
		c-0.8,0-1.5-0.7-1.5-1.5C120,109.5,120.6,108.8,121.5,108.8z M113.8,121.5c0,0.8-0.6,1.4-1.4,1.4c-0.8,0-1.4-0.6-1.4-1.4
		c0-4.3,2.2-8.2,5.9-10.5c0.6-0.4,1.5-0.2,1.9,0.4c0.4,0.6,0.2,1.5-0.4,1.9C115.5,115.1,113.8,118.1,113.8,121.5z M110.8,171.3
		l24.8-6v9.6l-24.8,6V171.3z M110.8,190.8l24.8-6v9.6l-24.8,6V190.8z M108.3,147.1h29.8v2.6h-29.8V147.1z M135.6,154.5v1l-24.8,6v-7
		H135.6z M110.8,210.2l24.8-6v8.5h-24.8V210.2z M138.1,220.1h-29.8v-2.5h29.8V220.1z"/>
</g>
<g>
	<g>
		<path d="M434.2,254.7c0-2.1,0-4.2,0-6.4c0.5-8.3-2-12.4-7.7-12.4c-5.3,0-10.5,0-15.7,0v46.4c2.9,0.5,5.8,1,8.7,1.6V265
			c2.3,0.3,4.7,0.6,7,0.9C432.1,266.6,434.7,262.9,434.2,254.7z M425.6,244.8v12c0,0.1,0,0.1,0,0.2c0,0.1,0,0.1,0,0.2c0,0,0,0,0,0.1
			c0,0.2-0.2,0.5-0.3,0.6c-0.2,0.3-0.5,0.4-0.9,0.4c-1.6-0.2-3.2-0.3-4.8-0.5V243c1.6,0,3.2,0.1,4.8,0.2c0.3,0,0.6,0.2,0.9,0.5
			c0.1,0.1,0.1,0.2,0.2,0.2c0.1,0.2,0.2,0.5,0.2,0.7C425.6,244.7,425.6,244.7,425.6,244.8z"/>
		<path d="M396.8,235.1h-8.3c-5.2,0-7.7,2.9-7.7,8.7v26.6c0,5.8,2.6,8.9,7.7,9.5c2.7,0.3,5.5,0.6,8.3,1c5.1,0.7,7.7-2,7.7-8.2v-28.3
			C404.5,238.2,401.9,235.1,396.8,235.1z M395.8,272.8c0,0.4-0.1,0.7-0.3,0.9c-0.2,0.3-0.5,0.4-0.9,0.3c-1.3-0.1-2.6-0.3-3.9-0.4
			c-0.3,0-0.6-0.2-0.9-0.5c-0.2-0.3-0.3-0.6-0.3-1v-29.3c0-0.4,0.1-0.7,0.3-0.9c0.2-0.3,0.5-0.4,0.9-0.4c1.3,0,2.6,0,3.9,0.1
			c0.3,0,0.6,0.2,0.9,0.4c0.2,0.3,0.3,0.6,0.3,1V272.8z M365.8,235.8v17.4c-2.3-0.1-4.6-0.1-6.9-0.2v-17.3h-8.7v40.8
			c2.9,0.1,5.8,0.2,8.7,0.4v-16.2c2.3,0.1,4.6,0.1,6.9,0.2v16.3c2.9,0.2,5.8,0.4,8.7,0.6v-42.2C371.7,235.8,368.7,235.8,365.8,235.8
			z M336.8,251.6c-1.9,0-3.7,0-5.6,0c-0.3,0-0.6-0.1-0.9-0.4c-0.3-0.3-0.4-0.6-0.3-1c0-2.3,0-4.6,0-6.9c0-0.4,0.1-0.7,0.3-1
			c0.2-0.2,0.5-0.4,0.9-0.4c1.1,0,2.3,0,3.4,0c0.3,0,0.6,0.1,0.8,0.4c0.6,0.7,0.3,1.7-0.4,2.7c0.4,0.8,0.3,0.6,0.7,1.4
			c2.7,0,5.5,0,8.3,0v-3c0-5.5-2.6-8.3-7.7-8.3h-6.9c-5.1,0-7.7,2.7-7.7,8.2v8.1c0,5.5,2.6,8.2,7.7,8.2c1.9,0,3.7,0,5.6,0
			c0.3,0,0.6,0.1,0.9,0.4c0.3,0.3,0.4,0.7,0.3,1.1c0,2.5,0,4.9,0,7.4c0.1,0.5,0,0.9-0.3,1.2c-0.2,0.3-0.5,0.4-0.9,0.4
			c-1.3,0-2.6,0-3.8,0c-0.3,0-0.6-0.1-0.9-0.4c-0.7-0.8-0.3-1.9,0.8-3c-0.7-1.5-0.4-0.8-1.1-2.3c-2.8,0-5.5,0-8.3-0.1v4.2
			c0,5.5,2.6,8.2,7.7,8.3c2.4,0,4.9,0.1,7.3,0.1c5.2,0.1,7.7-2.6,7.7-8.3v-8.5C344.5,254.6,342,251.8,336.8,251.6z M316.2,248.8V244
			c0-5.5-2.6-8.2-7.7-8.2H293V276h8.7v-16.5h4.2c0.8,0,1.2,0.4,1.2,1.2V276c2.9,0,5.8,0,8.7,0v-15.9c0-2.6-1-4.4-3.1-5.1
			C314.9,254.1,316.1,252,316.2,248.8z M307.1,253c-0.2,0.3-0.5,0.4-0.9,0.4h-4.6v-11.8h4.6c0.3,0,0.6,0.1,0.9,0.4
			c0.3,0.3,0.4,0.6,0.3,1c0,3,0,5.8,0,8.8C307.5,252.3,307.4,252.7,307.1,253z M287.9,242.8v-7.1h-18.3V276c6.1,0,12.2,0,18.3,0
			v-7.2h-9.7v-9.6h9v-6.8h-9v-9.4H287.9z M259.6,254c2.3-0.9,3.5-3,3.5-6.4V244c0-5.5-2.6-8.2-7.7-8.2c-5.2,0-10.4,0-15.5,0v40.7
			c5.3-0.1,10.7-0.3,16-0.3c5.1-0.1,7.7-2.7,7.7-8.1v-7.2C263.7,257.3,262.3,255,259.6,254z M248.6,241.7c1.5,0,3.1,0,4.6,0
			c0.3,0,0.6,0.1,0.8,0.4c0.4,0.5,0.4,1,0.1,1.8c0,2.4,0.1,4.5,0.1,6.9c0.2,0.6,0.1,1-0.2,1.4c-0.2,0.3-0.5,0.4-0.8,0.4
			c-1.6,0-3.1,0-4.6,0V241.7z M254.5,269.8c-0.2,0.3-0.5,0.4-0.8,0.4c-1.7,0-3.4,0-5.1,0.1v-11.6c1.7,0,3.4,0,5.1,0
			c0.3,0,0.6,0.1,0.8,0.4c0.4,0.4,0.5,1.1,0.1,1.7c-0.1,2.5-0.1,4.3-0.2,6.8C254.9,268.4,255.1,269.2,254.5,269.8z M234.3,249.1v-5
			c0-5.5-2.6-8.3-7.7-8.3c-5.2,0-10.3,0-15.5,0v42.2c2.9-0.2,5.8-0.4,8.7-0.6v-17c1.4-0.1,2.8-0.1,4.2-0.2c0.8,0,1.2,0.4,1.2,1.2
			V277c2.9-0.1,5.8-0.3,8.7-0.4v-16.2c0-2.7-1-4.4-3.1-5.1C233.1,254.4,234.3,252.3,234.3,249.1z M225.3,253.5
			c-0.2,0.3-0.5,0.4-0.8,0.4c-1.6,0-3.1,0.1-4.6,0.1v-12.1c1.5,0,3.1,0,4.6,0c0.3,0,0.6,0.1,0.8,0.4c0.3,0.3,0.4,0.6,0.3,1
			c0,3,0,5.9-0.1,8.9C225.7,252.7,225.6,253.1,225.3,253.5z M196.9,235.1h-8.3c-5.1,0-7.7,3.1-7.7,9.3v36.9c2.9-0.4,5.8-0.8,8.7-1.2
			v-14.9c2.1-0.2,4.2-0.3,6.3-0.5v14.6c2.9-0.3,5.8-0.6,8.7-0.9v-34.6C204.6,238,202.1,235.1,196.9,235.1z M196,257.5
			c-2.1,0.1-4.2,0.3-6.3,0.4V243c0-0.4,0.1-0.7,0.3-1c0.2-0.3,0.5-0.4,0.8-0.4c1.3,0,2.6,0,3.9-0.1c0.3,0,0.6,0.1,0.8,0.4
			c0.2,0.3,0.4,0.6,0.4,0.9V257.5z M170.9,257.2c2.4-1.2,3.5-3.8,3.5-7.6v-4.2c0-6.3-2.6-9.5-7.7-9.5c-5.2,0-10.3,0-15.5,0V287
			c5.3-1.2,10.6-2.4,16-3.4c5.1-1,7.7-4.4,7.7-10.6v-8.3C175,260.6,173.7,258.1,170.9,257.2z M160,243.1c1.5,0,3-0.1,4.6-0.2
			c0.3,0,0.6,0.1,0.8,0.4c0.3,0.4,0.4,0.9,0.3,1.5c0,2.9,0,5.8,0,8.7c0.2,0.6,0.1,1.2-0.3,1.7c-0.2,0.3-0.5,0.5-0.8,0.5
			c-1.6,0.1-3.1,0.3-4.6,0.4V243.1z M166.3,275.2c0,0.4-0.1,0.8-0.3,1.1c-0.2,0.3-0.5,0.5-0.8,0.6c-1.7,0.3-3.4,0.6-5.1,0.9v-14.1
			c1.7-0.2,3.4-0.4,5.1-0.6c0.3,0,0.6,0.1,0.8,0.4c0.2,0.3,0.3,0.6,0.3,1V275.2z"/>
	</g>
	<rect x="30.6" y="255.5" width="110.1" height="4.5"/>
	<rect x="444.9" y="255.5" width="110.1" height="4.5"/>
</g>
</svg>
